<svg xmlns="http://www.w3.org/2000/svg" fill="none" viewBox="0 0 43 40"><path fill="#108CB9" d="m21.515.502 4.58 2.523-.15.267L21.368.77l.148-.268z" clip-rule="evenodd" fill-rule="evenodd"/><path fill="#108CB9" d="M21.455 1.224A.613.613 0 1 0 21.457 0a.613.613 0 0 0-.002 1.225zM26.02 3.77a.613.613 0 1 0 .001-1.225.613.613 0 0 0-.001 1.226z"/><path fill="#108CB9" d="m21.517.769-4.58 2.557-.15-.268 4.58-2.556.15.267z" clip-rule="evenodd" fill-rule="evenodd"/><path fill="#108CB9" d="M16.861 3.77a.613.613 0 1 0 .002-1.225.613.613 0 0 0-.002 1.226z"/><path fill="#108CB9" d="m21.367 39.23 4.579-2.523.148.268-4.579 2.523-.148-.267z" clip-rule="evenodd" fill-rule="evenodd"/><path fill="#108CB9" d="M21.455 40a.613.613 0 1 0 .002-1.226.613.613 0 0 0-.002 1.226zM26.02 37.453a.613.613 0 1 0 .001-1.226.613.613 0 0 0-.001 1.226z"/><path fill="#108CB9" d="m21.367 39.498-4.58-2.557.15-.267 4.58 2.557-.15.267z" clip-rule="evenodd" fill-rule="evenodd"/><path fill="#108CB9" d="M16.861 37.453a.613.613 0 1 0 .002-1.226.613.613 0 0 0-.002 1.226z"/><path fill="#108CB9" d="M4.531 10.227 9.005 7.52l.159.262-4.474 2.706-.159-.261z" clip-rule="evenodd" fill-rule="evenodd"/><path fill="#108CB9" d="M4.598 10.945a.613.613 0 1 0 .001-1.225.613.613 0 0 0-.001 1.225zM1.062 8.92a.613.613 0 1 0 .001-1.226.613.613 0 0 0-.001 1.225zM9.084 8.263a.613.613 0 1 0 .002-1.225.613.613 0 0 0-.002 1.225z"/><path fill="#108CB9" d="m4.764 10.36-.059 5.234-.307-.004.06-5.234.306.003z" clip-rule="evenodd" fill-rule="evenodd"/><path fill="#108CB9" d="M4.523 16.188a.613.613 0 1 0 .001-1.226.613.613 0 0 0-.001 1.226z"/><path fill="#108CB9" d="m1.03 8.13 3.657 2.095-.153.265L.877 8.395l.153-.265zM38.118 29.64l.088-5.218.307.005-.088 5.218-.307-.005z" clip-rule="evenodd" fill-rule="evenodd"/><path fill="#108CB9" d="M38.299 30.255a.613.613 0 1 0 .001-1.226.613.613 0 0 0-.001 1.226zM41.834 32.28a.613.613 0 1 0 .002-1.226.613.613 0 0 0-.002 1.226zM38.36 25.036a.613.613 0 1 0 .001-1.225.613.613 0 0 0-.001 1.225z"/><path fill="#108CB9" d="m38.35 29.774-4.502 2.689-.158-.263 4.502-2.689.158.263z" clip-rule="evenodd" fill-rule="evenodd"/><path fill="#108CB9" d="M33.798 32.961a.613.613 0 1 0 .001-1.225.613.613 0 0 0 0 1.225z"/><path fill="#108CB9" d="m41.853 31.87-3.658-2.095.153-.265 3.657 2.095-.152.266zM4.496 29.713l-.106-5.218.306-.006.107 5.218-.307.006z" clip-rule="evenodd" fill-rule="evenodd"/><path fill="#108CB9" d="M4.621 30.322a.613.613 0 1 0 .002-1.226.613.613 0 0 0-.002 1.226zM1.094 32.36a.613.613 0 1 0 .001-1.225.613.613 0 0 0-.001 1.225zM4.543 25.104a.613.613 0 1 0 .002-1.226.613.613 0 0 0-.002 1.226z"/><path fill="#108CB9" d="m4.727 29.578 4.511 2.673-.157.263-4.51-2.673.156-.263z" clip-rule="evenodd" fill-rule="evenodd"/><path fill="#108CB9" d="M9.132 33.012a.613.613 0 1 0 .001-1.226.613.613 0 0 0-.001 1.226z"/><path fill="#108CB9" d="m.923 31.686 3.649-2.109.154.265-3.65 2.109-.153-.265zM38.16 10.433l-4.482-2.69.158-.262 4.482 2.69-.158.262z" clip-rule="evenodd" fill-rule="evenodd"/><path fill="#108CB9" d="M38.253 10.89a.613.613 0 1 0 .002-1.226.613.613 0 0 0-.002 1.226zM41.782 8.852a.613.613 0 1 0 0-1.226.613.613 0 0 0 0 1.226zM33.757 8.224A.613.613 0 1 0 33.759 7a.613.613 0 0 0-.002 1.225z"/><path fill="#108CB9" d="m38.393 10.3.077 5.234-.306.005-.078-5.235.307-.005z" clip-rule="evenodd" fill-rule="evenodd"/><path fill="#108CB9" d="M38.346 16.132a.613.613 0 1 0 .001-1.226.613.613 0 0 0-.001 1.226z"/><path fill="#108CB9" d="m41.966 8.326-3.65 2.108-.153-.265 3.65-2.108.153.265z" clip-rule="evenodd" fill-rule="evenodd"/><path fill="#9589EA" d="m26.082 11.307-4.659-2.684-4.66 2.684 4.66 2.684 4.66-2.684z"/><path fill="#6559A2" d="M21.423 19.36V13.99l-4.66-2.684v5.368l4.66 2.684zM21.423 19.36V13.99l4.66-2.684v5.368l-4.66 2.684z"/><path fill="#1C2135" d="m21.423 8.506-4.762 2.743v5.485l4.762 2.744 4.761-2.744V11.25l-4.761-2.743zm4.455 2.801-4.455 2.567-4.455-2.566 4.455-2.566 4.455 2.566zm-9.012.177 4.454 2.565v5.133l-4.454-2.567v-5.132zm4.659 7.698v-5.133l4.455-2.566v5.132l-4.455 2.567z"/><path fill="#6559A2" d="M20.97 20.285 16.31 17.6l-4.659 2.684 4.66 2.684 4.66-2.684z"/><path fill="#9589EA" d="M16.31 28.337v-5.368l-4.659-2.684v5.368l4.66 2.684z"/><path fill="#6559A2" d="M16.31 28.337v-5.368l4.66-2.684v5.368l-4.66 2.684z"/><path fill="#1C2135" d="m16.31 17.483-4.761 2.743v5.486l4.762 2.743 4.761-2.743v-5.486l-4.761-2.743zm4.455 2.801-4.455 2.567-4.454-2.565 4.454-2.567 4.455 2.567v-.001zm-9.012.177 4.455 2.566v5.132l-4.455-2.567V20.46v.001zm4.66 7.698v-5.132l4.455-2.567v5.132l-4.455 2.567z"/><path fill="#6559A2" d="m31.195 20.285-4.66-2.684-4.659 2.684 4.66 2.684 4.659-2.684zM26.535 28.337v-5.368l-4.659-2.684v5.368l4.66 2.684z"/><path fill="#9589EA" d="M26.535 28.337v-5.368l4.66-2.684v5.368l-4.66 2.684z"/><path fill="#1C2135" d="m26.536 17.483-4.762 2.743v5.486l4.762 2.743 4.762-2.743v-5.486l-4.762-2.743zm4.455 2.801-4.455 2.567-4.455-2.565 4.455-2.567 4.455 2.567v-.001zm-9.012.177 4.455 2.566v5.132l-4.455-2.566v-5.132zm4.66 7.699v-5.132l4.454-2.567v5.132l-4.455 2.567z"/><path fill="#9589EA" d="m31.195 14.368-4.66-2.684-4.659 2.684 4.66 2.684 4.659-2.684z"/><path fill="#6559A2" d="M26.535 22.42v-5.368l-4.659-2.684v5.368l4.66 2.684z"/><path fill="#9589EA" d="M26.535 22.42v-5.368l4.66-2.684v5.368l-4.66 2.684z"/><path fill="#1C2135" d="m26.536 11.566-4.762 2.744v5.485l4.762 2.743 4.762-2.743V14.31l-4.762-2.744zm4.455 2.802-4.455 2.566-4.455-2.565 4.455-2.567 4.455 2.567v-.001zm-9.012.176 4.455 2.566v5.132l-4.455-2.565v-5.133zm4.66 7.7V17.11l4.454-2.567v5.133l-4.455 2.566z"/><path fill="#9589EA" d="m20.97 14.368-4.66-2.684-4.659 2.684 4.66 2.684 4.66-2.684z"/><path fill="#9589EA" d="M16.31 22.42v-5.368l-4.659-2.684v5.368l4.66 2.684z"/><path fill="#6559A2" d="M16.31 22.42v-5.368l4.66-2.684v5.368l-4.66 2.684z"/><path fill="#1C2135" d="M16.31 11.566 11.55 14.31v5.485l4.762 2.743 4.761-2.743V14.31l-4.761-2.744zm4.455 2.802-4.455 2.566-4.454-2.565 4.454-2.567 4.455 2.567v-.001zm-9.012.176 4.455 2.566v5.132l-4.455-2.566v-5.133.001zm4.66 7.698V17.11l4.455-2.567v5.133l-4.455 2.566z"/><path fill="#6559A2" d="m26.082 23.243-4.659-2.684-4.66 2.684 4.66 2.684 4.66-2.684z"/><path fill="#9589EA" d="M21.423 31.295v-5.368l-4.66-2.684v5.368l4.66 2.684zM21.423 31.295v-5.368l4.66-2.684v5.368l-4.66 2.684z"/><path fill="#1C2135" d="m21.423 20.442-4.762 2.743v5.485l4.762 2.743 4.761-2.743v-5.485l-4.761-2.743zm4.455 2.801-4.455 2.567-4.455-2.566 4.455-2.567 4.455 2.567v-.001zm-9.012.177 4.454 2.565v5.133l-4.454-2.566V23.42zm4.659 7.699v-5.133l4.455-2.566v5.132l-4.455 2.567z"/><path fill="#9589EA" d="m26.082 17.428-4.659-2.684-4.66 2.684 4.66 2.684 4.66-2.684zM21.423 25.48v-5.368l-4.66-2.684v5.368l4.66 2.684z"/><path fill="#9589EA" d="M21.423 25.48v-5.368l4.66-2.684v5.368l-4.66 2.684z"/><path fill="#1C2135" d="m21.423 25.598-4.762-2.743V17.37l4.762-2.743 4.761 2.743v5.485l-4.761 2.743zm-4.557-2.86 4.557 2.625 4.557-2.625v-5.25l-4.557-2.626-4.557 2.625v5.25z"/><path fill="#1C2135" d="m16.816 17.342-.102.177 4.66 2.684.102-.177-4.66-2.684z"/><path fill="#1C2135" d="m26.035 17.35-4.66 2.684.102.177 4.66-2.683-.102-.177z"/><path fill="#1C2135" d="M21.525 20.112h-.205v5.368h.205v-5.368z"/><path fill="#71BEDB" d="M36.215 11.264 21.646 2.872v5.3l9.967 5.742 4.602-2.65z"/><path fill="#1C2135" d="m21.851 3.225 13.956 8.038-4.193 2.415-9.763-5.624v-4.83zm-.204-.353v5.3l9.968 5.742 4.6-2.65L21.647 2.87z"/><path fill="#71BEDB" d="m11.24 13.93 9.998-5.758v-5.3L6.64 11.28l4.6 2.65z"/><path fill="#1C2135" d="M21.033 3.225v4.829l-9.791 5.64L7.05 11.28l13.983-8.055zm.204-.353L6.641 11.28l4.6 2.65 9.996-5.758v-5.3z"/><path fill="#71BEDB" d="M31.81 14.272v11.507l4.6 2.65V11.621l-4.6 2.65z"/><path fill="#1C2135" d="M36.206 11.975v16.101l-4.192-2.414V14.39l4.192-2.415zm.205-.353-4.601 2.65V25.78l4.6 2.65V11.621v.001z"/><path fill="#71BEDB" d="m11.073 14.304-4.601-2.65v16.743l4.6-2.65V14.303z"/><path fill="#1C2135" d="m6.676 12.007 4.192 2.415v11.206l-4.192 2.415V12.007zm-.204-.353v16.743l4.6-2.65V14.303l-4.6-2.65z"/><path fill="#71BEDB" d="m6.685 28.746 14.552 8.382v-5.3l-9.951-5.733-4.601 2.65z"/><path fill="#1C2135" d="m11.286 26.33 9.747 5.616v4.83l-13.94-8.03 4.193-2.415zm0-.235-4.601 2.65 14.552 8.383v-5.3l-9.951-5.733z"/><path fill="#71BEDB" d="M21.646 31.828v5.3l14.525-8.366-4.601-2.65-9.924 5.715z"/><path fill="#1C2135" d="m31.57 26.347 4.192 2.415-13.912 8.013v-4.83l9.72-5.598zm0-.235-9.924 5.717v5.3l14.525-8.367-4.601-2.65z"/><path fill="#9589EA" d="m26.082 17.428-4.659-2.684-4.66 2.684 4.66 2.684 4.66-2.684zM21.423 25.48v-5.368l-4.66-2.684v5.368l4.66 2.684z"/><path fill="#9589EA" d="M21.423 25.48v-5.368l4.66-2.684v5.368l-4.66 2.684z"/><path fill="#1C2135" d="M21.423 14.627 16.66 17.37v5.485l4.762 2.743 4.761-2.743V17.37l-4.761-2.743zm4.455 2.801-4.455 2.567-4.455-2.566 4.455-2.567 4.455 2.567v-.001zm-9.012.176 4.454 2.566v5.133l-4.454-2.567v-5.132zm4.659 7.699V20.17l4.455-2.567v5.133l-4.455 2.567z"/></svg>