<svg xmlns="http://www.w3.org/2000/svg" viewBox="0 0 1110 983"><g transform="translate(1 1)" fill="none"><path d="m212 125 35-30 13-16s13-19 14-15 8 23 7 26c0 4-6 11-9 14l-16 14c-2 1-10 10-14 12-5 3-17 17-18 18l-17 7-24 8" fill="#54484A"/><path d="M260 919a213 213 0 0 1-16 7 67 67 0 0 1-33 4l-11-3a65 65 0 0 1-25-22l-7-12-12-17a347 347 0 0 0-8-9 79 79 0 0 0-8-8 65 65 0 0 0-32-11 105 105 0 0 0-47 6l-9 4a119 119 0 0 0-31 17 43 43 0 0 0-7 9c-3 3-5 4-8 3-5-1-7-5-6-10l3-8 13-23a496 496 0 0 1 64-79 694 694 0 0 1 46-42s1 0 0 0a277 277 0 0 1-56-56 262 262 0 0 1-37-67l-3-10-4-12-3-13-2-14a207 207 0 0 1 16-118 185 185 0 0 1 74-81l3-2 1-1a1636 1636 0 0 1-6-45l-3-20-6-47-2-18v-4l-1-6v-13l3-8 6-7A42352 42352 0 0 1 269 13c4-4 8-3 13 0l26 16 5 4v9a108 108 0 0 0-7 17l18-6 3-2 2-1c3-2 5-2 7-1l5 4 83 70 2 1h4c3 0 5 4 7 7a19 19 0 0 1 1 6l4 30 6 49 3 25 5 34 3 31a302 302 0 0 0 6 35l5-2c4-3 10-4 14-6a154 154 0 0 1 36-9l4-21a31 31 0 0 1 4-7c3-6 9-5 14-5l2-1 2-7 3-42c0-8 1-15 4-22 1-4 5-6 9-8 8-4 16-9 24-16l1-4 3-12 4-16 6-15c12-25 26-47 44-66a197 197 0 0 1 83-54l15-4 19-5 34-3h2a52 52 0 0 1 22-12 132 132 0 0 1 31-4 86 86 0 0 1 35 7c15 6 27 14 38 24a339 339 0 0 1 23 25 123 123 0 0 1 18 29c4 9 7 18 8 27a177 177 0 0 1 0 49c-1 8-4 16-6 22-1 4-2 6-6 8l-4 2a29 29 0 0 1-21 6c-5-1-9-3-13-6a48 48 0 0 1-9-11l-5-8a291 291 0 0 0-8-15 675 675 0 0 0-16-27 33 33 0 0 0-5-6 46 46 0 0 0-6-6l-2 1c1 9 0 18-3 27a469 469 0 0 1-11 39l-3 10a20 20 0 0 1-5 8 15 15 0 0 1-10 3l-9-1h-1v13c0 5-1 11-4 19l1 1a41 41 0 0 1 22 16 99 99 0 0 1 10 34l1 18c1 13 3 25 8 37l2 1 10-1c6-1 9 1 12 6a35 35 0 0 1 4 12l1 17v1a123 123 0 0 1 16 8 278 278 0 0 1 60 48 52 52 0 0 1 13 27h1c6 0 12 1 19 4l15 5 18 8a106 106 0 0 1 24 16 129 129 0 0 1 39 55c7 19 9 38 8 57a173 173 0 0 1-16 61 161 161 0 0 1-23 35 126 126 0 0 1-28 24 149 149 0 0 1-38 18 130 130 0 0 1-19 4l-20 2-20-1h-1c-2 2-2 3 0 6a630 630 0 0 1 52 78l8 15c4 9 9 18 4 27l-5 4-5 3h-5l-14-7a50 50 0 0 0-27-3 26 26 0 0 0-10 3l-6 4a8 8 0 0 0-3 3l-4 7a44 44 0 0 1-13 7s-1 0 0 0c4 10 8 28-1 36a19 19 0 0 1-6 5l-2 1h-1l3 7c3 11 1 20-7 28-5 5-11 7-18 7-3 0-6-2-10-4l-15-8a193 193 0 0 0-24-10c-10-3-16-6-24-7l-26-6-19-4a369 369 0 0 0-40-2l-13 2-12 2a586 586 0 0 1-72 5 368 368 0 0 1-63-7 332 332 0 0 0-43-6h-11l-40 4-31 6-15 3-26 5-12 3-16 4-21 5a983 983 0 0 1-25 7 228 228 0 0 1-14 3c-12 3-17 4-26 4-8 0-16-2-22-6-3-1-5-4-7-8a24 24 0 0 1-3-10c-1-7 0-14 1-20a128 128 0 0 1 5-18v-1ZM826 31l8 12 3 7h-2a513 513 0 0 1-23-14 50 50 0 0 1-8-6l-1-1-3 1h-4a262 262 0 0 0-82 19 175 175 0 0 0-39 24 211 211 0 0 0-43 48 252 252 0 0 0-19 34 104 104 0 0 0-6 18 117 117 0 0 1-4 16c13-2 25-2 37-1a303 303 0 0 1 43 9h1l5 1h1v1h-7l-67 3-19 2-1 1a15 15 0 0 1-3 3 123 123 0 0 1-25 16 3 3 0 0 0-2 2l-2 13-2 28-3 23h1l17-1 2-1 4-5a47 47 0 0 1 13-11l9-3h40c9 0 17 1 24 7l6 10a8 8 0 0 0 3 3l18 1a140 140 0 0 1 24 4l19 6 11 5 43 24a230 230 0 0 0 35 16l7 1h16l1-1a82 82 0 0 1-6-24l-2-2a1220 1220 0 0 1-56-28 755 755 0 0 1-42-28c-1-2-1-2 1-1a4642 4642 0 0 1 39 14l12 5 11 5 25 12 5 2a32 32 0 0 1 4 2c0-11-1-20-3-29l-6-12c-3-5-10-8-16-9-7-1-10-5-8-12l3-13 2-7v-18a1 1 0 0 0-1-1l-20-11-8-5-18-12-5-3-2-2v-1l6 1 20 5 22 8 12 6 9 3 9 2 1-1 6-18 6-18a297 297 0 0 0 5-36l-2-10-2-20v-1a70 70 0 0 1 15 15l1 1c6 0 11 2 16 6l9 10a668 668 0 0 1 25 42c4 7 7 13 13 18 4 4 8 4 13 2 4-2 6-4 7-6l2-6a136 136 0 0 0-1-74 115 115 0 0 0-22-36c-7-8-13-15-19-19a112 112 0 0 0-38-23 49 49 0 0 0-16-3c-12-1-23 0-34 2a29 29 0 0 0-7 3l-1 1h1l3 3 6 8Zm-549-4a1 1 0 0 0-1 0 200589 200589 0 0 1-161 167 13 13 0 0 0-2 15l5 8c10 10 25 14 39 10l5-2 4-2 243-93-6-6a12023 12023 0 0 1-68-57c-1-1-3-2-4-1l-29 11a18 18 0 0 1-9 1c-5-2-8-5-6-11l7-20 3-6-1-2a305 305 0 0 0-19-12Zm-59 423h9l7 1a42 42 0 0 1 18 6c4 2 7 6 10 10l5 12c2 9 3 19 1 30l-8 40-3 10a24 24 0 0 0-3 7 108 108 0 0 1-5 14h1l213-78 2-2 2-11a46 46 0 0 0-1-15l-4-37-7-53-1-9-7-53-2-18-3-17-3-29-3-20-5-38-2-13-4-37-1-8-1-1-6 2-129 49-19 8-18 7-13 5-53 20a409 409 0 0 1-9 3l-8 3-1 2 5 39a399 399 0 0 1 3 20 645 645 0 0 0 6 37l1 1a23 23 0 0 1 13 12 50 50 0 0 1 5 19l1 25a751 751 0 0 1-4 64l1 1 20-7ZM115 234v2a528 528 0 0 0 3 23l2 20 5 38 4 27h1l3-1 15-6c6-2 11-4 16-4l1-1-6-44-3-20a662 662 0 0 0-4-25 57 57 0 0 1-37-9Zm471 113 10 6a183 183 0 0 0 44 4h5l6-4a67 67 0 0 0 9-21 192 192 0 0 0 4-13 76 76 0 0 0 2-16l-1-5a403 403 0 0 1-5-8c-1-3-2-4-5-4a93 93 0 0 0-13-2 179 179 0 0 0-37 1c-6 2-10 7-14 11a21 21 0 0 0-2 8l-4 15a74 74 0 0 0 0 26v1l1 1Zm-51-10 1 1 25-2h8a103 103 0 0 1 2-23l2-8h-1a462 462 0 0 1-33 2 67 67 0 0 0-4 30Zm138 4 51 6a258 258 0 0 1 28 7l15 5 10 4a523 523 0 0 0 29 13l11 3a81 81 0 0 0 31 6 303 303 0 0 0 33-1v-1c1-7 1-14-1-22 0-1-1-2-2-1a1359 1359 0 0 1-27 2c-11 0-21 0-32-4a388 388 0 0 1-32-16l-44-23a113 113 0 0 0-62-14l-1 6a98 98 0 0 1-7 30Zm-201 63 2 15h1a121 121 0 0 0 15-2 207 207 0 0 1 23-4l82-6h34l30-1 42 3 39 5a547 547 0 0 0 35 6l20 5a474 474 0 0 1 99 37 1739 1739 0 0 0 19 10h3l9-4 9-2a178 178 0 0 1 36-3v-1a42 42 0 0 0-4-10l-5-5-3-4a259 259 0 0 0-40-33 304 304 0 0 0-24-15l-2 1c-2 2-3 3-7 3h-3l-25 1c-16 1-32-2-46-7a994 994 0 0 1-19-7l-29-13-13-5a89 89 0 0 0-14-3l-19-4-38-5a67 67 0 0 0-12 0l-1 1-4 5a19 19 0 0 1-12 9l-9 1-38-2a50 50 0 0 1-11-3c-6-2-10-5-14-8-5-4-7-7-12-8h-12a284 284 0 0 1-21 1c-7 0-11-5-12-12a117 117 0 0 0-22 4c-7 2-13 3-19 6l-13 5-1 1 2 11 2 12a233 233 0 0 1 2 25Zm-314-54A173 173 0 0 0 46 455l-5 15-3 12a225 225 0 0 0-4 32 222 222 0 0 0 12 77 240 240 0 0 0 29 59 262 262 0 0 0 70 69l11 7a176 176 0 0 0 88 27 194 194 0 0 0 90-20 213 213 0 0 0 44-30 222 222 0 0 0 71-123 281 281 0 0 0 2-58l-209 77-2 1a513 513 0 0 0-16 34 13 13 0 0 1-3 4c-4 3-9 0-11-3 0-5 0-8 2-12l7-14 14-29 5-12 3-10 3-10 3-11 4-15c2-9 3-19 3-31-1-8-4-17-11-21-7-5-20-5-28-2a53 53 0 0 0-19 9l-7 6c-2 2-6 4-9 3-5-1-6-5-5-10l1-9 6-35c2-20 4-36 4-55 0-8-2-15-5-22a6 6 0 0 0-3-3c-6-2-14-4-20-2Zm462 72h-3l-2 48c-1 14-3 27-6 38a120 120 0 0 1-34 54 86 86 0 0 1-45 24l-24 2c-2 0-2 0 0 1l16 8 6 1a90 90 0 0 0 33 1l11-4c9-3 14-4 20-10l10-9 5-4 4-5 12-16c9-11 12-21 18-36 3-7 3-12 5-19a251 251 0 0 0 5-60 135 135 0 0 0-2-14l-2-2-27 2Zm-8 163c-10 9-21 16-34 21a84 84 0 0 1-19 6 88 88 0 0 1-51-7 112 112 0 0 1-40-31 12 12 0 0 0-2-2l-1 1 1 6 11 25a135 135 0 0 0 23 31 95 95 0 0 0 28 19 77 77 0 0 0 64-1c8-4 14-8 20-13a148 148 0 0 0 42-58l3-7 7-17 3-12 4-20a287 287 0 0 0-4-105l-1-1h-4v1a243 243 0 0 1-3 73 648 648 0 0 1-5 21l-4 11-4 8c-3 8-7 16-12 22a133 133 0 0 1-22 29Zm-79-26c25 0 45-28 45-62-1-34-21-62-46-62s-45 28-45 63c1 34 21 62 46 61Zm186 62 15 4a67 67 0 0 0 43-9l15-12a137 137 0 0 0 28-42 46 46 0 0 0 4-9 246 246 0 0 0 8-35l2-24v-26l-1-7-1-7c0-2-1-4-3-4a352 352 0 0 1-19-7h-1a35 35 0 0 0-6 20l-1 27a244 244 0 0 1-8 39 162 162 0 0 1-42 69 137 137 0 0 1-33 23v1Zm64-108c0-34-21-62-46-62s-45 28-44 63c0 34 21 62 46 62 25-1 44-29 44-63Zm46 60a120 120 0 0 1-48 54 81 81 0 0 1-53 9l-19-5a111 111 0 0 1-35-23 129 129 0 0 0-6-6l1 4 4 15a108 108 0 0 0 20 35 70 70 0 0 0 24 19 60 60 0 0 0 23 6l20-3a84 84 0 0 0 21-9c11-7 21-16 29-27a177 177 0 0 0 24-39 211 211 0 0 0 13-37l2-10a206 206 0 0 1 2-9 137 137 0 0 0 3-17 227 227 0 0 0-4-61l-2-11-2-1h-1c2 16 2 31 1 47a230 230 0 0 1-7 42l-10 27Zm68-92a481 481 0 0 0-34-17v1a251 251 0 0 1 4 49l1 1a503 503 0 0 1 29-34Zm49 121 4 19v1l9-1 12-3c12-3 16 7 17 16 1 14 0 28-1 42-1 7-3 9-10 9-3 0-4-1-5-4a53 53 0 0 1-1-16l3-27c0-3-1-6-4-5-9 2-16 4-25 4-3-1-6-2-7-5a53 53 0 0 1-5-16 612 612 0 0 1-5-26 14 14 0 0 0-3 0 262 262 0 0 1-41 0l-4 1a58 58 0 0 0-13 25 66 66 0 0 0 1 35c4 13 9 24 15 33a406 406 0 0 0 9 13 97 97 0 0 0 19 20 80 80 0 0 0 16 11 101 101 0 0 0 62 6 121 121 0 0 0 70-41 150 150 0 0 0 35-94c0-19-3-36-11-51l-3-8a117 117 0 0 0-31-34c-2-3-8-6-15-10a127 127 0 0 0-37-15 144 144 0 0 0-44-3 101 101 0 0 0-73 41 60 60 0 0 0-4 6l-3 5a29 29 0 0 0-5 9 80 80 0 0 0-3 29c0 2 1 3 3 4l13 2 24 1 24-1c7 0 11 3 14 9l1 4 2 15Zm-276-17Zm193 2-3-1h-1l-6 18 1 1s5-7 9-17v-1ZM406 697a227 227 0 0 1-67 50l-2 3c0 6 0 10 2 15a85 85 0 0 0 6 12 171 171 0 0 0 60 54 1104 1104 0 0 1 26 14 112 112 0 0 1 18 13 142 142 0 0 1 24 25 597 597 0 0 1 13 18 30 30 0 0 1 3 4l5 3a480 480 0 0 0 106 25 410 410 0 0 0 127-7c11-3 23-7 33-12a125 125 0 0 0 31-21 446 446 0 0 0 20-18 279 279 0 0 0 56-95l4-17a147 147 0 0 0 6-45l-2-14a31 31 0 0 0-3-8 138 138 0 0 1-19-41 95 95 0 0 1-2-31 1 1 0 0 0-1-1l-4-5a1 1 0 0 0-2 0l-2 4h-1l1-3h-1a509 509 0 0 1-9 15 161 161 0 0 1-24 29 119 119 0 0 1-36 25l-5 1-4 2-10 2a63 63 0 0 1-25-1 75 75 0 0 1-17-5c-22-11-37-31-47-54l-8-24h-1l-18 25a132 132 0 0 1-27 23 91 91 0 0 1-63 16 87 87 0 0 1-31-10 114 114 0 0 1-28-22 154 154 0 0 1-27-42h-1l-4 14a240 240 0 0 1-36 68l-14 16Zm487 24a151 151 0 0 1-1 42l-5 27-5 18v2a106 106 0 0 1 42 36 73 73 0 0 1 10 21l13-5c12-3 24-2 35 3l11 4 3 1 1-1-1-4-14-27a629 629 0 0 0-41-62 753 753 0 0 0-36-43 36 36 0 0 1-7-6 37 37 0 0 1-5-6Zm-727 28h-1a318 318 0 0 1-27-16 562 562 0 0 0-70 67c-14 15-27 33-39 51l-3 4h1c7-5 16-8 24-12l10-3 29-6 2-1c16-23 34-44 54-64a1288 1288 0 0 1 20-20Zm113 136a126 126 0 0 1-31 9l-13 1a19 19 0 0 1-15-13 45 45 0 0 1 0-27l5-13v-1h-17c-4-1-8-3-11-7a20 20 0 0 1-5-11c-1-7 1-13 4-19a89 89 0 0 1 20-24 265 265 0 0 1 15-12 187 187 0 0 1-44-10l-7-2-2 1a561 561 0 0 0-70 77 100 100 0 0 1 29 8 56 56 0 0 1 17 12l15 16 11 17 7 12 12 12a31 31 0 0 0 15 6c8 1 16 0 24-3a176 176 0 0 0 34-19l8-9-1-1Zm25-96a115 115 0 0 1 24-1 34 34 0 0 0-17-11 54 54 0 0 0-12-3h-24a112 112 0 0 0-26 7 72 72 0 0 0-28 20l-4 6c-2 3-5 9-4 12l1 3c6 3 10 2 16 0a48 48 0 0 0 18-8 111 111 0 0 1 56-25Zm-4 20a40 40 0 0 0-7 2 105 105 0 0 0-33 19 60 60 0 0 0-22 45 2 2 0 0 0 2 2l5-1a284 284 0 0 0 20-6l16-5 22-4 4-2a160 160 0 0 1 35-19 150 150 0 0 1 28-8 43 43 0 0 0-30-23 91 91 0 0 0-40 0Zm568 30 1 2a122 122 0 0 1 41 44h1l5-5c2-3 2-6 1-9a63 63 0 0 0-21-33 119 119 0 0 0-19-12l-3 1-6 12Zm-518 19a134 134 0 0 0-54 37 109 109 0 0 0-23 41 82 82 0 0 0-3 23c0 2 0 5 2 6 6 5 15 4 23 3a519 519 0 0 0 21-4l11-3 17-4 7-2a1363 1363 0 0 1 66-16l7-3 11-4c4-2 8-3 11-6a27 27 0 0 0 8-20 50 50 0 0 0-15-32l-7-6a23 23 0 0 1-5-4l-5-5a30 30 0 0 0-6-3 73 73 0 0 0-24-5c-14 0-28 2-42 7Zm488 23-1 1v1l13 4a117 117 0 0 1 49 41h1l4-7c1-4 0-9-2-13a97 97 0 0 0-17-32 61 61 0 0 0-27-18l-2 1a118 118 0 0 1-18 22Zm-10 64 8 2a200 200 0 0 1 33 14l13 7c2 2 7 3 8 0l2-7a55 55 0 0 0-5-18 73 73 0 0 0-31-33 78 78 0 0 0-40-11l-4 1-3 1-17 10a48 48 0 0 0-13 14l-1 2 1 1 2 4 2 2 19 4 21 5 5 2Z" fill="#54484A"/><path d="m858 15-10 8v3a29 29 0 0 0 2 4c1 2 2 4 1 5-1 2-3 3-6 2l-14-8h-1l-4 2-6-7a80 80 0 0 0-3-3v-1l7-2c11-2 22-3 34-3Z" fill="#FFF"/><path d="M946 81a29 29 0 0 0-3 5 69 69 0 0 1-2 6l-5 9c-2 4-3 6-7 6-8 0-18 0-26 2a2 2 0 0 0-1 1v4l14 7 7 3 1 2v21l1 5h1l6-4 7-6h1l5 3a60 60 0 0 1 4 4l8 8-2 14a20 20 0 0 1-2 6 20 20 0 0 1-8 5c-5 3-9 3-13-1-6-5-9-11-12-19a47 47 0 0 0-34-51c-5-4-11-7-17-7a1 1 0 0 1-1 0 70 70 0 0 0-14-15h-1l2 20a47 47 0 0 1 1 22 284 284 0 0 1-4 24l-5 18-7 19h-1l-9-1-9-3-12-6c-6-4-14-6-22-8l-20-5 41-23 5-3v-2a6 6 0 0 0-3-3l-9-4-21-6a96 96 0 0 0-17-4l-2-1-3-30-1-4-1-4c-3-4-6-2-9 0a122 122 0 0 0-11 12 280 280 0 0 0-14 17 39 39 0 0 0-4 7 2 2 0 0 1-1 1 673 673 0 0 0-42 3 20 20 0 0 0-5 1c-1 0-2 2-1 3v1l11 12 12 12 3 2v1l-11 40h-1a290 290 0 0 0-43-8 146 146 0 0 0-37 0v-1a107 107 0 0 0 4-14l7-19a241 241 0 0 1 18-34 211 211 0 0 1 43-48 175 175 0 0 1 39-24 246 246 0 0 1 82-19 29 29 0 0 0 4 0l2-1 2 1 8 6 22 13 1 1 1 1v-1l-3-6-7-12 4-2h1c4 2 9 6 14 7 2 1 4 0 6-2 1-1 0-3-1-4a24 24 0 0 1-3-5 2 2 0 0 1 1-2l10-8a49 49 0 0 1 16 2c14 5 27 13 38 23l19 20a93 93 0 0 1 15 20Z" fill="#BEACE6"/><path d="M277 27a289 289 0 0 1 19 12l1 1-3 6-7 21c-1 6 1 9 6 11a18 18 0 0 0 9-1l29-11c1-1 3 0 4 1l3 3 65 54 6 5v1l-243 93-4 2-5 2a42 42 0 0 1-39-10l-5-8a13 13 0 0 1 2-15L268 35l8-8h1Zm1 56a4 4 0 0 0-6 0l-67 58a4 4 0 0 0 0 6c1 2 4 2 6 0l67-58a5 5 0 0 0 0-6Zm-32 59a4 4 0 0 0-6-1l-52 41a4 4 0 0 0 0 6 4 4 0 0 0 6 1l52-41c2-2 2-5 0-7Zm-53 13a4 4 0 0 0-6-1l-16 13a4 4 0 0 0-1 7 4 4 0 0 0 6 0l16-13a4 4 0 0 0 1-6Zm-31 26a4 4 0 0 0-6-1l-16 13a4 4 0 0 0 0 6 4 4 0 0 0 6 1l16-13a4 4 0 0 0 0-6ZM946 81a151 151 0 0 1 7 15c6 20 7 40 4 60l-8-7a42 42 0 0 0-9-7h-1l-7 6-6 4-2-1a10 10 0 0 1-1-4 391 391 0 0 1 0-23l-7-3-14-7c-2-2-2-3 0-5h1c8-2 18-2 25-2 4-1 6-3 8-6l5-10a69 69 0 0 0 2-5l3-5Z" fill="#FFF"/><path d="m291 137 67-58a4 4 0 0 1 7 0 4 4 0 0 1-1 6l-67 59a4 4 0 0 1-6-1 4 4 0 0 1 0-6Z" fill="#54484A"/><path d="m767 169-6-1a5 5 0 0 0 2 2l5 3a254 254 0 0 0 1 37l-1 1-3-1a137 137 0 0 1-39-24h-3a511 511 0 0 1-28 16l-9 3c-2 1-3 0-3-1v-5h7l-1-1-5-1 11-40a1 1 0 0 0 0-1l-2-2a419 419 0 0 0-13-12l-11-12c-1-1 0-3 1-4l5-1a688 688 0 0 1 43-4 30 30 0 0 1 4-7 280 280 0 0 1 14-17 149 149 0 0 1 11-12c3-2 7-4 9 0l1 4 1 4a289 289 0 0 0 5 31 96 96 0 0 1 17 4l21 6 9 4 3 3v2a24 24 0 0 1-5 3l-41 23Z" fill="#FFF"/><path d="m188 182 52-41a4 4 0 0 1 6 1h1a4 4 0 0 1-1 6l-52 41a4 4 0 0 1-6-1 4 4 0 0 1 0-6Z" fill="#54484A"/><path d="m258 559 13-4 11-5a40010 40010 0 0 0 167-61l2-1 2-11-6-39a1096 1096 0 0 0-5-44 638 638 0 0 1-6-43l-2-15a890 890 0 0 0-4-30l-2-20a679 679 0 0 0-4-29 1304 1304 0 0 0-6-46 1844 1844 0 0 1-7-39h-4l-6 2-199 78-6 1c-3 1-4 3-4 6a673 673 0 0 0 4 31l3 20 3 22 2 13 4 32a463 463 0 0 1 4 26 674 674 0 0 0 6 47l-20 7-1-1-1-10a648 648 0 0 0 5-53l-1-25a49 49 0 0 0-5-19c-3-6-7-10-13-12l-1-1-1-3a764 764 0 0 1-5-35 399 399 0 0 0-2-19 715 715 0 0 1-5-39v-2l8-3c4-1 7-2 9-4l53-20 13-5 18-6a843 843 0 0 1 19-8l129-49 6-2 1 1a13702 13702 0 0 1 5 45l2 13 5 38 3 20 3 29 3 17 2 18 6 53 2 8 6 54 5 37 1 15-3 11-1 2-213 78h-1l5-14 3-7Z" fill="#7C5DBC"/><path d="m171 168 16-13a4 4 0 0 1 6 0 4 4 0 0 1-1 6l-16 13a4 4 0 0 1-6 0 5 5 0 0 1 1-6Z" fill="#54484A"/><path d="m258 559 2-10 183-67 1-2-2-14-5-43-6-43-3-18a1142 1142 0 0 0-6-52l-4-26-5-45-3-20a814 814 0 0 0-5-36h-1l-201 78-1 2 26 187-10 1-3-28a612 612 0 0 1-3-20 560 560 0 0 0-4-26l-4-32-2-13a410 410 0 0 1-3-22 379 379 0 0 0-3-20 673 673 0 0 1-4-31c0-3 1-5 5-6l5-1 200-78 5-2h4l3 4a2281 2281 0 0 0 8 61l2 20 4 29 3 20 3 30 2 15a362 362 0 0 1 3 16 853 853 0 0 0 6 47l3 24a1127 1127 0 0 1 3 50l-2 1-26 10a40010 40010 0 0 1-152 55l-13 5Z" fill="#FEE5A5"/><path d="m739 300 2-9-1-2h-5l-10 2c-1 1-2 0-3-1l-8-15a4 4 0 0 0-3-1c-1-1-2 0-2 1l-4 11-3 2-6 2-17-1h-1l-3-3c-1-3-3-7-6-10-7-6-14-6-24-7-12-1-25-1-40 1l-9 2a47 47 0 0 0-13 11l-4 5-2 1-17 2-1-1 4-23 1-27 2-13a4 4 0 0 1 2-3l21-12c3 2 3 4 0 6a134 134 0 0 1-8 5 20 20 0 0 0-4 4v2a14 14 0 0 0 5 2l7 1 1 1 4 13c1 1 1 2 2 1 2 0 3-1 4-3a70 70 0 0 1 5-11l3-2h14a4 4 0 0 0 2-1l1-2-1-1-11-12-1-3 4-9 67-4a8 8 0 0 0 0 4c0 2 1 2 3 2a26 26 0 0 0 9-3 639 639 0 0 0 31-16 160 160 0 0 0 39 24h3l1-1v-4l-1-32 18 12a134 134 0 0 0 8 5l20 11 1 1v18l-2 7a253 253 0 0 0-3 13c-2 7 1 11 8 12 6 1 13 4 16 10 3 3 5 7 6 11a149 149 0 0 1 3 29 24 24 0 0 0-5-2l-4-2-25-12a443 443 0 0 0-23-10l-34-12-5-2a755 755 0 0 0 66 43 973 973 0 0 0 31 14 3 3 0 0 1 2 2 82 82 0 0 0 6 24l-1 2h-16l-7-2a261 261 0 0 1-35-16l-43-23-11-6Z" fill="#BEACE6"/><path d="m140 193 16-13a4 4 0 0 1 6 1 4 4 0 0 1 0 6l-16 13a4 4 0 0 1-6-1 4 4 0 0 1 0-6Z" fill="#54484A"/><path d="m260 549 8-40a73 73 0 0 0-1-30l-5-12a34 34 0 0 0-10-10 42 42 0 0 0-18-6l-7-1-25-187c-1-1 0-2 1-2l201-79 1 1a814 814 0 0 1 7 55l6 45 4 27 2 20 4 32 3 17 5 43 6 44a293 293 0 0 1 1 15l-183 68Zm52-269h1a567 567 0 0 1 26 24 6 6 0 0 0 3 1h1l5-12 1-3v-2l-40-35a1 1 0 0 0-2 0l-3 6-18 40-4 11-3 4v1l10 9h2l20-44Zm76 67-2 4-6 14a704 704 0 0 1-11 24l10 9h1l5-10 4-10 3-6 13-29 1-4a15 15 0 0 0-3-3l-32-28a41 41 0 0 0-4-4l-1 1-7 15v1a759 759 0 0 1 29 25v1Zm-97 10a6 6 0 0 0-3 4v6l1 7 1 6v10l1 11 1 1 11 4 13 3 6 2a33 33 0 0 1 3 1c2 1 4 1 5-1l19-21 5-5 5-5v-1l-1-13-1-9-1-8a21 21 0 0 0-1-5 12 12 0 0 1 0-5v-1a3 3 0 0 0-1-1l-5-2-31-7h-1l-26 29Zm-32 37 5-8 15-35v-2l-10-8h-1l-1 1-8 17-18 41a2 2 0 0 0 0 2l38 33h1v-1l6-14v-3l-11-9a1715 1715 0 0 0-11-10 19 19 0 0 0-5-3v-1Zm77 65h-2l-28-25h-1l-2 3-6 12v1l4 4 37 33h1v-1l28-60-1-2-9-9-1 1-20 42v1Z" fill="#9870E3"/><path d="m616 203-4 9 1 3 12 12v3h-1l-2 1-14 1-2 1a70 70 0 0 0-6 11 6 6 0 0 1-4 3c-1 1-1 0-2-1l-3-13-2-1-7-1-5-2v-2l4-4 8-5c3-2 3-4 0-6l4-3 3-4h1l19-2Z" fill="#FFF"/><path d="M115 234a57 57 0 0 0 37 10h1l3 25 3 19a1258 1258 0 0 1 5 45l-16 4a720 720 0 0 0-15 6l-4 1c0 1 0 0 0 0l-4-27a1283 1283 0 0 1-7-58 548 548 0 0 1-3-25Z" fill="#9870E3"/><path d="m312 280-21 44h-2l-10-9v-1l3-4 4-11 18-40 3-6h2l40 35v2l-1 3-6 12-3-1-4-5a1274 1274 0 0 0-22-19 1 1 0 0 0-1 0Z" fill="#FFD779"/><path d="m739 300-19-6-24-4 6-2 2-2 4-11c1-1 2-2 3-1a4 4 0 0 1 2 1l9 15c1 1 2 2 3 1a155 155 0 0 1 14-2l2 2-2 9Z" fill="#FFF"/><path d="m586 347-1-1v-1a74 74 0 0 1 0-26l4-16a21 21 0 0 1 2-7c3-4 8-10 14-11a179 179 0 0 1 37-1l13 1c3 1 4 2 5 4l5 9 1 5a76 76 0 0 1-2 16 192 192 0 0 1-4 13 67 67 0 0 1-9 20c-2 2-3 4-6 4l-5 1a183 183 0 0 1-44-4l-10-6Z" fill="#FFBC83"/><path d="m388 346-3-3a1028 1028 0 0 0-25-22l-1-1 7-15 1-1 4 4 32 28a15 15 0 0 1 3 3 9 9 0 0 1-1 4l-13 29-3 6-4 10a125 125 0 0 1-5 10h-1l-10-9v-1l11-23 6-14 2-4v-1Z" fill="#FFD779"/><path d="M536 337a66 66 0 0 1 3-30l1-1 2-1a398 398 0 0 0 30 0l-1 8a104 104 0 0 0-2 23h-8a257 257 0 0 0-25 1Zm137 4 3-9a87 87 0 0 0 4-20v-7h1a113 113 0 0 1 62 14l44 24a268 268 0 0 0 32 15 68 68 0 0 0 32 4l27-2c1-1 2 0 2 1 1 8 2 15 1 22v1a303 303 0 0 1-33 1l-20-2-11-3-11-4a523 523 0 0 1-29-13l-11-4-14-5a258 258 0 0 0-29-7c-14-2-33-5-50-6Zm-324-6-5 5-22 22-1 1-5-2-25-5 26-28h1l31 7Z" fill="#FEE5A5"/><path d="M354 337v2l-27 28-1 1 2 16 2 27c-1 2-3 2-4 1a50 50 0 0 1-2-9l-1-8-1-13a87 87 0 0 1-1-12v-1l-23-5-10-3a6 6 0 0 1 3-4l25 4 5 2h1l22-23a66 66 0 0 1 5-4l5 1Z" fill="#F28974"/><path d="m330 411-2-27-2-16 1-1 27-28v-2l1 1v6l1 5 1 8 1 9 2 13-1 1a24 24 0 0 0-5 5l-5 5a955 955 0 0 0-19 21Z" fill="#FFD779"/><path d="M925 468a23 23 0 0 0-9-12c-4-4-10-7-16-10a484 484 0 0 0-63-26l-11-4-11-4-18-5-13-3-28-6-15-3-32-5-52-4-53-1a335 335 0 0 0-36 1l-32 3-48 8a50 50 0 0 0-16 7 211 211 0 0 0-4-37l-2-11 1-1 13-5c6-3 12-4 19-6a117 117 0 0 1 21-4h1c1 7 5 12 12 12a440 440 0 0 0 33-1c5 1 7 4 12 8a38 38 0 0 0 14 8l10 3a272 272 0 0 0 48 1l8-4a21 21 0 0 0 4-5l4-5a2 2 0 0 1 1-1 67 67 0 0 1 12 0l38 5 19 4 13 3 14 5 29 13a223 223 0 0 0 18 7c15 6 31 8 47 7l25-2 3 1c3 0 5-1 7-3l2-1 24 15a254 254 0 0 1 43 37l5 5a39 39 0 0 1 4 10l-1 1h-12a189 189 0 0 0-32 5Z" fill="#BEACE6"/><path d="m260 395 4 3 2 2 9 8 10 9c1 1 2 2 1 3l-6 14-1 1-38-33v-2l18-42 8-17h2l10 8v2l-16 34-4 8v1Z" fill="#FFD779"/><path d="M210 634c-2 0-4-1-4-4l1-7 6-21 5-15 10-26a179 179 0 0 0 9-36 63 63 0 0 0-3-35 33 33 0 0 0-10-11 10 10 0 0 0-8-2 74 74 0 0 0-27 11 11 11 0 0 1-12 1 16 16 0 0 1-6-12 90 90 0 0 1 0-17l4-32c0-11 2-20 4-34l1-17a41 41 0 0 0-4-16c-2-4-5-7-9-9l-5-2h-4c6-3 13-1 20 2l3 3c3 7 4 14 4 21a529 529 0 0 1-3 56 271 271 0 0 1-6 35 98 98 0 0 0-2 8c0 5 0 9 6 11 3 0 7-1 9-3l7-6c6-5 12-8 18-10 9-2 21-3 29 2 7 5 10 13 11 22a114 114 0 0 1-3 31l-4 14a86 86 0 0 1-3 11l-3 11-3 9-5 12-14 30-7 14a24 24 0 0 0-2 11Z" fill="#F28974"/><path d="m158 350 5 1 4 1c4 2 7 5 9 9a41 41 0 0 1 4 16l-1 18-4 34a445 445 0 0 1-3 32l-1 16c0 5 3 9 6 12a189 189 0 0 1-35 30c-7-11-19-22-32-23a32 32 0 0 0-29 11 42 42 0 0 0-9 18 68 68 0 0 0 15 62l-24 27-12-19a10 10 0 0 0-5-4 222 222 0 0 1-12-77 229 229 0 0 1 7-44l5-15a170 170 0 0 1 63-82 169 169 0 0 1 49-23Z" fill="#FFC98A"/><path d="m288 361 10 3a169 169 0 0 1 23 6l1 11 1 14 1 8 1 9a7 7 0 0 1-1-1h-2l-6-2-13-3a73 73 0 0 1-11-4l-1-1v-11l-1-10-1-6-1-7v-6Z" fill="#FFBC83"/><path d="m925 468-9 4h-3l-20-10a474 474 0 0 0-98-37l-21-5-17-4-18-3-38-5a505 505 0 0 0-42-2h-30l-34 1a2438 2438 0 0 0-82 6 207 207 0 0 0-23 4 121 121 0 0 1-15 2l-1-1-2-14a50 50 0 0 1 16-7l48-8 32-3a362 362 0 0 1 36-1l52 1 53 4 32 5 14 3c11 2 19 3 28 6l14 3 17 5 12 4 11 3a476 476 0 0 1 63 27l16 10a23 23 0 0 1 9 12Z" fill="#FFF"/><path d="M336 459v-1l20-42 1-1 9 9 1 2-28 60-1 1-37-33a42 42 0 0 1-4-4 1 1 0 0 1 0-1l6-12a9 9 0 0 1 2-3h1l28 25h2Z" fill="#FFD779"/><path d="M620 421c6 1 15 0 27-1l3 2a252 252 0 0 1-2 62l-2 11-4 21a126 126 0 0 1-19 36l-11 14-5 6-5 5-10 9c-6 5-10 6-18 9a84 84 0 0 1-13 4l-16 2-17-2-6-2-16-8c-2-1-2-2 0-2 7 1 15 0 24-1a86 86 0 0 0 45-24 120 120 0 0 0 33-54c3-12 5-24 6-38a5772 5772 0 0 1 2-48l1-1h3Z" fill="#715451"/><path d="M612 585c9-9 16-18 23-28a202 202 0 0 0 15-31l4-11a648 648 0 0 0 5-21 243 243 0 0 0 3-73h1l3-1 1 1c5 16 7 33 8 51 0 19-1 37-4 54a511 511 0 0 1-4 21l-3 11-7 18a47 47 0 0 0-3 6c-9 23-23 42-42 58a102 102 0 0 1-20 13 77 77 0 0 1-64 2 95 95 0 0 1-28-20 137 137 0 0 1-23-31 183 183 0 0 1-11-25 15 15 0 0 1-1-6 12 12 0 0 1 3 2l9 9a112 112 0 0 0 50 27 98 98 0 0 0 32 1l19-5a116 116 0 0 0 34-22Z" fill="#FFF"/><ellipse fill="#FFF" cx="532.6" cy="497.3" rx="45.2" ry="62.1"/><path d="M719 622h-1a138 138 0 0 0 33-25c20-19 33-43 41-69a257 257 0 0 0 11-65 35 35 0 0 1 6-20l2-1 4 2 14 5c2 1 4 3 4 6v6l1 7v26l-2 24c-2 8-3 19-6 26l-2 9-3 9a142 142 0 0 1-18 31 104 104 0 0 1-26 23 66 66 0 0 1-43 9l-15-4Z" fill="#715451"/><ellipse fill="#FFF" transform="rotate(-1 738 513)" cx="737.8" cy="513.4" rx="45.2" ry="62.2"/><path d="M782 627a118 118 0 0 0 47-54 207 207 0 0 0 10-27 230 230 0 0 0 6-89l1-1 2 2a192 192 0 0 0 2 11l3 16a219 219 0 0 1-4 71l-2 10a211 211 0 0 1-13 37c-6 14-14 27-24 39a121 121 0 0 1-29 27 77 77 0 0 1-41 12 59 59 0 0 1-23-6 70 70 0 0 1-24-19 112 112 0 0 1-20-35 819 819 0 0 1-4-15l-1-4 6 6a110 110 0 0 0 35 23 76 76 0 0 0 19 5 81 81 0 0 0 53-9Z" fill="#FFF"/><path d="M897 481s1 0 0 0a91 91 0 0 0-11 12 503 503 0 0 0-18 22l-1-1v-12a251 251 0 0 0-4-37v-1h1l33 17Z" fill="#7C5DBC"/><path d="M210 634c3 4 7 6 11 3l3-4a513 513 0 0 1 17-33l1-1 209-77h1v28a24 24 0 0 0-2 6l-3 16-3 14-6 14a43 43 0 0 1-7 11l-5 11-8 11a183 183 0 0 1-76 54l-13 5-14 4-20 4a284 284 0 0 1-85 0l-9-2-24-6a260 260 0 0 1-42-17c-12-6-24-14-35-22a198 198 0 0 1-38-39l25-27c12 12 28 18 44 10 7-5 14-13 17-21a67 67 0 0 0-7-57 189 189 0 0 0 36-30 11 11 0 0 0 11-1 73 73 0 0 1 27-11c3 0 6 0 8 2 4 3 8 7 10 11a55 55 0 0 1 5 18c1 6 0 11-1 18a179 179 0 0 1-10 35l-9 26-5 16-7 20a16 16 0 0 0-1 8c1 2 2 3 5 4Zm-43 17a18 18 0 0 0 14-22c-2-10-11-17-21-15a18 18 0 0 0-14 22c2 10 12 17 21 15Z" fill="#FEBC9C"/><path d="M1034 496a335 335 0 0 1-21 36 43 43 0 0 0-24-20c-19-6-37 3-38 23a32 32 0 0 0 3 17 43 43 0 0 0 30 24c6 1 12 1 19-2a52 52 0 0 1-26 20c-9 4-20 6-31 8l-2-14-2-5c-2-6-6-8-13-8l-24 1a212 212 0 0 1-37-3c-2-1-4-2-4-4a79 79 0 0 1 4-29l4-9 4-6a92 92 0 0 1 17-21 102 102 0 0 1 80-26c9 0 17 1 24 3a120 120 0 0 1 37 15Z" fill="#FFC98A"/><path d="M142 519a68 68 0 0 1 6 57 39 39 0 0 1-17 20c-15 8-32 3-43-9a68 68 0 0 1-16-63 42 42 0 0 1 10-17c7-9 17-12 28-11 13 1 25 12 32 23Z" fill="#FFF"/><path d="m1083 548 1 6 1 5c1 7 1 13-1 19l-5 26a187 187 0 0 1-45 78 135 135 0 0 1-33 25 74 74 0 0 1-42 8 83 83 0 0 1-33-11 75 75 0 0 1-23-21 125 125 0 0 1-16-24 81 81 0 0 1-4-10l-3-12a68 68 0 0 1 1-32l4-15h43l1 2a475 475 0 0 0 9 41 8 8 0 0 0 7 4c9 0 17-2 25-4 3-1 4 3 4 5l-2 27a50 50 0 0 0 0 16c1 3 3 4 6 4 6 0 8-2 9-9 1-14 2-28 1-42-1-9-5-18-17-16l-12 3a46 46 0 0 1-9 1 1 1 0 0 1 0-1l-4-19c12-2 22-4 32-8a51 51 0 0 0 25-20c11-6 15-15 14-28 0-4-2-9-4-14a363 363 0 0 0 21-35l16 9a117 117 0 0 1 30 35 53 53 0 0 1 3 7Zm-56 67c8 0 14-7 14-15 0-9-6-16-14-16s-14 7-14 15c0 9 6 16 14 16Z" fill="#FEBC9C"/><path d="M1013 532c2 5 4 9 4 14a26 26 0 0 1-14 27 30 30 0 0 1-19 3 43 43 0 0 1-30-24 32 32 0 0 1-3-17c1-20 20-29 38-23a44 44 0 0 1 24 20Z" fill="#FFF"/><path d="m885 591-4 14a68 68 0 0 0-1 32 231 231 0 0 0 7 23c4 7 9 15 16 23a76 76 0 0 0 56 32 73 73 0 0 0 42-8c12-7 23-15 33-25a188 188 0 0 0 45-78l5-26c1-6 2-12 1-19l-1-5-1-6c8 16 11 33 11 51a154 154 0 0 1-34 94 121 121 0 0 1-71 41c-22 5-42 2-62-6a80 80 0 0 1-17-10 97 97 0 0 1-18-20l-9-13a124 124 0 0 1-15-33 68 68 0 0 1-1-35c3-11 7-19 13-26l5-1Zm-433-41-3 30a218 218 0 0 1-8 31 215 215 0 0 1-106 122 195 195 0 0 1-91 20 173 173 0 0 1-88-27l-11-7a260 260 0 0 1-70-69 243 243 0 0 1-29-59c2 0 4 2 5 4a237 237 0 0 0 12 19 193 193 0 0 0 37 39 224 224 0 0 0 35 22c14 7 28 13 43 17l23 6 9 2a287 287 0 0 0 86 0l19-5c4 0 8-2 14-4l13-4a184 184 0 0 0 76-54 71 71 0 0 0 14-22c3-4 6-8 7-12l5-13a107 107 0 0 0 3-14l3-16a17 17 0 0 1 2-6Z" fill="#F28974"/><circle fill="#715451" transform="rotate(-69 672 571)" cx="672.4" cy="571" r="1"/><path d="M672 573Z" fill="#715451"/><ellipse fill="#FFF" transform="rotate(-89 1027 600)" cx="1026.8" cy="599.6" rx="15.4" ry="14.2"/><path d="M670 585Z" fill="#715451"/><path d="M863 587v1c-4 10-9 17-9 17l-1-1 6-18h1l3 1Z" fill="#7C5DBC"/><path d="M547 673c0 9-2 17-7 24a64 64 0 0 1-29 22l-13 5a106 106 0 0 1-31 0c-6 0-12-2-19-5l-30-14a65 65 0 0 1-12-8 240 240 0 0 0 50-84 116 116 0 0 0 4-14h1l4 10c7 12 14 23 23 32 8 9 18 16 28 22a86 86 0 0 0 31 10Z" fill="#F28974"/><path d="M763 691c-1 5 1 10 3 15a63 63 0 0 0 59 34l15-2a97 97 0 0 0 30-15l7-5a148 148 0 0 1-6 46l-4 16a280 280 0 0 1-56 95 446 446 0 0 1-19 19 122 122 0 0 1-32 20 187 187 0 0 1-33 12 342 342 0 0 1-45 8 426 426 0 0 1-122-7 480 480 0 0 1-66-19l-5-3-2-4-14-18a146 146 0 0 0-24-25l-9-7a71 71 0 0 0-9-6l-26-14a172 172 0 0 1-60-54l-6-12a27 27 0 0 1-2-14c0-2 1-3 2-3a224 224 0 0 0 67-51c4 4 8 6 12 8a900 900 0 0 0 30 14 63 63 0 0 0 19 6l17 1 14-2 13-5a65 65 0 0 0 29-22c5-7 7-15 7-24a91 91 0 0 0 63-15c10-7 19-15 27-24a211 211 0 0 0 19-25l8 24c10 23 25 43 47 54l17 6a63 63 0 0 0 25 0l10-2Zm-80 12 1-1h-1l-10-4-11-3-14-5-9-3a53 53 0 0 1-18-13 12 12 0 0 0-3-3 6 6 0 0 0-9 6l2 5 4 4a95 95 0 0 0 31 17 46 46 0 0 0 14 3l14-1 9-2Z" fill="#FEBC9C"/><ellipse fill="#FFF" transform="rotate(-11 164 633)" cx="163.7" cy="632.7" rx="17.7" ry="18.9"/><path d="m877 718-7 5a93 93 0 0 1-30 14 94 94 0 0 1-15 3c-6 1-11 0-16-1a67 67 0 0 1-27-13 62 62 0 0 1-16-21 29 29 0 0 1-3-15l4-1a118 118 0 0 0 41-26c9-9 17-19 24-30a509 509 0 0 0 10-15 9 9 0 0 1 1-1h1a6 6 0 0 1 1 1h1l4 5h1c-1 11 0 21 2 31 4 15 10 29 19 42a40 40 0 0 1 3 8l2 14Z" fill="#F28974"/><path d="m683 703-9 2h-14l-14-2a95 95 0 0 1-31-17l-4-4-2-6c1-4 5-7 9-5l3 3a53 53 0 0 0 18 13l9 3 14 5 11 3a141 141 0 0 0 11 4l-1 1Z" fill="#54484A"/><path d="M893 721a30 30 0 0 0 5 6l7 6 7 6a980 980 0 0 1 29 37 617 617 0 0 1 56 93v1h-1a19 19 0 0 1-3-1l-10-4a63 63 0 0 0-36-3 36 36 0 0 0-12 5h-1c-2-8-5-15-10-22a106 106 0 0 0-42-36 1 1 0 0 1 0-1 655 655 0 0 1 5-18c2-4 3-13 6-27 2-13 2-27 0-42 0-1 0-1 0 0Z" fill="#BEACE6"/><path d="M166 749a944 944 0 0 0-20 20 520 520 0 0 0-54 64l-2 1a160 160 0 0 0-39 9c-8 3-17 7-24 12-1 1-1 0 0 0l2-4a468 468 0 0 1 40-52 548 548 0 0 1 69-66h1a303 303 0 0 0 27 16Z" fill="#E3D7FF"/><path d="m279 885 1 1-8 10-3 2a176 176 0 0 1-31 16c-8 3-16 4-24 3a31 31 0 0 1-15-6 66 66 0 0 1-12-12 122 122 0 0 1-7-12l-11-16a260 260 0 0 0-15-17 56 56 0 0 0-17-12 97 97 0 0 0-29-8 551 551 0 0 1 70-77l2-1 7 2 6 2a194 194 0 0 0 38 8l-15 12a89 89 0 0 0-20 24 31 31 0 0 0-4 19c1 5 2 9 5 12s7 5 12 6a44 44 0 0 0 16 0v1a94 94 0 0 0-5 13c-3 8-3 20 0 27a19 19 0 0 0 15 13l13-1a121 121 0 0 0 31-9Z" fill="#BEACE6"/><path d="M304 789a113 113 0 0 0-56 25c-5 4-11 7-18 8-6 2-10 3-16 0a5 5 0 0 1-2-3l4-12 5-6c7-9 17-16 27-20a107 107 0 0 1 50-7c4 0 9 1 13 3a33 33 0 0 1 17 11l-1 1a106 106 0 0 0-23 0Z" fill="#FFBC83"/><path d="M333 844a354 354 0 0 1-33-35c14-3 27-3 40 0a43 43 0 0 1 30 23v1a150 150 0 0 0-32 9l-5 2Z" fill="#F28974"/><path d="M300 809a379 379 0 0 0 33 35c-9 4-18 9-26 15a9 9 0 0 1-4 2l-22 4-16 5-10 3-10 3-5 1a2 2 0 0 1-2-2 60 60 0 0 1 22-45 104 104 0 0 1 40-21Zm569 30 5-12 2-1a119 119 0 0 1 20 13 63 63 0 0 1 21 32c0 3 1 6-1 9a67 67 0 0 1-5 5 1 1 0 0 1-1 0 122 122 0 0 0-41-44l-1-2Z" fill="#FFBC83"/><path d="M401 942a136 136 0 0 1-34-37c-8-14-13-31-17-47 14-5 28-8 42-7a76 76 0 0 1 30 8 30 30 0 0 1 5 5l5 4 7 6a50 50 0 0 1 15 32c1 7-2 15-8 20-3 3-7 4-11 6l-10 4-8 3a344 344 0 0 1-16 3Z" fill="#F28974"/><path d="M351 858c3 16 8 33 16 47a136 136 0 0 0 35 37l-50 12-7 3-18 4-11 3a519 519 0 0 1-21 4c-8 1-17 2-23-3-2-1-2-4-2-6 0-9 1-16 3-23a107 107 0 0 1 23-41 131 131 0 0 1 55-37Z" fill="#FFBC83"/><path d="m839 881 18-22 1-1a60 60 0 0 1 27 18 97 97 0 0 1 18 32c1 5 2 9 1 13l-4 7a117 117 0 0 0-50-41 236 236 0 0 0-13-5l1-1Zm17 29c-9 12-18 24-28 34a31 31 0 0 0-5-1l-21-5-19-4a2 2 0 0 1-2-1l-2-5v-3a49 49 0 0 1 13-13l17-10a14 14 0 0 1 7-2 76 76 0 0 1 40 10Z" fill="#F28974"/><path d="M828 945a313 313 0 0 0 28-35c14 8 25 19 31 33 3 5 4 11 5 18l-1 7c-2 3-7 1-9 0l-13-7a208 208 0 0 0-32-14l-9-3Z" fill="#FFBC83"/></g></svg>