<svg xmlns="http://www.w3.org/2000/svg" viewBox="0 0 512 512"><path fill="none" d="M0 0h512v512H0V0Zm313 77q-36-10-73-9l-3 1-3 1q-40 2-76 17l-4-3-1-3-13-15-9-7q-13-8-28-8h-2l-3-1q-4 0-7 2l-3 2q-12 7-19 19-8 13-12 29-2 9-1 21v8l1 3 1 10 4 18v3l-1 2-7 8-3 6-4 7q-19 32-24 69l-1 9-1 19v12l1 14q3 18 9 35l1 2q5 16 13 31l6 11 12 17 3 4 6 6 6 8 11 10 10 8 19 11 15 10 10 5 23 8 11 4a2 2-34 0 0 1 0l6 1 10 2 32 3h15q16 1 31-1l11-2 12-2 12-4 20-8 6-4 7-3q7-2 12-6l4-2 6-3 13-8 12-9 19-19 7-6 8-10q18-23 30-51l2-4 1-4 1-4 1-3 1-3 2-3v-3a1 1 40 0 0 0-1q-1-2 1-3l1-4a2 2 61 0 1 0-1l2-7 3-21v-27a2 1 42 0 0 0-1l-1-1 1-3v-2l-1-5a1 1-3 0 1 0-1q7 0 12-4l7-5q4-2 6-6l2-4a1 1 61 0 0 0-1l1-2a2 1-10 0 0 1-1q5-8 5-19v-4l-5-11-1-1-2-2a2 2-83 0 0-1-2l-9-6-7-2h-5l-5-1-11 3-9 4a1 1 65 0 1 0-1q-16-28-38-51-2-1-1-3l6-15q7-18 9-37t-5-36l-1-2q-7-13-19-19-4-3-9-3-11-1-21 3l-10 5-10 6-12 11q-6 6-10 13a1 1 57 0 0 0 1l-1 1a2 1-7 0 0-1 0l-3 8-2 3-1 3-1 4-1 2Z"/><path fill="#090706" d="M395 20q12 6 19 19l-1 1q4 10 4 21v1l1 2a2 2-38 0 1-1 2l-1 3 1 5-1 1-3-1q-3-1-2-4v-9q-1-9-4-17 0-3-2-4l-2-4-1-2q-1-2-4-2l-1-1-3-5a2 1 66 0 0-1-1q-8-2-16-1l-12 2-11 6q-9 5-15 13l-9 9-8 8-1 2-2 6-2 7q-1 2-2 1l-2-1 1-2 1-4 1-3 2-3 3-8a2 1-7 0 1 1 0l1-1a1 1 57 0 1 0-1q4-7 10-13l12-11 10-6 10-5q10-4 21-3 5 0 9 3Z"/><path fill="#685B4F" d="m394 26 3 5-3-2-3-2q-6-3-14-3 8-1 16 1a2 1 66 0 1 1 1Z"/><path fill="#F7EFD6" d="M377 24q8 0 14 3l3 2 3 2 1 1 4 2 1 2q1 2-1 2-10-11-24-11l-12 2q-12 4-22 13l-4 4-1-1q6-8 15-13l11-6 12-2Z"/><path fill="#443E38" d="m402 38 2 2v1l1-1q2 1 2 4 3 8 4 17v9q-1 3 2 4l-2 4v3l-1 5v5l-1 5-4 18-6-3a1 1-41 0 0-1 0l-6 4a1 1 33 0 1-1 0v-2l1-2q4 2 1-1v-2a2 1-37 0 0 0-1l-1-1-1-3h3a2 1 83 0 0 1 1q2 2 2-2a1 1 4 0 0 0-1l-3-1h-1v-4l2-1a1 1-25 0 0 1-1l-2-1 1-3a3 3 59 0 0 0-2l1-7v-3a2 1 41 0 1 0-1l-1-7 2-1a2 1-69 0 1 1-1l1 1v2a1 1-71 0 1 0 1l1 6v3a1 1-17 0 0-1 1l-1 4q-2 2 1 3a1 1 23 0 0 1 0l2-10-1-5v-7l-1-2a1 1-51 0 1 0-2v-1a4 4-86 0 1-2-2q-1-2-3-2v-1l1-3a1 1 29 0 0 0-1q-8-10-22-11-12-1-22 6l-8 7q-9 8-14 20l-8-5a2 1-37 0 0-1 0h-2l2-6 1-2 8-8v1l10-9 4-4q10-9 22-13l12-2q14 0 24 11Z"/><path fill="#716257" d="M398 32q3 0 4 2l-4-2Z"/><path fill="#83786E" d="m403 36 2 4-1 1v-1l-2-2q2 0 1-2Z"/><path fill="#312F2A" d="m414 39 1 2q7 17 5 36t-9 37l-1-1 3-9v-9l2-3 1-9v-5q0-2-1 0l-2 1-1-1 2-2-1-2 3 1 1-1-1-5 1-3a2 2-38 0 0 1-2l-1-2v-1q0-11-4-21l1-1Z"/><path fill="#050504" d="M374 42q14 1 22 11a1 1 29 0 1 0 1l-1 3v1q2 0 3 2a4 4-86 0 0 2 2v1a1 1-51 0 0 0 2l1 2v7l1 5-2 10a1 1 23 0 1-1 0q-3-1-1-3l1-4a1 1-17 0 1 1-1v-3l-1-6a1 1-71 0 0 0-1v-2l-1-1a2 1-69 0 0-1 1l-2 1-5-15-4-4q-6-4-13-4l-9 2q-17 9-27 26l-5 8q-2 1-1 2l1 2 10 4 14 7 10 5 14 9 2 3a2 1 73 0 0 1 0l5 2 2 2 3 3 3 2 4 4h1l2-7 2-7 4-18 1-5v-5l1-5v-3l2-4 1 2-2 2 1 1 2-1q1-2 1 0v5l-1 9-2 3v9l-3 9 1 1-6 15q-1 2 1 3 22 23 38 51a1 1 65 0 0 0 1l9-4 11-3 5 1h5l7 2 9 6a2 2-83 0 1 1 2l2 2 1 1 5 11v4q0 11-5 19a2 1-10 0 1-1 1l-1 2a1 1 61 0 1 0 1l-2 4q-2 4-6 6l-7 5q-5 4-12 4a1 1-3 0 0 0 1l1 5v2l-1 3 1 1a2 1 42 0 1 0 1v27l-3 21-2 7a2 2 61 0 0 0 1l-1 4q-2 1-1 3a1 1 40 0 1 0 1v3l-2 3-1 3-1 3-1 4-1 4-2 4q-12 28-30 51l-8 10-7 6-19 19-12 9-13 8-6 3-4 2q-5 4-12 6l-7 3-6 4-20 8-12 4-12 2-11 2q-15 2-31 1h-15l-32-3-10-2-6-1a2 2-34 0 1-1 0l-11-4-23-8-10-5-15-10-19-11-10-8-11-10-6-8-6-6-3-4-12-17-6-11q-8-15-13-31l-1-2q-6-17-9-35l-1-14v-12l1-19 1-9q5-37 24-69l4-7 3-6 7-8v2a1 1-14 0 0 1 1l3-1a1 1-21 0 0 1-1l-2-3a1 1 67 0 0-1 0h-1v-3l-4-18-1-10-1-3v-8q-1-12 1-21 4-16 12-29 7-12 19-19l3-2q3-2 7-2l3 1h2q15 0 28 8l9 7 13 15 1 3 4 3 2 3a1 1-23 0 0 1 0l20-7h4l2-1a1 1-81 0 1 1-1l13-4 23-3q5-2 11-1l12-2 11 1h4l10 1 20 2 20 5 4 2q5 0 8 3a1 1-56 0 0 2 0l4-10q5-12 14-20l8-7q10-7 22-6ZM71 82l-3 4-4 12q-2 9-2 21v2l-1 4q1 3-2 2l1 1a1 1 2 0 1 1 1l1 12 2 11 3 10 2 8q3 3 4 8l3 9 3 6a1 1 77 0 1-1 1l-1-1-1-3-2-2-6-10-1-2q0-3-1-1l-3 4-2 1-2 2a1 1-1 0 0-1 1q0 4-3 7l-3 4-1 4-5 11-9 23q-3 8-3 13l-2 5v3l-1 4q-2 10-2 25v17a1 1 48 0 0 0 1l1 5v4l2 11q-1 4 1 7l2 7 5 17 2 7a2 2-65 0 0 0 1l3 5q2 2 2 5l2 2v1l6 11 1 1 4 6q0 3 4 7l5 7 3 3 2 2 2 3 2 2 7 7 7 6 4 4 11 9 6 4 6 4q10 7 21 12l24 10 2 1 5 1q15 5 31 7l13 3h29l15-1 12-2q18-2 35-7l9-4 10-3q5-4 11-6l3-1 6-4h2l2-2 4-2 7-3a1 1 13 0 0 1 0q3-5 8-6l4-3h1a1 1 42 0 0 1 0q3 0 4-3l1-1 8-8q2 3 4 0a1 1 5 0 1 1 0l2-3h-1q-3 0 1-3l2-2 11-11 8-10 5-6 2-3 1-3 3-4q3-2 4-6l3-5 2-4 1-1q1-6 7-7v-1a1 1-37 0 0-1 0h-2a1 1-49 0 1 0-1l3-7q0-4 4-5l1-1q-2-1-1-3l2-5 1-4 1-4 5-23 1-7 1-8v-7l1-8-2-24a1 1-80 0 0 0-1l-17-6-2-1-7-7q-4-8-4-18v-3q0-5 2-9 4-9 10-17a1 1-44 0 0 0-1l-6-10q-1-4-6-10l-9-12-10-12-17-17-22-15-12-7-14-7-18-7q-11-4-23-6l-7-1-5-1q-13-4-27-3-6-2-11-1h-8l-12 1a1 1-24 0 1-1 0l-1-2a1 1 57 0 0-1 0q-2 0-3 2t-3 0a2 1 66 0 0-1-1l-2 1a1 1-69 0 1-1 1l-11 1-2-1-7 3-13 4q-6 1-11 4h-2l-1 1-7 2q-3 1 0 3 0 3 2 5l4 8q-1 2-2 1-3-2-3-5a1 1-4 0 0-2-1q-2 0-1-2l1-2a1 1-25 0 0-1 0h-2l-1-1-2-3a1 1-22 0 0-2 0l-4 1q-3 0-1-2l2-2a1 1 60 0 0 1-2q-13-15-28-28l-3-1-15-5-5-1-4 1-7 1-10 6-6 6q-5 7-6 11Zm78 1a2 1 73 0 0 1-2 2 1 73 0 0-2-1 2 1 73 0 0 0 2 2 1 73 0 0 1 1Zm316 99q-11 0-18 7-4 2-5 5l-3 2a1 1 23 0 0-1 0q-3 2-4 5l1 1a1 1 4 0 0 1-1l1-3 1-1 1 1-1 3-1 2q-2 1-1 4l-1 1-1 2v1q-3 16 9 26l4 2 11 5h8q2 1 3-1l6-3q2 0 2-2h2a1 1 3 0 0 1-1l-1-2 2-1a1 1-72 0 0 1-1l3-4 3 1a1 1-73 0 0 1 0q1-2-2-3v-1h-1q-3 1 0-2 1 2 1 0 4-3 1-7a1 1 50 0 1 0-1h2l1-5v-1l-1-1q2 0 1-1a2 1 32 0 1 0-1l-1-8-2-2q-4-4-1-4 2 0 1-1l-4-2v-1q-8-9-19-7Zm31 19q0-2-2-2a1 1-83 0 0 0 1q-2 4 1 2l1-1ZM40 214l-1 1h1q1 1 1-1h-1Zm452 13h-1q2 0 0-1l1 1Zm-81 179 1 1a1 1 90 0 0 0-1q1-3-1-1v1Z"/><path fill="#B8B599" d="m339 45 1 1-10 9v-1l9-9Z"/><path fill="#C77F6D" d="m390 55 5 15 1 7a2 1 41 0 0 0 1v3l-1 7a3 3 59 0 1 0 2l-1 3-1 3v4l-1 2-1 1a1 1 59 0 1-1-1l-2-2-32-19q-5-3-16-5h-2l-1-1q10-17 27-26l9-2q7 0 13 4l4 4Z"/><path fill="#FAF3DF" d="m109 58 15 5v1l-10-2-6-1a2 1-43 0 0-1 0h-8l-9 4-6 4-5 6-9 15q-3 5-5 15l-2 13-1 1q0-12 2-21l4-12q5 1 3-2a1 1-61 0 1 0-1v-1q1-4 6-11l6-6 10-6 7-1 4-1 5 1Z"/><path fill="#443E38" d="m108 61 6 1 10 2h3q15 13 28 28a1 1 60 0 1-1 2l-2 2q-2 2 1 2l4-1a1 1-22 0 1 2 0l2 3 1 1h2a1 1-25 0 1 1 0l-1 2q-1 2 1 2a1 1-4 0 1 2 1q0 3 3 5 1 1 2-1l-4-8q-2-2-2-5l6-2q2-1 1-3l1-1q-1 4 3 3 7-3 20-5 17-5 35-6l6-1 6-1h10l19 1 23 2h3v-1h-3l7 1q12 2 23 6l18 7 14 7 12 7 22 15 17 17 10 12 9 12q5 6 6 10l6 10a1 1-44 0 1 0 1q-6 8-10 17-2 4-2 9v3q0 10 4 18-1 2-3 1l-2-3-3-8-2-6-5-13-7-13q-10-14-24-25l-7-4-5-3-12-6-10-4-11-2h-1l-2 1-3-1-9-1-7-1q-2-1-3 2t2 2h11l4 1 10 2-12-1q-14-2-29 2l-7 2-20 8-8 6-6 3q0-4 3-4a1 1 24 0 0 1 0l3-4q0-3 3-3a3 3-57 0 0 2 0q2-2 5-2a1 1 26 0 0 1 0q4-3 7-3l2-2a2 1-68 0 1 1 0l10-3h6l5-2a1 1 1 0 0 1 0l1-4-8 2-8 1q-19 5-36 17l-1 1a1 1 53 0 1 0 1l-1 1a1 1 70 0 1-1 0h-1l-6 4v2q1 1-1 3h-2a1 1-44 0 0-1 0q-7 6-12 14l-2 3q-2 3 1 7 2 2 0 1-2 0-3-2h-1l-9 18a1 1 13 0 0 1 0q2 1 1 2l-3 3-2 8v7h1l1-7a1 1 4 0 1 1 0h1a1 1-63 0 1 0 1l-2 8q0 2 2 2v2h-1a1 1 70 0 1-1-1l-2-2-1-1-1 1 1 3a1 1-32 0 1 0 1q-2 2-1 5a2 1-62 0 1 0 1v2a2 1 57 0 0 0 1v2l-1 1 1 4v6a1 1 25 0 0 0 2q2 1 2 3l2 6-1 3h-1q0 2-1 1a1 1 50 0 0-1 0q-2 1-2 4v9l3 12 9 22 2 5 3 6 2 5a1 1-80 0 0 0 1l6 3q9 10 20 17l7 4 8 5q3 3 6 3l11 3 23 2 5 1h3q-1 2 1 4h4a1 1-86 0 0 0-1l1-3h5l8 1h8q11-2 21-7a1 1-25 0 1 1 1l-1 2a2 1-16 0 0 0 1l-2 5a2 1-11 0 1-1 1l-6 6-9 5v-2a1 1-85 0 0 0-1q-5 1-5 4l-2 5h-5l-12 8-5 2-5 1h-3q2-4-4-3a2 2-82 0 0-1 1l-8 17q-3-1-5 1l-6 2-14 3-6 2a2 1-70 0 0-1 0h-5l-8-2-4 1h-11l-4-1-4 1a2 1 26 0 1-1 0h-1v-3q2-2 0-2a1 1-60 0 0-1 0l-3 4-2 3a2 1-43 0 1 1-1q1-2-1-2-3-1-7 1a1 1 31 0 1-1 0h-6l-9-1-11-1-3-1a2 1 49 0 0-1 0l-6 1-8 1-10-1-7-1-3-1-4-2h-3l-4-1v-1l-1 1 1-3q4-4 6-10 1-3-2-1-4 2-6 6l-4 10-1-1a1 1 52 0 1 0-1q1-1-1-2l-7-4-4-2q-2 0-3-2l-4-3-11-9-3-2q-4-3-9-4l-16-5-3-2-3-1h-7q-4-4-4-7l-4-6-1-1-6-11v-1l-2-2q0-3-2-5l-3-5a2 2-65 0 1 0-1l-2-7-5-17-2-7q-2-3-1-7l-2-11v-4l-1-5a1 1 48 0 1 0-1v-17q0-15 2-25l1-4v-3l2-5q0-5 3-13l9-23 5-11 1-4 3-4q3-3 3-7a1 1-1 0 1 1-1l2-2 2-1-2 4a1 1-35 0 0-1 1l1 2q-4 2-5 6l-1 4-2 3a1 1-34 0 0 0 1l-1 5-5 11-2 6-3 10v5q2-11 6-20l5-12 2-4 2-6 2-2q2-3 2-7 4-4 6-10l1 2 6 10 2 2 1 3 1 1a1 1 77 0 0 1-1l-3-6-3-9q-1-5-4-8l-2-8-3-10-2-11-1-12a1 1 2 0 0-1-1l-1-1q3 1 2-2l1-4 1-3 2-13q2-10 5-15l9-15 5-6 6-4 9-4h8a2 1-43 0 1 1 0Zm-21 76 1 5 2 14 1 3v3h-3l-1-3q-1-4 1-10a1 1 16 0 0-1-2l-2-1a2 1-84 0 1-1 0l-1-3a1 1 45 0 1 0-1q4-4 0-2l-1 1v1a2 1 36 0 1 0 1l1 5a1 1-6 0 0 1 1q2 0 2 2h-2l2 10v1l1 2 1 2q2 10 9 18v1q1 2 2 0v-3q4 0 6-3l4 3 1 1 1-2-1-1q-3-1-3-5 5 0 6-4l2 4q2 5 5 1a1 1-30 0 0 0-1q0-3-2-5l-1-3 7-7 2 3q1 2 5 3a1 1-4 0 0 0-1q0-4-3-7a2 1 65 0 0-1-1l-2 1q-5-4 0-5a1 1 84 0 1 2 1v2h1q4-3 7-8a1 1-29 0 0 0-1l-1-6q-1-3 2-3a1 1 78 0 1 0 1l2 4a1 1-31 0 0 2 0l4-4q1 5 6 8a1 1-73 0 0 2 0q0-5-3-9l-1-2q-2 0-3 2v-1q-1-3 2-4l1 2q3-2 4-5l-7-11-11-13 1-3q2 0 0-1l-3-1a1 1 33 0 1-1-1q1-1 3 1h1l5 5q1 3 4 5l2 5a2 2 10 0 0 1 0q4 3 3 9a1 1-87 0 0 1 0q4 1 3 4l-1 2h1q3-2 1-6-9-14-20-27l-2-2-2-2-3-3-1-1-1-1h-1l-5-3h-2l-3-2h-3q-10 1-16 9l-1 1q-5 2-7 8l-1 1q-4 4-3 10l-1 3-1 3v1q-1 3 2 2a1 1 75 0 0 0-1l1-2a1 1 11 0 1 1 1l-1 2a2 1-10 0 0-1 1l-2 2v3q0 2 2 3a1 1-28 0 0 0 1q3-1 2 1l-2 1q-2 3 2 3h1Zm150-44q-3-2-5-1a1 1 68 0 0-1 1q3 8 9 14l2 3 4 1a1 1 68 0 0 0-1l-2-5q0-3-2-4l-5-8Zm63 12a2 2 54 0 0 0 1q1 7 4 13l2 8a1 1 79 0 0 1 0q2 0 3-2l-1-5-3-14-2-3q-2-2-4 2Zm-103-1a1 1 35 0 0-1 0l-2 3a1 1 49 0 0 1 1l6 9 5 4q4 1 2-2l-3-5-3-4q-2-4-5-6Zm72 14h-1q1 7 5 13l2 4 1 2 2 2q1 1 1-1l-2-6-1-1-2-5-2-3-1-4a1 1-74 0 0 0-1h-2Zm-28 14-2-2q-3-5-7-2a1 1-47 0 0 0 2l3 4a2 1-73 0 0 0 1q5 6 12 11 1 1 1-1-1-4-6-8a3 2-60 0 1 0-3l-1-2Zm153 15q-6 10 1 18 2 2 5 2 3 1 5-2 2-2 2-6 1-9-7-15-4 0-6 3Zm-257 5q2 3 5 2a1 1-23 0 0 1-2l-4-7q-3 0-3 3l1 4Zm84 11-9-11a1 1 50 0 0-1 0l-2 2a1 1 62 0 0 0 1l4 7 9 8a1 1 54 0 0 1 0q2 0 2-2l-1-2-3-3Zm-32 15-8-6-2-2-3-4q-5-5-6 1a1 1-64 0 0 0 1l2 1a1 1-4 0 1 1 1q2 3 6 4a1 1-6 0 1 0 1q4 5 11 6a1 1-12 0 0 0-2l-1-1Zm-12 28a1 1-71 0 1-1-1q1-3-4-4h-3l-7 4-1 3v3q-2 8 4 15l7 2a1 1 34 0 0 1 0q3-2 5-6 2-3 1-6v-6l-2-4Zm2 65q2 0 0-2-3-4-8-7l-3-3q-7-3-14-3l-10 1-10 2q-4 1-7 5-7 4-9 7-5 10-7 21v5l1 5a2 2-52 0 1 0 1v6l6 7 6 7 9 5q5 2 12 2l5-1h1l15-2 6-4 7-6 3-4q3-3 3-7a2 2 63 0 1 0-1q3-6 3-12a2 1 33 0 0 0-1q-2-2 0-4a1 1-37 0 0 0-1q-1-7-5-13v-1h-2a2 1 66 0 0 0 1q0 2-1 1l-1-1-1-2a1 1 4 0 1 1-1Zm52 77a4 4-46 0 1-2 1q-2-1-3 1l-4 11-3 4q-1 2 1 2h1l4-6 6-11q2-2 0-2Zm-52 20-2 3q-1 2 1 3a1 1-56 0 0 1 0l4-8a1 1-12 0 1 1-1l1-1q1-4 4-7 1-1-1-1-5 0-7 5l-2 5a1 1 42 0 0 0 1l1 1h-1Zm-47 2q-8 9-12 18h1l6-8 3-4 3-5-1-1Zm105 38q-2 0-3 3 0 2 2 1 5-5 8-12l5-10v-1h-3l-2 1-7 15v3Zm38 5-1 1q-1 1 1 1l3-2 3-3 2-5 2-4 2-7q0-2-2-1l-3 4-3 6-3 9a1 1-11 0 1-1 1Zm-79-12q-3 0-5 2l-5 10-1 5q0 2 2 1 3-2 2-4a2 1 60 0 1 0-1l5-6 3-5a1 1 10 0 0-1-2Z"/><path fill="#B8B599" d="m124 63 3 1h-3v-1Z"/><path fill="#443E38" d="m313 77-1 3-20-5-20-2-10-1h-4l-11-1-12 2q-6-1-11 1l-23 3-13 4a1 1-81 0 0-1 1l-2 1h-4l-20 7a1 1-23 0 1-1 0l-2-3q36-15 76-17l3-1 3-1q37-1 73 9Z"/><path fill="#2C2925" d="M319 70h2a2 1-37 0 1 1 0l8 5-4 10a1 1-56 0 1-2 0q-3-3-8-3l-4-2 1-3 2 1q1 1 2-1l2-7Z"/><path fill="#AF6C54" d="m337 75 1 1h2q11 2 16 5l32 19 2 2a1 1 59 0 0 1 1l1-1-1 1 1 3q-3 2-4 5v4q0 2-1 0-25-20-55-32l5-8Zm42 27a1 1 74 0 0 1-1 1 1 74 0 0-1-1 1 1 74 0 0 0 1 1 1 74 0 0 0 1Zm4 1q-1 1 1 1a1 1 12 0 0 1-1q1-1-1-1a1 1-76 0 0-1 1Z"/><path fill="#3B3732" d="m231 77 1 2a1 1-24 0 0 1 0l12-1-3 1-14 2-18 3h-1q-3 0-2 1-4-1-8 1l-12 1 13-4 7-3 2 1 11-1a1 1-69 0 0 1-1l2-1a2 1 66 0 1 1 1q2 2 3 0t3-2a1 1 57 0 1 1 0Z"/><path fill="#443E38" d="M264 79q14-1 27 3l-11-1h-8l-14-1-5-2q5-1 11 1Z"/><path fill="#97826F" d="m253 78-11 1 3-1h8Z"/><path fill="#FAF3DF" d="m253 78 5 2h1q2 1 0 1h-15l-6 1-6 1q-18 1-35 6-13 2-20 5-4 1-3-3h2l6-2q4 2 5-2l12-1q4-2 8-1l2-1h1l18-3 14-2 11-1Z"/><path fill="#B8B599" d="m258 80 14 1 1 1-19-1h5q2 0 0-1h-1Z"/><ellipse fill="#25211C" rx="1.5" ry="1" transform="rotate(73 19 142)"/><path fill="#83786E" d="m280 81 11 1 5 1h3v1h-3l-23-2-1-1h8Z"/><path fill="#B8B599" d="M71 82v1a1 1-61 0 0 0 1q2 3-3 2l3-4Z"/><path fill="#312F2A" d="M332 83q30 12 55 32 1 2 1 0v-4h4l-1 2v2a1 1 33 0 0 1 0l6-4a1 1-41 0 1 1 0l6 3-2 7-2 7h-1l-4-4-3-2-3-3-2-2-5-2a2 1 73 0 1-1 0l-2-3-14-9-10-5-14-7-10-4-1-2q-1-1 1-2Z"/><path fill="#090706" d="m115 84 3 2h2l5 3h1l1 1 1 1 3 3 2 2 2 2q11 13 20 27 2 4-1 6h-1l1-2q1-3-3-4a1 1-89 0 1-1 0q1-6-3-9a2 2 10 0 1-1 0l-2-5q-3-2-4-5l-5-5h-1q-2-2-3-1a1 1 33 0 0 1 1l3 1q2 1 0 1l-1 3-3-2q-6-10-17-11l-2-1h-4a1 1 40 0 0-1-1l-9 6-5 5-5 11v3l-1 2a1 1-39 0 0 0 1v18h-1q-4 0-2-3l2-1q1-2-2-1a1 1-28 0 1 0-1q-2-1-2-3v-3l2-2a2 1-10 0 1 1-1l1-2a1 1 11 0 0-1-1l-1 2a1 1 75 0 1 0 1q-3 1-2-2v-1l1-3 1-3q-1-6 3-10l1-1q2-6 7-8l1-1q6-8 16-9h3Zm15 12-5-4q-2-1-1 1l1 2 2 1 3 1q2 0 0-1Z"/><path fill="#83786E" d="m209 84-2 1q-1-1 2-1Z"/><path fill="#716257" d="M187 87q-1 4-5 2l-6 2q5-3 11-4Z"/><path fill="#CC836F" d="M108 92h4l2 1q11 1 17 11l3 2 11 13-2 1-3 2-18 16q-15 13-28 27h-2l-1-3v-3l-1-3-2-14-1-5v-18a1 1-39 0 1 0-1l1-2v-3l5-11 5-5 9-6a1 1 40 0 1 1 1Zm-7 26a1 1 0 0 0-1 0 1 1 0 0 0 0 1 1 1 0 0 0 1-1Z"/><path fill="#FAF3DF" d="M173 92q1 2-1 3l-6 2q-3-2 0-3l7-2Z"/><path fill="#6E6053" d="m237 93 5 8q2 1 2 4l2 5a1 1 68 0 1 0 1l-4-1-2-3q-6-6-9-14a1 1 68 0 1 1-1q2-1 5 1Z"/><path fill="#403222" d="m125 92 5 4q2 1 0 1l-3-1-2-1-1-2q-1-2 1-1Z"/><path fill="#89634B" d="m394 93 2 1a1 1-25 0 1-1 1l-2 1 1-3Z"/><path fill="#13100E" d="m394 100 3 1a1 1 4 0 1 0 1q0 4-2 2a2 1 83 0 1-1-1h-3l1-1 1-2h1Z"/><ellipse fill="#9E6950" rx=".8" ry=".7" transform="rotate(74 123 301)"/><path fill="#9E6950" d="M384 104q-2 0-1-1a1 1-76 0 1 1-1q2 0 1 1a1 1 12 0 1-1 1Z"/><path fill="#685B4F" d="m306 106 3 14 1 5q-1 2-3 2a1 1 79 0 1-1 0l-2-8q-3-6-4-13a2 2 54 0 1 0-1q2-4 4-2l2 3Zm0 18h1a1 1-81 0 0 0-1h-1v1ZM197 104q3 2 5 6l3 4 3 5q2 3-2 2l-5-4-6-9a1 1 49 0 1-1-1l2-3a1 1 35 0 1 1 0Z"/><path fill="#6A5133" d="m392 106 1 1a2 1-37 0 1 0 1v2q3 3-1 1h-4q1-3 4-5Z"/><path fill="#6E6053" d="M269 118h2a1 1-74 0 1 0 1l1 4 2 3 2 5 1 1 2 6q0 2-1 1l-2-2-1-2-2-4q-4-6-5-13h1Z"/><circle cx="100.3" cy="118.4" r=".7" fill="#CC836F"/><path fill="#B8B599" d="m63 118-1 3v-2l1-1Z"/><path fill="#AF6C54" d="m145 119 7 11q-1 3-4 5l-1-2-1-2a1 1-48 0 0-1 0q-5 3 0 6v1l-1 1-4 4a1 1-31 0 1-2 0l-2-4a1 1 78 0 0 0-1q-3 0-2 3l1 6a1 1-29 0 1 0 1q-3 5-7 8h-1v-2a1 1 84 0 0-2-1q-5 1 0 5l-1 2-7 7q-2-1-2-3l-2-5h-1l-1 2v1q-1 2 1 2a1 1-86 0 1 0 1l1 6q-1 4-6 4 0-3-2-5a1 1 56 0 0-1 0q-2 0-1 3l2 6q-2 3-6 3l-5-12-2-5h2q13-14 28-27l18-16 3-2 2-1Z"/><path fill="#524C41" d="M307 124h-1v-1h1a1 1-81 0 1 0 1Z"/><path fill="#716257" d="m239 130 2 2 1 2a3 2-60 0 0 0 3q5 4 6 8 0 2-1 1-7-5-12-11a2 1-73 0 1 0-1l-3-4a1 1-47 0 1 0-2q4-3 7 2Zm-2 4v1l1-1q1-2-1-1v1Z"/><path fill="#050504" d="m146 131 1 2q-3 1-2 4-5-3 0-6a1 1-48 0 1 1 0Z"/><path fill="#605449" d="M237 135v-2q2-1 1 1l-1 1Z"/><path fill="#090706" d="M149 138q3 4 3 9a1 1-73 0 1-2 0q-5-3-6-8l1-1q1-2 3-2l1 2ZM83 142a1 1 45 0 0 0 1l1 3a2 1-84 0 0 1 0l2 1a1 1 16 0 1 1 2q-2 6-1 10l1 3h3l1 3 2 5 5 12v3q-1 2-2 0v-1q-7-8-9-18l-1-2-1-2v-1l-2-10h2q0-2-2-2a1 1-6 0 1-1-1l-1-5a2 1 36 0 0 0-1v-1l1-1q4-2 0 2Z"/><path fill="#050504" d="M400 144q8 6 7 15 0 4-2 6-2 3-5 2-3 0-5-2-7-8-1-18 2-3 6-3Z"/><path fill="#13100E" d="m139 145 4 7a1 1-23 0 1-1 2q-3 1-5-2l-1-4q0-3 3-3Z"/><path fill="#090706" d="m319 147 7 1 9 1 3 1 2-1h1l11 2 10 4 12 6 5 3 7 4q14 11 24 25l7 13 5 13 2 6q-1 3-2 0l-1-1q-1-1-1 1a1 1 35 0 0 0 1q2 2 0 4a1 1-33 0 0 0 1h1l1-1h2a1 1-60 0 1 0 1v2h1q3 11 2 21v10l-2 9-3 13-5 12-7 14q-6 10-14 17-5 6-11 10l-12 8q-16 9-30 12l-15 3a2 1 46 0 1-1 0l-3-1h-3l-6-1q-7 1-14-1h-7l-14-5-7-3-7-4-9-6-2-2-2-1-15-16-2-2-1-3a2 1-59 0 0 0-1q-1-3-6-6-1-2 1-1l3 1v-1l-7-8v-3l1-2q1-1-2-1a2 2-18 0 1-2-1l-2-1-1-1v-1l2-2a2 1-58 0 1 1 0l2-2a1 1-74 0 0-1-1l-1 1-1 1a1 1 74 0 1-1 0l-1-2-1-1-1-2 1-3-2-6q0-2-2-3a1 1 25 0 1 0-2v-6l-1-4 1-1v-2a2 1 57 0 1 0-1v-2a2 1-62 0 0 0-1q-1-3 1-5a1 1-32 0 0 0-1l-1-3 1-1 1 1 2 2a1 1 70 0 0 1 1h1v5a2 1-16 0 1-1 1v2a1 1 23 0 1 1 0v8q0 1 0 0h-4q-1 0 0 0 5 0 5 4l-1 3 1 5q2 2 2 8v1q9 30 31 51 12 10 27 16l9 4 10 2 1 1h28l2-1q31-4 53-24 33-30 35-76v-7l-1-4v-7a2 1-51 0 0 0-1q-3-15-9-28l-4-8a1 1 67 0 1 0-1l4-1a1 1-17 0 0 1-1l-1-1-4 2a1 1-29 0 1-2-1q-9-14-22-25l-9-7-10-6-11-4-9-2-10-2-4-1h-11q-3 1-2-2t3-2ZM218 251a2 2 32 0 0 0-2 2 2 32 0 0-3 0 2 2 32 0 0 1 2 2 2 32 0 0 2 0Zm204 7a2 1 107 0 0 2-2 2 1 107 0 0 0-2 2 1 107 0 0-2 1 2 1 107 0 0 0 3Zm-205-4q-4 1 0 3a1 1 46 0 0 1 0q2-1 0-2a1 1-26 0 0-1-1Zm205 9a2 1 129 0 0 2-1 2 1 129 0 0 1-2 2 1 129 0 0-3 1 2 1 129 0 0 0 2Zm-203 12a1 1 57 0 0 0-1 1 1 57 0 0-1-1 1 1 57 0 0 0 2 1 1 57 0 0 1 0Zm1 4a1 1 7 0 0 1 1v-2q-1-1-1 1Zm9 23q-1-3-1 0a1 1-85 0 0 1 1v-1Z"/><path fill="#13100E" d="m312 147-1 4a1 1 1 0 1-1 0l-5 2h-6l-10 3a2 1-68 0 0-1 0l-2 2q-3 0-7 3a1 1 26 0 1-1 0q-3 0-5 2a3 3-57 0 1-2 0q-3 0-3 3l-3 4a1 1 24 0 1-1 0q-3 0-3 4l-1 1q-4 0-6 4-9 8-15 18l-4 5v2q-8 12-10 26l-4 14q-2 0-2-2l2-8a1 1-63 0 0 0-1h-1a1 1 4 0 0-1 0l-1 7h-1v-7l2-8 3-3q1-1-1-2a1 1 13 0 1-1 0l9-18h1q1 2 3 2 2 1 0-1-3-4-1-7l2-3q5-8 12-14a1 1-44 0 1 1 0h2q2-2 1-3v-2l6-4h1a1 1 70 0 0 1 0l1-1a1 1 53 0 0 0-1l1-1q17-12 36-17l8-1 8-2Zm-83 59v1l-2 3a1 1-66 0 0 0 1h2v-2q0-2 2-3 0-2-1-1a2 1-90 0 0-1 1Z"/><path fill="#6E6053" d="m212 152 9 11 3 3 1 2q0 2-2 2a1 1 54 0 1-1 0l-9-8-4-7a1 1 62 0 1 0-1l2-2a1 1 50 0 1 1 0Z"/><path fill="#FAF3DF" d="m331 153 12 1 9 2v2l-27-2-2-1a1 1 49 0 0-1 0l-10 2-17 4q-22 7-39 22-5 3-8 7l-8 11q-2 0-1-2v-2q6-10 15-18l6-4 1-1 6-3 8-6 20-8 7-2q15-4 29-2Z"/><path fill="#716257" d="m323 155 2 1 27 2 9 2h2l10 6 9 7q13 11 22 25a1 1-29 0 0 2 1l4-2 1 1a1 1-17 0 1-1 1l-4 1a1 1 67 0 0 0 1l4 8q6 13 9 28a2 1-51 0 1 0 1v7l1 4v7q-2 46-35 76-22 20-53 24l-2 1h-28l-1-1-10-2-9-4q-15-6-27-16-22-21-31-51v-1q0-6-2-8l-1-5 1-3q0-4-5-4-1 0 0 0h4q0 1 0 0v-8a1 1 23 0 0-1 0v-2a2 1-16 0 0 1-1v-7l4-14 1 1v-1l8-17 6-12 8-11q3-4 8-7 17-15 39-22l17-4 10-2a1 1 49 0 1 1 0Zm-7 89-1 1v4q0 5 2 9v1l-9 1h-7l-5-1h-4l-10-1h-1q-2-2-5-1h-5l-7 3-3 2-2 3-3 5q-2 2-2 5l1 5 3 7 2 3 7 4a1 1 39 0 0 1 0 1 1-73 0 1 1-1v1q-2 2 1 3l17 3a1 1-4 0 1 1 0l-1 5a1 1-27 0 0-1 1l1 16q0 9 3 16 1 4 4 5 8 5 16 2l4-2q2-1 2-4l1-1 1-2q3-7 2-15 1-8-1-17a1 1 89 0 0 0-1l-1 1-1 1a1 1 86 0 1-1 0l1-3a1 1-23 0 0 1 0q0-2-2-2h-1l1-1 8-2 4-1h6l4-1 3-1-3 2a3 1-28 0 0-1 1q-1 3 1 2l6-3 6-2q10-5 19-12h-2q-1 2-4 2l2-3 3-2 2-3 10-12 2-9v-1l-1-1v-1h2v-6l-3-6q-3-4-8-4a1 1 55 0 1-1 0h-2q-9 2-17 8l-2 1-10 5-13 6-2 1-3 1-2-4q1-3-1-5v-4l-3-23-3-2v-1l9-2 10-6q5-3 6-10 1-5-2-8l-7-4-7-2h-6q-17 2-29 12-5 4-5 11-1 2 1 4l4 3q4 2 9 2l4 1h11l2 13 1 5v5a2 1 28 0 0 1 0l1 1Zm18 54h-6l-7 1q-3 1-2 3a1 1-15 0 0 1 0l11-1 4-1q1-2-1-2Z"/><path fill="#B8B599" d="m352 156 11 4h-2l-9-2v-2Z"/><path fill="#13100E" d="M128 158q3 3 3 7a1 1-4 0 1 0 1q-4-1-5-3l-2-3 1-2 2-1a2 1 65 0 1 1 1ZM113 159l2 5q0 2 2 3l1 3q2 2 2 5a1 1-30 0 1 0 1q-3 4-5-1l-2-4-1-6a1 1-86 0 0 0-1q-2 0-1-2v-1l1-2h1Z"/><path fill="#6E6053" d="m176 166 3 4 2 2 8 6 1 1a1 1-12 0 1 0 2q-7-1-11-6a1 1-6 0 0 0-1q-4-1-6-4a1 1-4 0 0-1-1l-2-1a1 1-64 0 1 0-1q1-6 6-1Z"/><path fill="#312F2A" d="m64 165 2 3a1 1-21 0 1-1 1l-3 1a1 1-14 0 1-1-1v-2l1-2h1a1 1 67 0 1 1 0Z"/><path fill="#13100E" d="M105 170q2 2 2 5 0 4 3 5l1 1-1 2-1-1-4-3-2-6q-1-3 1-3a1 1 56 0 1 1 0Z"/><path fill="#ABA085" d="M67 176q-2 6-6 10l-1-2a1 1-35 0 1 1-1l2-4 3-4q1-2 1 1Z"/><path fill="#605449" d="m260 175-6 4q2-4 6-4Z"/><path fill="#AF6C54" d="m484 189-3-1-10-5a1 1-13 0 0-1-1h-5q11-2 19 7Z"/><path fill="#FEF9E9" d="M465 182h5a1 1-13 0 1 1 1l10 5 3 1v1l-1 1q-3 0-5-2-4-3-12-4-2-1-5 1h-3l-2 1q-6 3-11 9l-3 4a1 1-44 0 1-1 0l-1-3 2-2 4-3 1-1v-2q7-7 18-7Z"/><path fill="#C9826F" d="M466 185q8 1 12 4 2 2 5 2l1-1 4 2q1 1-1 1-3 0 1 4l2 2 1 8a2 1 32 0 0 0 1q1 1-1 1-4 0 1 2l-1 5h-2a1 1 50 0 0 0 1q3 4-1 7h-1q-3 3 0 2h1v1l-2 2-3 4a1 1-72 0 1-1 1l-2 1q-2 1-2 3t-2 2l-6 3h-2a1 1-71 0 1 0-1l1-3 2-4q1-1 0 0l-2 3-2 4v2h-8l-11-5-4-2q-12-10-9-26v-1l1-2v1h4l1 1a1 1 34 0 1 0 1q-1 3 2 4a1 1 7 0 1 1 0q0 2-2 2a1 1 72 0 1-1-1h-2a1 1-21 0 0-1 0q1 3 4 3t3-2l1-1-1-2a1 1-12 0 1-1 0q-2-4 1-2h1v-1a1 1 87 0 0 0-1h-2a1 1 9 0 1 0-1q0-2-2-1l-2 1v-4l1-2q1-2-2-2l1-3 1-1 1 3a1 1-44 0 0 1 0l3-4q5-6 11-9 0 2 1 1l1-2h3q3-2 5-1Zm-1 8 2-1v-1q0-2-2 0a3 3 11 0 1-1 1l-3 2a1 1 47 0 0 0 1l2 3q0 1 0 0 0-3 2-5Zm16 1v2q0 3 3 1a1 1 66 0 0 0-1l-3-3q-3-2 0 1Zm-24 1-1 2 1 1 1-3q0-4-1 0Zm13 6v-1a2 1-34 0 1 1-1v-2q-1-2-2 0v4a1 1-4 0 1 1 0Zm-12 0q-2 1-1 2h1l2-3 1-1a1 1-50 0 0-1 0l-2 2Zm26 1h1l2-1q1-1-1-1-1-1-2 2Zm2 3q-3 2-1 2a1 1 27 0 0 1 0l1-1q0-3 2-4a1 1-25 0 0 1-1h-1q-3 1-3 4Zm-12-2 1 1 1-1q-1-2-2 0Zm-13 0q1 2 1 0l-1-1v1Zm7 1h-1a1 1 84 0 0 0 1l2-1h-1Zm-11 3-2-1h-1v1q3 4 5 0v-1l-1 1a1 1-56 0 1-1 0Zm22 4q2-1 0-1a1 1-59 0 0-1 0h-3a1 1-63 0 0-1 0v4l3 1q3 1 2-3a1 1-25 0 1 0-1Zm-13 1h1a1 1 47 0 0 0-1q-2-3-4 1v2l1-1 1-1h1Zm-32 0v4h1l3-4v-1l-4 1Zm53 2a1 1 21 0 0 0 1l2-1q0-2-1-1l-1 1Zm-32 5 1-3a2 1-34 0 1 1 0v-3a1 1-16 0 0-1 0l-4 2-3 3a1 1-53 0 0 0 1l2 1 1 1q2 1 2-1a1 1-7 0 1 1-1Zm16-3q0-2-1-1a1 1-23 0 0-1 1h1a1 1-86 0 0 1 0Zm-9-1-1 2a1 1-52 0 0 1 0l1-2h-1Zm12 2q-1-1-2 1-1 1 1 1h3l1-1-2-1a1 1 57 0 1-1 0Zm12 2v1a1 1 49 0 0 1 0v-1h-1Zm-47 2a1 1 0 0 0-1-1 1 1 0 0 0-1 1 1 1 0 0 0 1 1 1 1 0 0 0 1-1Zm19 5v1q2-4-1-4h-1q0 2 2 3Zm6 2-1-2h-1l1 2 2 1 1-1-1-1v1h-1Zm14 4a3 1 121 0 0 3-2 3 1 121 0 0 0-3 3 1 121 0 0-2 2 3 1 121 0 0-1 3Zm-21-3h-1a1 1 0 0 0-1 0v4a1 1 0 0 0 0 1h1l1-5Zm-14 1a1 1 22 0 0-1-1q-2-1-1 1v1q1 1 2-1Zm25 3q-2 1-1 2h1l1-3 1-1q0-2-2-1a1 1 77 0 0 0 1v1a1 1-16 0 1 0 1Zm-20 3 1-2-1-1h-2l-1-1q-1-1-1 1a2 1 29 0 0 1 1l1 2q1 3 2 0Zm11 5a2 1 15 0 0 2 1l2-1v-1l-3-3h-1v4Z"/><path fill="#25211C" d="m458 186-1 2q-1 1-1-1l2-1Z"/><path fill="#F6E7BA" d="M61 186q0 4-2 7l-3-1q1-4 5-6Z"/><path fill="#090706" d="m322 187 7 2 7 4q3 3 2 8-1 7-6 10l-10 6-9 2v1l3 2 3 23q-2 1-3-1l-1-1a2 1 28 0 1-1 0v-5l-1-5-2-13h-11l-4-1q-5 0-9-2l-4-3q-2-2-1-4 0-7 5-11 12-10 29-12h6Zm-3 5-14 3q-10 4-17 12l-1 3v1q4 6 12 6l9-1 10-1q7-3 11-8 3-3 3-6v-6a1 1 1 0 0-1-1l-2-1q-5-2-10-1Zm-4 45q0 2 2 3l1-1-4-14v-1l1 9v4Z"/><path fill="#83786E" d="M447 189v2l-1 1-4 3v-1q1-3 5-5Z"/><path fill="#743F4C" fill-opacity=".2" d="m467 192-2 1q-2 2-2 5 0 1 0 0l-2-3a1 1 47 0 1 0-1l3-2a3 3 11 0 0 1-1q2-2 2 0v1Z"/><path fill="#F26C2D" d="m329 193 2 1a1 1 1 0 1 1 1v6q0 3-3 6-4 5-11 8l-10 1-9 1q-8 0-12-6v-1l2-1a3 3 16 0 0 1 0l10-8 5-3 7-2 7-1v1l1 1 3-1h1q2 0 1-1l-1-1h-4l-1-2q5-1 10 1Zm-1 5a2 2-71 0 1-2 1q-2 0-3 2l7-3v-1l-2 1Zm-24 8q-2-2 0 1a1 1 69 0 0 1 0l-1-1Zm10 0-2 1a1 1-7 0 0-1 0q0 3-2 4l-2 2v2a1 1-59 0 0 1-1l4-4 3-4h-1Zm-13 3-1-2v-1l-1 1a1 1 40 0 0 0 2q2 2 0 3a1 1-10 0 0-1 0q0 3 1 1l1-2a2 1 10 0 1 1 0q2 0 0-1v-1Z"/><path fill="#FAF3DF" d="m319 192 1 2-1 1-7 1-7 2-5 3-10 8a3 3 16 0 1-1 0l-2 1 1-3q7-8 17-12l14-3Z"/><path fill="#25211C" d="M481 193v1q-3-3 0-1Z"/><path fill="#83786E" d="m56 192 3 1-2 2-2 1 1-4Z"/><path fill="#743F4C" fill-opacity=".2" d="M458 195h-1q1-4 1 0Z"/><path fill="none" d="m481 193 3 3a1 1 66 0 1 0 1q-3 2-3-1v-3Z"/><path fill="#AF6C54" d="M325 195q1 1-1 1h-1l-3 1-1-1v-1l1-1h4l1 1Z"/><path fill="#403222" d="M442 194v1l-2 2-1 1-1-1-1 1-1 3a1 1 4 0 1-1 1l-1-1q1-3 4-5a1 1 23 0 1 1 0l3-2Z"/><path fill="#90554D" fill-opacity=".7" d="m458 195-1 3-1-1 1-2h1Z"/><path fill="#B8B599" d="m57 195-2 6-2 4-5 12-1-1 5-11 1-5a1 1-34 0 1 0-1l2-3 2-1Z"/><path fill="#A96E61" fill-opacity=".7" d="M471 197v2a2 1-34 0 0-1 1v1a1 1-4 0 0-1 0v-4q1-2 2 0Z"/><path fill="#D0C196" d="M239 197v2q-1 2 1 2l-6 12-8 17v1l-1-1q2-14 10-26v-2l4-5Z"/><path fill="#83786E" d="m330 198-7 3q1-2 3-2a2 2-71 0 0 2-1l2-1v1Z"/><path fill="#90554D" fill-opacity=".7" d="m461 199-1 1-2 3h-1q-1-1 1-2l2-2a1 1-50 0 1 1 0Z"/><path fill="#111512" fill-opacity=".4" d="M495 202q-3 2-1-2a1 1-83 0 1 0-1q2 0 2 2l-1 1Z"/><path fill="#25211C" d="M486 200q2 0 1 1l-2 1h-1q1-3 2-2Z"/><path fill="#050504" d="M172 201q5 1 4 4a1 1-71 0 0 1 1l2 4v6q1 3-1 6-2 4-5 6a1 1 34 0 1-1 0l-7-2q-6-7-4-15v-3l1-3 7-4h3Zm-1 15a2 1 56 0 0 0-2 2 1 56 0 0-2-1 2 1 56 0 0 0 2 2 1 56 0 0 2 1Z"/><path fill="#F6E7BA" d="M438 201q3 0 2 2l-1 2v4h-4v-1l1-1 1-4 1-2Z"/><path fill="#25211C" d="M489 201h1a1 1-25 0 1-1 1q-2 1-2 4l-1-1q0-3 3-4Z"/><path fill="#685B4F" d="M235 202v2-2Z"/><path fill="#90554D" fill-opacity=".7" d="m476 203-1 1-1-1q1-2 2 0ZM462 203q0 2-1 0v-1l1 1Z"/><path fill="#6E6053" d="m437 203-1 4q-1-3 1-4Z"/><path fill="#90554D" fill-opacity=".7" d="M468 204h1l-2 1a1 1 84 0 1 0-1h1Z"/><path fill="#312F2A" d="M231 206q-2 1-2 3v2h-2a1 1-66 0 1 0-1l2-3v-1a2 1-90 0 1 1-1q1-1 1 1Z"/><path fill="#AF6C54" d="m304 206 1 1a1 1 69 0 1-1 0q-2-3 0-1Z"/><path fill="#743F4C" fill-opacity=".2" d="m486 205 1 1-1 1a1 1 27 0 1-1 0q-2 0 1-2Z"/><path fill="#9E6950" d="m315 206-3 4-4 4a1 1-59 0 1-1 1v-2l2-2q2-1 2-4a1 1-7 0 1 1 0l2-1h1Z"/><path fill="#F26C2D" d="m300 207 1 2v1q2 1 0 1a2 1 10 0 0-1 0l-1 2q-1 2-1-1a1 1-10 0 1 1 0q2-1 0-3a1 1 40 0 1 0-2l1-1v1Z"/><path fill="#90554D" fill-opacity=".7" d="M459 207q-2 4-5 0v-1h1l2 1a1 1-56 0 0 1 0l1-1v1Z"/><path fill="#9E6950" d="M443 210h2a1 1 87 0 1 0 1v1h-1q-3-2-1 2a1 1-12 0 0 1 0l1 2-1 1q0 2-3 2t-4-3a1 1-21 0 1 1 0h2a1 1 72 0 0 1 1q2 0 2-2a1 1 7 0 0-1 0q-3-1-2-4a1 1 34 0 0 0-1l-1-1 2-1q2-1 2 1a1 1 9 0 0 0 1Z"/><path fill="#743F4C" fill-opacity=".2" d="m490 209 1 1v1q-5-2-1-2Z"/><path fill="#A96E61" fill-opacity=".7" d="M475 210h3a1 1-59 0 1 1 0q2 0 0 1a1 1-25 0 0 0 1q1 4-2 3l-3-1v-4a1 1-63 0 1 1 0Z"/><path fill="#90554D" fill-opacity=".7" d="M467 212h-2l-1 1-1 1v-2q2-4 4-1a1 1 47 0 1 0 1Z"/><path fill="#F6E7BA" d="M438 211v1l-3 4h-1v-4l4-1Z"/><ellipse fill="#3A3630" rx="1.8" ry="1.2" transform="rotate(56 -118 268)"/><path fill="#743F4C" fill-opacity=".2" d="m489 214-2 1a1 1 21 0 1 0-1l1-1q1-1 1 1Z"/><path fill="#89634B" d="M457 213v3a2 1-34 0 0-1 0l-1 3a1 1-7 0 0-1 1q0 2-2 1l-1-1-2-1a1 1-53 0 1 0-1l3-3 4-2a1 1-16 0 1 1 0Z"/><path fill="#13100E" d="M41 214q0 2-1 1h-1l1-1h1Z"/><path fill="#90554D" fill-opacity=".7" d="M470 216h-1a1 1-23 0 1 1-1q1-1 1 1a1 1-86 0 1-1 0ZM463 215l-1 2a1 1-52 0 1-1 0l1-2h1Z"/><path fill="#A96E61" fill-opacity=".7" d="m475 217 2 1-1 1h-3q-2 0-1-1 1-2 2-1a1 1 57 0 0 1 0Z"/><path fill="#97826F" d="m47 216 1 1q-4 9-6 20v-5l3-10 2-6Z"/><path fill="#25211C" d="M487 219v1a1 1 49 0 1-1 0v-1h1Z"/><circle cx="437.9" cy="220.8" r="1.3" fill="#89634B"/><path fill="#C27C67" d="M457 223q3 0 1 4v-1q-2-1-2-3h1Z"/><path fill="#524C41" d="m314 225 4 14-1 1q-2-1-2-3v-4l-1-9v1Z"/><path fill="#743F4C" fill-opacity=".2" d="M487 224q0 2-1 0h1Z"/><path fill="#2C2925" d="M422 225q1 3 2 0l3 8 2 3v7q4 11 3 22l-1 14-4 14-5 15q-3 8-8 15l-10 13-11 12q-8 8-17 13-21 11-47 13h-1q-4-2-10 0h-4l-3-2-4-1-15-1q-5 0-10-3l-9-5q-15-8-27-22-9-9-15-20l-7-13-3-14 2 1a2 2-18 0 0 2 1q3 0 2 1l-1 2v3l7 8v1l-3-1q-2-1-1 1 5 3 6 6a2 1-59 0 1 0 1l1 3 2 2 15 16 2 1 2 2 9 6 7 4 7 3 14 5h7q7 2 14 1l6 1h3l3 1a2 1 46 0 0 1 0l15-3q14-3 30-12l12-8q6-4 11-10 8-7 14-17l7-14 5-12 3-13 2-9v-10q1-10-2-21h-1v-2a1 1-60 0 0 0-1h-2l-1 1h-1a1 1-33 0 1 0-1q2-2 0-4a1 1 35 0 1 0-1q0-2 1-1l1 1Zm-50 130q3 4 6 1v-1q1-2-1-2l-1 1-4 1Z"/><path fill="#111512" fill-opacity=".4" d="M491 226q2 1 0 1h1l-1-1Z"/><path fill="#A96E61" fill-opacity=".7" d="m463 226 1 2h1v-1l1 1-1 1-2-1-1-2h1Z"/><path fill="#403222" d="M487 227q3 1 2 3a1 1-73 0 1-1 0l-3-1 2-2Z"/><ellipse fill="none" rx="2.9" ry="1" transform="rotate(121 174 252)"/><rect width="1.8" height="5.5" x="-.9" y="-2.8" fill="#C27C67" rx=".7" transform="rotate(12 -901 2341)"/><path fill="#6E6053" d="M442 229a1 1 22 0 1 1 1q-1 2-2 1v-1q-1-2 1-1Z"/><path fill="#90554D" fill-opacity=".7" d="m469 232-1 3h-1q-1-1 1-2a1 1-16 0 0 0-1v-1a1 1 77 0 1 0-1q2-1 2 1l-1 1Z"/><path fill="#443E38" d="M446 233h2l1 1-1 2q-1 3-2 0l-1-2a2 1 29 0 1-1-1q0-2 1-1l1 1Z"/><path fill="#3A3630" d="m432 235 7 7 2 1 17 6a1 1-80 0 1 0 1l2 24-1 8v7l-1 8-1 7-5 23-1 4-1 4-2 5q-1 2 1 3l-1 1q-4 1-4 5l-3 7a1 1-49 0 0 0 1h2a1 1-37 0 1 1 0v1q-6 1-7 7l-1 1-2 4-3 5q-1 4-4 6l-3 4-1 3-2 3-5 6q-2-1-1-2l1-1 17-26 2-5 3-6q3-4 7-15l-1-2a1 1-84 0 0-1 1l-6 15-2 1-1 2-2 3-6 7q-10 17-25 29l-9 9-1 1-1 1-1 1-7 6-1 1a2 1 2 0 0-1 0l-10 8q-10 9-22 16-6 5-13 7l-3 1-5 3q-4 4-8 4 2-3 1-6a1 1-27 0 1 0-1q2-1 1-3l1-2a1 1-6 0 0 1-1q2-4-2-3l-2 2q-2 3-2 7-2 4-2 9l-24 6-23 4h-11l-12 1-23-1-7-1-7-1q-13 1-25-2l-12-3-9-3q-35-14-64-32l-2-2-4-2-7-5a2 1 49 0 0-1-1l1 1 8 8v1l-1 1-7-6-7-7-2-2-2-3-2-2-3-3-5-7h7l3 1 3 2 16 5q5 1 9 4l3 2 11 9 4 3q1 2 3 2l4 2 7 4q2 1 1 2a1 1 52 0 0 0 1l1 1q-1 5 2 1l3-3 1-1v1l4 1h3l4 2 3 1 7 1 10 1 8-1 6-1a2 1 49 0 1 1 0l3 1 11 1 9 1h6a1 1 31 0 0 1 0q4-2 7-1 2 0 1 2a2 1-43 0 0-1 1l-7 11a2 1-60 0 0 0 3l2-1 1-1 7-10 1-1 2-3h1a2 1 26 0 0 1 0l4-1 4 1h11l4-1 8 2-6 10q-2 2-1 5h1l8-13 2-2h1a2 1-70 0 1 1 0l6-2 14-3 6-2q2-2 5-1l1 2a1 1-44 0 0 1 0l4-5 2-4 5-8h3l5-1 5-2 12-8h5l-2 6v7q1 3 2 1 3-5 4-11l1-4 2-5 9-5 6-6a2 1-11 0 0 1-1l2-5a2 1-16 0 1 0-1l1-2a1 1-25 0 0-1-1q-10 5-21 7h-8l-8-1h-5l2-7 1-4a1 1 19 0 0 0-1h-1q26-2 47-13 9-5 17-13l11-12 10-13q5-7 8-15l5-15 4-14 1-14q1-11-3-22v-7q2 1 3-1Zm-50 139q-2-1-1 4a1 1 69 0 0 1 0q3-1 3-3h-2a2 1 49 0 1-1-1Zm-3 13-1 3a3 3 35 0 0 0 3q3 3 3 0l3-12a1 1 0 0 0-1-1q-3 1-3-1v-1 1q-2 4-1 8Zm-203 72h2l2-2 2-6 3-3 1-5-1-1-1 1q-6 7-9 14a1 1 22 0 0 1 2Z"/><path fill="#743F4C" fill-opacity=".2" d="m470 235-2 4v-1l2-3q1-1 0 0Z"/><path fill="#6A5133" d="m479 235 1 2a1 1 3 0 1-1 1h-2q0-2 2-3Z"/><path fill="#050504" d="M369 236h2a1 1 55 0 0 1 0q5 0 8 4l3 6v6h-2v1l1 1v1l-2 9-10 12-2 3-3 2-2 3-5 3-17 7-3 1-4 1h-6l-4 1-8 2-1 1h1q2 0 2 2a1 1-23 0 1-1 0l-1 3a1 1 86 0 0 1 0l1-1 1-1a1 1 89 0 1 0 1q2 9 1 17 1 8-2 15l-1 2-1 1q0 3-2 4l-4 2q-8 3-16-2-3-1-4-5-3-7-3-16l-1-16a1 1-27 0 1 1-1l1-5a1 1-4 0 0-1 0l-17-3q-3-1-1-3v-1a1 1-73 0 0-1 1 1 1 39 0 1-1 0l-7-4-2-3 2-1a1 1 23 0 0 0-1q-2-1-2 2l-3-7-1-5q0-3 2-5l3-5 2-3 3-2 7-3q0 3 2 2h1l-1 1-1 1 1 1 1 1q2 1 1-1v-1l1-4q3-1 5 1h1l10 1h4l5 1v4a1 1 75 0 1 0 1v3a1 1 50 0 0 1 1l3-2h3q3-1 4 2a1 1-39 0 1-1 0l-3 8q-4 5-6 12-1 1 0 0 3-2 4-5l1-4 3-3 2-6q1-3 4-5 1 0 0 0a1 1-68 0 0-1 0q-1 2-3 0a2 2 63 0 0-2-1h-6q-2-2-2-5h6l9-1v-1q-2-4-2-9v-4q2 1 2 3-2 2 2 1 2 2 1 5l-2-1q-2 0 0 2l1 1q1 3 3 2l3-1 2-1 13-6 10-5 2-1q8-6 17-8Zm3 4q0-3-3-1a2 1-68 0 1 0 1q-5 0-8 2l-4 2-3 2-3 2-6 3-6 4h-1l-5 2h-2q-4 0-3 1l5-1 6-1 3-2 4-2 3-1 12-8q5-3 10-1 4 0 2 3l-4 3v1l3-1 2-2 3-3a1 1-24 0 1 1 1l-2 3a1 1 33 0 0 1 1q1 1-1 3h1l3-1a1 1 63 0 0 0-1v-5l-1-3a1 1 48 0 0-1 0q-3 2-6 0a1 1-76 0 1 0-1Zm-8 7h-1v1h1v-1Zm-3 12-1-2v-1l3-5v-1l-2 2-3 6a1 1-72 0 0 1 1h2Zm11-5a1 1 60 0 0 0-1 1 1 60 0 0-1-1 1 1 60 0 0 0 2 1 1 60 0 0 1 0Zm5 0 1 1 2-1a1 1-68 0 0-1-1q-1-1-2 1Zm-6 5a3 1 130 0 0 2-2 3 1 130 0 0 2-3 3 1 130 0 0-3 2 3 1 130 0 0-1 3Zm-23-4a1 1 81 0 1 1 1l2 1h1q2 0-1-2a1 1 59 0 0-1 0h-2Zm4 7q-3 1-4 4l-3 3h-1q0-4 3-6a1 1-32 0 0 0-1l-2-2v1l-1 5-2 4q0 2-2 3a2 1 86 0 0 0 1l-1 4-1 3v1l-1 3q-1 2 2 1 2 0 1-2a2 2 42 0 1 0-2v-4l2-1v-4l1-2a1 1 9 0 1 1-1q2 0 3-2 0-2 4-3l3 1q-1 3 1 2a1 1 80 0 0 1-1l1-3a1 1 17 0 1 1 0q4 0 3 3 0 1 0 0l3-1-1-1h-1a1 1-25 0 1-1 0l-4-4-1-2v-1q-2-1-1 1l-3 3Zm-6-2 1-1 1-1h-1l-1 2Zm-21 0 1-1a1 1-20 0 0-1-1q-2 1-1 2a1 1 59 0 0 1 0Zm41 0a1 1 55 0 0-1-1 1 1 55 0 0-1-1 1 1 55 0 0 0 2 1 1 55 0 0 2 0Zm-87 1a1 1 26 0 0 0-1 1 1 26 0 0-1 0 1 1 26 0 0 0 1 1 1 26 0 0 1 0Zm6 1a1 1 75 0 0 1-1 1 1 75 0 0-1-1 1 1 75 0 0 0 1 1 1 75 0 0 0 1Zm23 0a1 1 38 0 0 0 1q3 1 3-2l-3 1Zm13-2a2 1-34 0 0-2 1 2 1-34 0 0-1 2 2 1-34 0 0 2-1 2 1-34 0 0 1-2Zm47 1-1 1-2 3h1l2-1a1 1-6 0 0 1-1l-1-2Zm-37 3q-4 5-6 11l-5 10q0 2 1 0 4-4 6-11l1-4 3-4q1-3 4-4-3 0-4 2Zm32-1a1 1 120 0 0 2 0 1 1 120 0 0-1-1 1 1 120 0 0-1 0 1 1 120 0 0 0 1Zm11 0-2 4q3-1 3-4a1 1-67 0 0 0-1l-1 1Zm-94 5v1h-1q-4 2-5 6l-3 4-1 1-1 2q-1 3-5 3v1q1 2 3 2l2-3 6-8a1 1-61 0 1 1-1q4 1 2 3l-7 10-2 2v1h2l1-1 2-2 2-4q0-2 2-3l1-3a1 1 60 0 1 0-1l6-7v-1a1 1-43 0 0-1 0l-1 1-1 1v2q-3 5-5 1v-3l4-3a1 1 44 0 0-1-1q-1-2 2-3a1 1-87 0 0 0-1h2q3 2 4 0v-1h-5a2 2 44 0 1-1 0q-2-1-2 1t-2 2h-4l-3-1q-2 0-3 2-1 0 0 0 4-3 6 1a1 1 58 0 0 1 0l1-1 3 1a1 1 8 0 1 1 0Zm92-5a1 1-30 0 0-2 0 1 1-30 0 0 0 2 1 1-30 0 0 1 0 1 1-30 0 0 1-2Zm-78 3h4q2-1 0-2a1 1-43 0 0-1 0h-3q-3-1-3 1 0 6 2 1a1 1 16 0 1 1 0Zm37 14-3 8v2q1 2 3-1l2-9 3-8a2 1 60 0 0 0-1q0-2 2-2l1-5a1 1 80 0 0-1 0l-2 1-1 1-1 4a2 1 67 0 1 0 1l-3 9Zm-17 1q0 2 1-1l3-5 2-4 4-6v-1q-3 1-4 4l-5 9-1 4Zm-54-14q-1 3 1 3 1 1 2-1 2-3 0-4a1 1-52 0 0-1 0l-2 2Zm107 4q-2 1 0 2a1 1 40 0 0 1 0q3-3 1-7h-1q-3 2-1 3l1 1a2 1-14 0 1-1 1Zm-82 11 2-2 2-3 2-3q1-3 5-5 1-1-1-1a2 1-57 0 0-1 0l-2 2-2 1-1 2a3 3 75 0 1-1 1l-4 7a2 1 78 0 1 0 1q-4 3-6 8l-1 1v1a1 1-51 0 0 1 0q4-4 6-9a1 1 0 0 1 1-1Zm64-13q-1 2 1 1v-1q3-1 0-1a1 1-1 0 0-1 1Zm-63 21a1 1 31 0 0 1 0q3-4 4-9 1-3 4-2h1l-1-2 4-8v-1q-2 0-2 3a1 1 62 0 1 0 1l-11 16a1 1 8 0 1-1 0q-2 1 1 2Zm-20-20q-2-2-2 1v1q1 1 2-2Zm94 0-3 9 1 2a1 1 52 0 0 1 0v-3a3 3-48 0 1 0-3l2-5h-1Zm-91 2q-4 3-6 7l-2 2q-1 1 1 3h1l5-9a1 1 9 0 1 1 0q2 0 1-2l2-2a1 1-26 0 0 1 0l-1-1q-3 0-3 2Zm33 0-2 4a1 1-12 0 0-1 0l-3 7-2 2a1 1-8 0 0-1 1l-2 6h1l4-3a1 1-34 0 0 0-1v-2l1-1 1-2 1-3 3-2a1 1-8 0 0 0-1l3-5 1-1h-2a3 3 2 0 0-2 1Zm51 0q-2 2-2 5l-2 8h1l3-11 2-3h-1l-1 1Zm-91 2a1 1-42 0 0-2 0 1 1-42 0 0 0 2 1 1-42 0 0 1-1 1 1-42 0 0 1-1Zm20 5a1 1-31 0 0-1 0 1 1-31 0 0-1 1 1 1-31 0 0 2 0 1 1-31 0 0 0-1Zm29 13q2 1 2-1v-2a2 1-41 0 1 0-1l1-3-1-1q-2 2-2 5v3Zm9-1q2 0 3-3a1 1 10 0 0 0-1q-4 0-5 3h1l1 1Zm-42 4a1 1 0 0 0 0-1l-4-2a1 1 0 0 0-1 1 1 1 0 0 0 0 1l4 2a1 1 0 0 0 1-1Zm12 13-1-1-1 1 1 6 1 1 2 10 1 7q1 5 3 7 2 3 6 3h5l5-3q3-5 3-10l1-10q0-10-3-20a2 1-64 0 1 0-1v-1h-1l-3-1q-3-3-6-3h-2q-6 1-9 5-2 1-2 3l1 4-1 3Zm-10-13q3 2 7 1 1 0 0 0l-5-2h-1q-3 0-1 1Zm37 15a1 1-21 0 0 1 1v-1h-1Zm-27 10h-2a1 1 50 0 0 0 1l2-1Zm27 1a4 4-42 0 0 0 3q1 3 2 2a1 1 82 0 0 0-1v-4a1 1-84 0 0-1-1l-1 1Zm-1 11-1 3q-1 3 1 2a1 1 85 0 0 0-1l1-1v-3h-1Z"/><path fill="#13100E" d="m460 237 3 3v1l-2 1a2 1 15 0 1-2-1v-4h1Z"/><path fill="#6A5133" d="M468 238v1l-1 3a1 1-71 0 0 0 1h2q-1 2-3 1v-2l2-4Z"/><path fill="#443E38" d="M372 241q3 2 6 0a1 1 48 0 1 1 0l1 3v5a1 1 63 0 1 0 1l-3 1h-1q2-2 1-3a1 1 33 0 1-1-1l2-3a1 1-24 0 0-1-1l-3 3-2 2-3 1v-1l4-3q2-3-2-3-5-2-10 1l-12 8-3 1-4 2-3 2-6 1-5 1q-1-1 3-1h2l5-2h1l6-4 6-3 3-2 3-2 4-2q3-2 8-2a2 1-68 0 0 0-1q3-2 3 1a1 1-76 0 0 0 1Z"/><path fill="#3B3732" d="M316 244q1 2 3 1v4q-4 1-2-1 0-2-2-3l1-1Z"/><ellipse fill="#25211C" rx="1.1" ry=".5" transform="rotate(-41 516 -366)"/><ellipse fill="#443E38" rx="1.6" ry="1.5" transform="rotate(32 -328 503)"/><path fill="#443E38" d="m363 251-3 5v1l1 2h-2a1 1-72 0 1-1-1l3-6 2-2v1Z"/><ellipse fill="#25211C" rx="1.2" ry=".8" transform="rotate(60 -35 450)"/><path fill="#2C2925" d="m380 254-2 1-1-1q1-2 2-1a1 1-68 0 1 1 1Z"/><path fill="#3B3732" d="m318 253 2 1 2 4q-2 1-3-2l-1-1q-2-2 0-2Z"/><ellipse fill="#25211C" rx="2.2" ry=".9" transform="rotate(107 116 285)"/><path fill="#3B3732" d="M218 255q2 1 0 2a1 1 46 0 1-1 0q-4-2 0-3a1 1-26 0 1 1 1Z"/><ellipse fill="#25211C" rx="2.8" ry=".9" transform="rotate(130 127 215)"/><path fill="#25211C" d="M351 255q3 2 1 2h-1l-2-1a1 1 81 0 0-1-1h2a1 1 59 0 1 1 0Z"/><path fill="#090706" d="m168 259 3 3q5 3 8 7 2 2 0 2a1 1 4 0 0-1 1l1 2 1 1q1 1 1-1a2 1 66 0 1 0-1h2v1q4 6 5 13a1 1-37 0 1 0 1q-2 2 0 4a2 1 33 0 1 0 1q0 6-3 12a2 2 63 0 0 0 1q0 4-3 7l-3 4-7 6-6 4-15 2h-1l-5 1q-7 0-12-2l-9-5-6-7-6-7v-6a2 2-52 0 0 0-1l-1-5v-5q2-11 7-21 2-3 9-7 3-4 7-5l10-2 10-1q7 0 14 3Zm-34 5-2 2q-9 7-12 17l-1 3q-2 3-1 6l-2 8v4q-1 2 2 2v1a2 2 46 0 0 0 2l6 8h2a1 1-6 0 1 1 1q0 2 2 3l3 2q3 2 7 2h6q2-1 5 1 0-2 2-1 6 0 12-3h1q2 0 3-2l1-1q7-5 9-12l2-4 2-7 1-1-1-7a2 1-88 0 0-1-1l-1-1q0-4-2-7l-1-3a1 1-49 0 1 0-1v-1l-1-1-4-3q-2-1-2-4v-1h-1a1 1 5 0 1-1-1h-2q-8-4-19-3l-13 3Zm48 19a1 1 19 0 0 2 0q0-4-2-2v2Z"/><path fill="#25211C" d="m276 257-1 4v1q1 2-1 1l-1-1-1-1 1-1 1-1h-1q-2 1-2-2h5ZM356 259l1 2q-3 2-3 5l-3-1q2-1 1-3l3-3q-1-2 1-1v1Z"/><ellipse fill="#25211C" rx="1.1" ry=".5" transform="rotate(136 122 199)"/><path fill="#25211C" d="m326 259-1 1a1 1 59 0 1-1 0q-1-1 1-2a1 1-20 0 1 1 1Z"/><ellipse fill="#25211C" rx="1" ry=".6" transform="rotate(54 -69 484)"/><ellipse fill="#13100E" rx="2.1" ry="1" transform="rotate(129 150 231)"/><ellipse fill="#25211C" rx=".8" ry=".6" transform="rotate(26 -430 738)"/><ellipse fill="#3A3630" rx=".6" ry=".5" transform="rotate(75 -28 317)"/><path fill="#312F2A" d="M301 260h1q0 3 2 5l1 2-3 2a1 1 50 0 1-1-1v-3a1 1 75 0 0 0-1v-4Z"/><path fill="#25211C" d="M311 261q0 3-3 2a1 1 38 0 1 0-1l3-1Z"/><ellipse fill="#2C2925" rx="2.2" ry=".6" transform="rotate(-34 588 -391)"/><path fill="#443E38" d="m345 260 2 2a1 1-32 0 1 0 1q-3 2-3 6h1l3-3q1-3 4-4 1 2-1 3-4 1-4 3-1 2-3 2a1 1 9 0 0-1 1l-1 2v4l-2 1h-1l1-4a2 1 86 0 1 0-1q2-1 2-3l2-4 1-5v-1Z"/><path fill="#F7EFD6" d="m166 264-1 2-3-1h-5q-6-2-11 0l-3-1-4 2-6 4q-3 0-4 2l-2 3-3 6-2 4q-2 0-2-2 3-10 12-17 3 2 2-2l13-3q11-1 19 3Z"/><path fill="#25211C" d="m368 261 1 2a1 1-6 0 1-1 1l-2 1h-1l2-3 1-1Z"/><path fill="#524C41" d="m357 261 4 4a1 1-25 0 0 1 0h1l1 1-3 1q0 1 0 0 1-3-3-3a1 1 17 0 0-1 0l-1 3a1 1 80 0 1-1 1q-2 1-1-2 0-3 3-5Z"/><path fill="#605449" d="M335 262q-3 1-4 4l-3 4-1 4q-2 7-6 11-1 2-1 0l5-10q2-6 6-11 1-2 4-2Z"/><ellipse fill="#25211C" rx="1" ry=".7" transform="rotate(119 105 237)"/><path fill="#312F2A" d="M375 263q0 3-3 4l2-4 1-1a1 1-67 0 1 0 1Z"/><path fill="#524C41" d="M288 264q-1 2-4 0h-2a1 1-87 0 1 0 1q-3 1-2 3a1 1 44 0 1 1 1l-4 3v3q2 4 5-1v-2l1-1 1-1a1 1-43 0 1 1 0v1l-6 7a1 1 60 0 0 0 1l-1 3q-2 1-2 3l-2 4-2 2-1 1h-2v-1l2-2 7-10q2-2-2-3a1 1-61 0 0-1 1l-6 8-2 3q-2 0-3-2v-1q4 0 5-3l1-2 1-1 3-4q1-4 5-6h1v-1a1 1 8 0 0-1 0l-3-1-1 1a1 1 58 0 1-1 0q-2-4-6-1-1 0 0 0 1-2 3-2l3 1h4q2 0 2-2t2-1a2 2 44 0 0 1 0h5v1Z"/><ellipse fill="#312F2A" rx="1.2" ry=".9" transform="rotate(-30 673 -552)"/><path fill="#89634B" d="M169 265h1v1q0 3 2 4l-1 1-2 1 2 2a2 1-28 0 1-1 1l-1 2v2h-2q-3-1-5 1a1 1 26 0 0 1 1v1a1 1-25 0 1 0 1q-2 1 0 3l3 4a1 1 19 0 0 1-1v-4q3 1 3-1h1q2 0 1 3-3 1-5 4h-1q-2-3-5-4 1-3-1-2l-1-3q-1-2 1 0l1 1 1-1q-1-2 1-4a1 1-36 0 0 0-1v-2l-1-1a1 1-87 0 0-1 1l-1 2-1 1q-1 2-1-1l1-1 5-7a1 1 10 0 1 1 0l1-1v-1q1-1-1-1l1-2h2a1 1 5 0 0 1 1Zm-4 9q-2 3 0 3h2v-3a1 1 39 0 0-2 0Z"/><path fill="#605449" d="M294 264h3a1 1-43 0 1 1 0q2 1 0 2h-4a1 1 16 0 0-1 0q-2 5-2-1 0-2 3-1Z"/><path fill="#AF6C54" d="M134 264q1 4-2 2l2-2Z"/><path fill="#685B4F" d="m339 264-1 5q-2 0-2 2a2 1 60 0 1 0 1l-3 8h-2l3-9a2 1 67 0 0 0-1l1-4 1-1 2-1a1 1 80 0 1 1 0Z"/><path fill="#443E38" d="m143 264-2 2-1 3-1 3q-1 4-5 6a2 1 21 0 1-1 0h-1q-1 3-3 0a1 1 38 0 0-2 0l-4 10-3 6h-1v-2q2-2 2-5l1-2 2-4 3-6q2-1 4 1a1 1 62 0 0 1 0h2a1 1-73 0 0 1 0q4-4 4-10l4-2Z"/><path fill="#C27C67" d="m143 264 3 1 2 1a1 1-6 0 1 1 0l-1 1v3q-1 3-4 4l-7 14q-1 5-5 10a1 1 18 0 1-1 0l-1 2 1 2 1 1 1-2v-2a1 1 65 0 1 0-1l4-5 5-11 1-3 1-3 4-4 5 1v-1l2-4a2 1-26 0 0 0-1q0-2-1 0l-4 3a1 1-68 0 1-1 1h-1v-1q1-4 6-5h5q1 3-1 6l-3 4v1a1 1-61 0 0 1-1l6-8v-2l3 1q2 0 1 1v1l-1 1a1 1 10 0 0-1 0l-5 7-1 1q0 3 1 1l1-1 1-2a1 1-87 0 1 1-1l1 1v2a1 1-36 0 1 0 1q-2 2-1 4l-1 1-1-1q-2-2-1 0l1 3q-10 15-15 33l-2 2h-1q5 2 9 1 3 0 4-4a1 1 48 0 0 0-1v-3l1-1 11-21q2-3 5-4 1-3-1-3h-1q0 2-3 1v4a1 1 19 0 1-1 1l-3-4q-2-2 0-3a1 1-25 0 0 0-1v-1a1 1 26 0 1-1-1q2-2 5-1l1 2a1 1-53 0 0 1 0l2-4q1-2 3-2v-1l-3-3 1-1 4 3 1 1v1a1 1-49 0 0 0 1l1 3q2 3 2 7l1 1a2 1-88 0 1 1 1l1 7-1 1-2 7-2 4q-2 7-9 12l-1 1q-1 2-3 2h-1q-6 3-12 3-2-1-2 1-3-2-5-1h-6q-4 0-7-2l-3-2q-2-1-2-3a1 1-6 0 0-1-1h-2l-6-8a2 2 46 0 1 0-2v-1q-2-2-1-4 1-1-1-2l2-8h1v2h1l3-6 4-10a1 1 38 0 1 2 0q2 3 3 0h1a2 1 21 0 0 1 0q4-2 5-6l1-3 1-3 2-2Zm32 18h2v-3l-2 1-1 2a1 1 13 0 0 1 0Zm-27 1q-2 0-3 2h3q2-1 1-2h-1Zm29 6h-2a1 1 27 0 0-1 0l-2 2-2 2-1 4v2l-6 11q-2 8 0 1l6-10v-2q0-5 5-5v-1q-2 0 0-2a1 1 59 0 1 1 0l1 3q2 2-1 3a2 1 13 0 0-1 0q-2 2 1 1h1q3-2 1 2-6 6-8 14-1 2 0 0l9-14q1-4-1-9v-1q2-1 2-3l-1-2q0-2-1 0v4Zm-49-1 2-2q0-3-2-1l-1 1-1 4v1a1 1-63 0 0 1 0l1-3Zm13 0h1l1-2-1-1a2 2-12 0 1-1 2v1Zm12-3h-1l-10 20h1l10-20Zm-14 16a2 1 47 0 0-1-3 2 1 47 0 0-2-1 2 1 47 0 0 1 3 2 1 47 0 0 2 1Zm-18-2-1-1a1 1-70 0 0-1 1q-1 1 1 3l2 2q1 1 0 0v-2l2-2 2-2h-1l-4 1Zm10 7q-4-2-6 1l-3 4v1q2-2 4 0a1 1 64 0 0 1 1h2v-1l-4-1a1 1-54 0 1 0-1l2-4h1q4 2 5-2l-1 1-1 1Zm11 4q3 0 1-2a2 2-76 0 1-1-1v3Zm-9 8h-1l-2-1v1l4 2q0 1 0 0-2-4 1-5a1 1 71 0 0 0-1l1-1q0-3-1-1l-1 1q-2 2-1 5Z"/><path fill="#6A5133" d="M157 265h-3q-5 1-6 5v-3l1-1a1 1-6 0 0-1 0l-2-1q5-2 11 0Z"/><path fill="#524C41" d="M162 265v2l-6 8a1 1-61 0 1-1 1v-1l3-4q2-3 1-6h3Z"/><path fill="#83786E" d="m324 265-4 6-2 4-3 5-1 1 1-4 5-9q1-3 4-4v1Z"/><path fill="#090706" d="M263 265q2 1 0 4-1 2-2 1-2 0-1-3l2-2a1 1-52 0 1 1 0Z"/><path fill="#716257" d="M310 265a2 2 63 0 1 2 1q2 2 3 0a1 1-68 0 1 1 0q1 0 0 0-3 2-4 5l-2 6-3 3-1 4q-1 3-4 5-1 1 0 0 2-7 6-12l3-8a1 1-39 0 0 1 0q-1-3-4-2h-3l-1-2h6Z"/><path fill="#25211C" d="M369 266q2 4-1 7a1 1 40 0 1-1 0q-2-1 0-2a2 1-14 0 0 1-1l-1-1q-2-1 1-3h1Z"/><path fill="#AF6C54" d="M139 266q0 6-4 10a1 1-73 0 1-1 0h-2a1 1 62 0 1-1 0q-2-2-4-1l2-3q0 3 1 1l3-3 6-4Z"/><path fill="#685B4F" d="m155 268-2 4v1l-5-1v-1h1a1 1-68 0 0 1-1l4-3q1-2 1 0a2 1-26 0 1 0 1Z"/><path fill="#524C41" d="M295 268q2 0 1 1-4 2-5 5l-2 3-2 3-2 2a1 1 0 0 0-1 1q-2 5-6 9a1 1-51 0 1-1 0v-1l1-1q2-5 6-8a2 1 78 0 0 0-1l4-7a3 3 75 0 0 1-1l1-2 2-1 2-2a2 1-57 0 1 1 0Z"/><path fill="#25211C" d="M350 270q-2 1-1-1a1 1-1 0 1 1-1q3 0 0 1v1Z"/><path fill="#685B4F" d="m299 269-4 8 1 2h-1q-3-1-4 2-1 5-4 9a1 1 31 0 1-1 0q-3-1-1-2a1 1 8 0 0 1 0l11-16a1 1 62 0 0 0-1q0-3 2-3v1Z"/><path fill="#25211C" d="M266 270q-1 3-2 2v-1q0-3 2-1Z"/><path fill="#524C41" d="m361 270-2 5a3 3-48 0 0 0 3v3a1 1 52 0 1-1 0l-1-2 3-9h1Z"/><path fill="#716257" d="m133 270-3 3q-1 2-1-1 1-2 4-2Z"/><path fill="#443E38" d="m272 270 1 1a1 1-26 0 1-1 0l-2 2-1-1q0-2 3-2Z"/><path fill="#2C2925" d="M148 270v2l-4 4-1 3-1 3-5 11-4 5a1 1 65 0 0 0 1v2q-1-3-3-1l1-2a1 1 18 0 0 1 0q4-5 5-10l7-14q3-1 4-4Z"/><path fill="#716257" d="m305 272-3 5a1 1-8 0 1 0 1l-3 2-1 3-1 2-1 1v2a1 1-34 0 1 0 1l-4 3h-1l2-6a1 1-8 0 1 1-1l2-2 3-7a1 1-12 0 1 1 0l2-4a3 3 2 0 1 2-1h2l-1 1Z"/><path fill="#6E6053" d="m355 271-2 3-3 11h-1l2-8q0-3 2-5l1-1h1Z"/><path fill="#443E38" d="m171 271 3 3v1q-2 0-3 2l-2 4a1 1-53 0 1-1 0l-1-2h2v-2l1-2a2 1-28 0 0 1-1l-2-2 2-1Z"/><path fill="#83786E" d="m269 272 1 1q1 2-1 2a1 1 9 0 0-1 0l-5 9h-1q-2-2-1-3l2-2q2-4 6-7Z"/><ellipse fill="#25211C" rx=".9" ry=".7" transform="rotate(57 -144 339)"/><ellipse fill="#312F2A" rx="1.2" ry="1" transform="rotate(-42 492 -206)"/><path fill="#C27C67" d="M167 274v3h-2q-2 0 0-3a1 1 39 0 1 2 0Z"/><path fill="#25211C" d="M221 278v2a1 1 7 0 1-1-1q0-2 1-1Z"/><path fill="#716257" d="M339 278h1v4a2 2 42 0 0 0 2q1 2-1 2-3 1-2-1l1-3v-1l1-3Z"/><ellipse fill="#443E38" rx=".9" ry=".6" transform="rotate(-31 647 -371)"/><path fill="#443E38" d="M177 279v3h-2a1 1 13 0 1-1 0l1-2 2-1ZM331 280h2l-2 9q-2 3-3 1v-2l3-8ZM315 280q-1 3-1 1l1-1Z"/><path fill="#3A3630" d="M184 283a1 1 19 0 1-2 0v-2q2-2 2 2Z"/><path fill="#F7EFD6" d="M369 282q-9 7-19 12l-6 2-6 3q-2 1-1-2a3 1-28 0 1 1-1l3-2 17-7 5-3q3 0 4-2h2Z"/><path fill="#3B3732" d="m218 283 1 2 1 1 1 2a1 1 74 0 0 1 0l1-1 1-1a1 1-74 0 1 1 1l-2 2a2 1-58 0 0-1 0l-2 2v1l1 1 3 14 7 13q6 11 15 20 12 14 27 22l9 5q5 3 10 3l15 1 4 1 3 2h4q6-2 10 0l-2 1-2 6q-2 2-1 4l-2 1h-3l-5-1-23-2-11-3q-3 0-6-3l-8-5-7-4q-11-7-20-17l-6-3a1 1-80 0 1 0-1l-2-5-3-6-2-5-9-22-3-12v-9q0-3 2-4a1 1 50 0 1 1 0q1 1 1-1h1Z"/><path fill="#AF6C54" d="M149 283q1 1-1 2h-3q1-2 3-2h1Z"/><path fill="#B8B599" d="M120 283q0 2 2 2l-1 2-2-1 1-3Z"/><path fill="#524C41" d="M179 287q0 2-2 3v-5q1-2 1 0l1 2ZM130 286l-2 2-1 3a1 1-63 0 1-1 0v-1l1-4 1-1q2-2 2 1Z"/><path fill="#2C2925" d="m161 287-3 4-5 12-7 15q0 2 2 3 5 1 5-3a2 2 62 0 1 0-1l1-5a1 1-20 0 1 0-1l2-2 6-12 4-6h1l-11 21-1 1v3a1 1 48 0 1 0 1q-1 4-4 4-4 1-9-1h1l2-2q5-18 15-33 2-1 1 2Z"/><path fill="#312F2A" d="m313 284 1 1-1 3a2 1-41 0 0 0 1v2q0 2-2 1v-3q0-3 2-5Z"/><path fill="#3B3732" d="m260 286-2 1q0-3 2-2a1 1 23 0 1 0 1Z"/><path fill="#685B4F" d="m143 286-1 2h-1v-1a2 2-12 0 0 1-2l1 1Z"/><rect width="1.2" height="22.7" x="-.6" y="-11.4" fill="#2C2925" rx=".3" transform="rotate(26 -555 462)"/><path fill="#F7EFD6" d="m119 286 2 1q0 3-2 5h-1q-1-3 1-6Z"/><path fill="#C77F6D" d="M161 287q3 1 5 4l-4 6-6 12-2 2a1 1-20 0 0 0 1l-1 5a2 2 62 0 0 0 1q0 4-5 3-2-1-2-3l7-15 5-12 3-4Zm-2 7q3 1 0-1v1Z"/><path fill="#524C41" d="M323 288q-1 3-3 3l-1-1h-1q1-3 5-3a1 1 10 0 1 0 1Z"/><path fill="#89634B" d="M175 289h2v2q2 5 1 9h-1q2-4-1-2h-1q-3 1-1-1a2 1 13 0 1 1 0q3-1 1-3l-1-3a1 1 59 0 0-1 0q-2 2 0 2v1q-5 0-5 5v-2l1-4 2-2 2-2a1 1 27 0 1 1 0Z"/><rect width="5.9" height="1.9" x="-2.9" y="-.9" fill="#524C41" rx=".9" transform="rotate(23 -572 812)"/><path fill="#89634B" d="M159 293q3 2 0 1v-1Z"/><path fill="#CF492A" d="m301 293-1 3q-1 3 2 4a1 1 1 0 1 0 1q2 3-1 1-2-2-1 1l1 8a2 1 31 0 0 0 1q2 3 1 6l1 4a1 1 90 0 0 1 1h1v-11l-2-15v-4q3 0 6 3l3 1h1v1a2 1-64 0 0 0 1q3 10 3 20l-1 10q0 5-3 10l-5 3h-5q-4 0-6-3-2-2-3-7l-1-7-2-10v-4a1 1 37 0 0 0-1v-2l1-3-1-4q0-2 2-3 3-4 9-5Z"/><path fill="#25211C" d="M301 293h2v4l2 15v11h-1a1 1 90 0 1-1-1l-1-4q1-3-1-6a2 1 31 0 1 0-1l-1-8q-1-3 1-1 3 2 1-1a1 1 1 0 0 0-1q-3-1-2-4l1-3Z"/><path fill="#443E38" d="m282 294 5 2q1 0 0 0-4 1-7-1-2-1 1-1h1Z"/><ellipse fill="#716257" rx="2.4" ry="1" transform="rotate(47 -273 307)"/><path fill="#443E38" d="m126 298-2 2-2 2v2q1 1 0 0l-2-2q-2-2-1-3a1 1-70 0 1 1-1l1 1 4-1h1Z"/><path fill="#FAF3DF" d="M331 298h3q2 0 1 2l-4 1-11 1a1 1-15 0 1-1 0q-1-2 2-3l7-1h3Z"/><path fill="#443E38" d="M169 299v2l-6 10q-2 7 0-1l6-11Z"/><path fill="#716257" d="m133 301-1 2-1-1-1-2q2-2 3 1Z"/><path fill="#2C2925" d="M177 300h1l-9 14q-1 2 0 0 2-8 8-14Z"/><path fill="#443E38" d="M116 300q2 1 1 2-1 2 1 4-3 0-2-2v-4Z"/><path fill="#25211C" d="M229 302v1a1 1-85 0 1-1-1q0-3 1 0Z"/><path fill="#605449" d="M133 304q-1 4-5 2h-1l-2 4a1 1-54 0 0 0 1l4 1v1h-2a1 1 64 0 1-1-1q-2-2-4 0v-1l3-4q2-3 6-1l1-1 1-1Z"/><path fill="#9E6950" d="M143 308q2 2-1 2v-3a2 2-76 0 0 1 1Z"/><path fill="#403222" d="m289 307 1 1v2a1 1 37 0 1 0 1v4l-1-1-1-6 1-1ZM318 310v1a1 1-21 0 1-1-1h1Z"/><path fill="#89634B" d="m136 313-1 1a1 1 71 0 1 0 1q-3 1-1 5 0 1 0 0l-4-2v-1l2 1h1q-1-3 1-5l1-1q1-2 1 1ZM290 320l-2 1a1 1 50 0 1 0-1h2Z"/><path fill="#6A5133" d="M319 321v4a1 1 82 0 1 0 1q-1 1-2-2a4 4-42 0 1 0-3l1-1a1 1-84 0 1 1 1Z"/><path fill="#403222" d="M317 332v3l-1 1a1 1 85 0 1 0 1q-2 1-1-2l1-3h1Z"/><path fill="#25211C" d="M445 342q-4 11-7 15l-3 6-2 5-17 26-1 1q-1 1 1 2l-8 10-11 11-2 2q-4 3-1 3h1l-2 3a1 1 5 0 0-1 0q-2 3-4 0l-8 8-1 1q-1 3-4 3a1 1 42 0 1-1 0h-1l-4 3q-5 1-8 6a1 1 13 0 1-1 0l-7 3-4 2-2 2h-2l-6 4-3 1q-6 2-11 6l-10 3-9 4q-17 5-35 7l-12 2-15 1h-29l-13-3q-16-2-31-7l-5-1-2-1-24-10q-11-5-21-12l-6-4-6-4-11-9-4-4 1-1v-1l-8-8-1-1a2 1 49 0 1 1 1l7 5 4 2 2 2q29 18 64 32l9 3 12 3q12 3 25 2l7 1 7 1 23 1 12-1h11l23-4 24-6 4-2q4 0 8-4l5-3 3-1q7-2 13-7 12-7 22-16l10-8a2 1 2 0 1 1 0l1-1 7-6 1-1 1-1 1-1 9-9q15-12 25-29l6-7 2-3 1-2 2-1 6-15a1 1-84 0 1 1-1l1 2Zm-96 102-12 7a2 1-17 0 0 0 1q0 2 1 1l1-1 3-2 3-2 4-1a1 1-6 0 0 1-1q-1-2 1-1l5-1h1a1 1 8 0 0-1-1h-2q-3-1-4 1h-1Zm-209 10 6 3 3 2h5q3-1 0-2-7-1-14-5a1 1 34 0 0-1 0q-1 1 1 2Z"/><path fill="#6E6053" d="M231 348q2 0 0 2l-6 11-4 6h-1q-2 0-1-2l3-4 4-11q1-2 3-1a4 4-46 0 0 2-1Z"/><path fill="#312F2A" d="M378 356q-3 3-6-1l4-1 1-1q2 0 1 2v1Z"/><path fill="#685B4F" d="M188 356q2 0 1 1-3 3-4 7l-1 1a1 1-12 0 0-1 1l-4 8a1 1-56 0 1-1 0q-2-1-1-3l2-3h1l-1-1a1 1 42 0 1 0-1l2-5q2-5 7-5Z"/><path fill="#6E6053" d="m132 370 1 1-3 5-3 4-6 8h-1q4-9 12-18Z"/><path fill="#685B4F" d="M328 374h2a1 1 19 0 1 0 1l-1 4-2 7-1 3a1 1-86 0 1 0 1h-4q-2-2-1-4l2-1q-1-2 1-4l2-6 2-1ZM383 375h2q0 2-3 3a1 1 69 0 1-1 0q-1-5 1-4a2 1 49 0 0 1 1ZM380 379q0 2 3 1a1 1 0 0 1 1 1l-3 12q0 3-3 0a3 3 35 0 1 0-3l1-3q-1-4 1-8v-1 1Z"/><path fill="#6E6053" d="M249 389v1l-5 10q-3 7-8 12-2 1-2-1 1-3 3-3v-3l7-15 2-1h3ZM287 394l-2 7-2 4-2 5-3 3-3 2q-2 0-1-1l1-1a1 1-11 0 0 1-1l3-9 3-6 3-4q2-1 2 1Z"/><path fill="#685B4F" d="M351 399v2l-2 5-1 4q-1 6-4 11-1 2-2-1v-7l2-6 2-5q0-3 5-4a1 1-85 0 1 0 1ZM196 401a1 1 10 0 1 1 2l-3 5-5 6a2 1 60 0 0 0 1q1 2-2 4-2 1-2-1l1-5 5-10q2-2 5-2Z"/><path fill="#25211C" d="m412 407-1-1v-1q2-2 1 1a1 1 90 0 1 0 1Z"/><path fill="#685B4F" d="m314 418-5 8-2 4-4 5a1 1-44 0 1-1 0l-1-2 8-17a2 2-82 0 1 1-1q6-1 4 3ZM148 420q-2 6-6 10l-1 3-3 3q-3 4-2-1l4-10q2-4 6-6 3-2 2 1ZM231 435q2 0 0 2v3l-2 3-1 1-7 10-1 1-2 1a2 1-60 0 1 0-3l7-11 2-3 3-4a1 1-60 0 1 1 0ZM322 444l-1 2q1 2-1 3a1 1-27 0 0 0 1q1 3-1 6l-4 2q0-5 2-9 0-4 2-7l2-2q4-1 2 3a1 1-6 0 1-1 1Z"/><path fill="#605449" d="m268 441-2 2-8 13h-1q-1-3 1-5l6-10h4Z"/><path fill="#685B4F" d="m186 443-1 5-3 3-2 6-2 2h-2a1 1 22 0 1-1-2q3-7 9-14l1-1 1 1Z"/><path fill="#312F2A" d="M354 443h2a1 1 8 0 1 1 1h-1l-5 1q-2-1-1 1a1 1-6 0 1-1 1l-4 1-3 2-3 2-1 1q-1 1-1-1a2 1-17 0 1 0-1l12-7h1q1-2 4-1ZM140 452q7 4 14 5 3 1 0 2h-5l-3-2-6-3q-2-1-1-2a1 1 34 0 1 1 0Z"/></svg>