<svg xmlns="http://www.w3.org/2000/svg" version="1.1" xmlns:xlink="http://www.w3.org/1999/xlink" width="1000" height="1000"><g clip-path="url(#SvgjsClipPath1053)"><rect width="1000" height="1000" fill="#ffffff"></rect><g transform="matrix(1.1627906976744187,0,0,1.1627906976744187,-5.684341886080802e-14,-5.684341886080802e-14)"><svg xmlns="http://www.w3.org/2000/svg" version="1.1" xmlns:xlink="http://www.w3.org/1999/xlink" width="860" height="860"><svg xmlns="http://www.w3.org/2000/svg" viewBox="0 0 860 860"><path d="M405 0h50l32 3 30 5 36 9 27 9 24 10 15 7 25 13 26 16 18 13 14 11 15 13 12 11 18 18 7 8 11 13 13 17 15 22 12 20 14 27 9 20 9 24 8 25 7 29 5 30 3 33v48l-3 33-5 30-9 36-12 35-12 27-11 22-13 22-15 22-9 12-13 16-10 11-7 8-20 20-11 9-10 9-16 12-19 13-25 15-23 12-24 11-30 11-29 8-28 6-28 4-23 2h-50l-31-3-31-5-36-9-27-9-24-10-25-12-20-11-24-15-16-12-13-10-15-13-12-11-18-18-7-8-11-13-13-17-15-22-12-20-14-27-9-20-9-24-8-25-7-29-5-30-3-33v-48l3-33 5-30 9-36 12-35 12-27 11-22 13-22 8-12 12-17 13-16 9-11 15-16 17-17 11-9 10-9 16-12 19-13 25-15 22-12 30-13 28-10 30-8 24-5 28-4zm-14 31-21 3-20 5-19 7-23 11-21 13-12 9-10 9-8 7-13 14-12 16-10 18-8 20-5 20-2 12-1 13v27l3 51-7 1-9 6-6 9-3 9-1 6v37l4 26 6 23 7 19 8 16 7 10 7 7 10 5 8 1 2 13 7 30 5 16 8 15 8 12 1 1v58l-2 5-15 10-23 12-34 17-27 12-38 16-15 6-1 2 5 6 26-10 39-16 20-9 33-16 19-9 16-10 7-5 1-7 1-27v-21l-1-18-10-15-8-15-7-24-7-31-2-6-12-3-9-6-8-10-8-16-7-20-5-17-4-22-1-9v-28l3-16 5-5 16-7v-51l-1-30 2-21 5-23 8-22 9-16 10-14 11-12 15-15 15-11 19-11 14-8 19-7 24-7 18-3 14-1h19l22 1 30 5 26 7 15 6 10 6 7 8 4 7 16 6 16 8 13 10 8 7 9 11 9 13 10 19 8 24 3 16 1 10v21l-2 46v14l2 7 1 1 10 1 6 4 4 8 2 11 1 16-1 25-4 27-5 18-9 22-7 12-4 5-9 6-5 2-7 1-4 9-5 22-5 24-6 14-15 20-2 13v42l1 14 3 5 9 9 10 6 37 16 79 33 34 13h5l3-5-1-3-7-1-9-6-20-9-48-20-40-17-28-12-8-6-7-6-1-7v-54l15-20 6-13 6-27 4-23 5-4 16-8 5-4 9-14 8-18 6-19 4-20 2-17 1-30-1-15-4-15-4-6-7-6-4-2h-6l2-60v-22l-3-21-6-21-7-17-9-16-10-14-11-12-10-9-15-10-11-6-13-2-8-11-7-8-13-8-16-6-24-6-30-5-10-1zm18 41-4 2 15 4 39 18 19 8 6 1-5-6-14-10-16-9-17-6-11-2zm93 50-12 6-20 6-19 4-20 2h-18l-22-2-41-7h-10l-21 3-18 6-12 7-8 7-7 8-7 9-6 15-5 21-5 36-2 24v17l25-1 7-9 12-6 10-2h35l17 3 15 5 9 6 6 7 1 2 17 4 7 1h26l19-3 8-4 6-8 10-6 16-5 14-2h33l10 2 10 4 7 6 3 5 15 1h12l-1-12-7-63-3-15-6-16-7-12-11-13-7-8-13-10-14-7-20-5zM313 292l-24 1-14 2-8 4-4 8v20l4 25 5 16 9 10 9 6 17 4 8 1h26l17-3 12-6 8-8 6-12 4-13 3-19v-16l-6-8-9-5-19-4-16-2zm216 0-22 1-21 3-15 4-10 5-3 4-1 3v21l4 19 6 17 6 8 7 6 9 3 19 3h28l16-3 10-5 11-9 5-13 5-22 2-23-1-9-5-8-9-3-8-1zm-320 18 1 6 4 6 10 12 9 15h1v-22l-5-8-9-7-5-2zm423-1-10 4-9 8-3 6-1 23h2l8-14 8-10 5-7 2-10zm-218 12-4 4-2 19-3 48-1 9-1 1h-5l-2-9-2-21-3 4-4 6-7 7-16 8-14 3-8 1h-31l-27-5-8-4-5-5-6-7-7-16-10-34-2-2 1 24 4 35 12 66 7 36 5 16 4 10 8 12 15 15 14 11 15 13 14 11 12 9 16 8 14 4 15 2h37l17-2 16-4 17-8 17-12 13-11 11-9 12-11 8-7 9-9 7-10 7-15 6-26 7-41 8-44 3-36 1-18-2 3-11 36-6 10-8 7-8 3-21 4-8 1h-27l-25-4-10-3-8-6-6-10-7-16-7-21-4-15-4-4-3-1zm-206 13-1 7v15l3 17 5 20 6 17 8 16 8 10 3 2h5v-15l-4-19-10-6-5-7-3-10v-22l-5-12-6-9zm427 0-7 9-5 11-1 4v23l-3 10-5 7-9 5-4 16v18l5 1 8-7 8-14 7-19 5-20 2-15v-29zm-90 233-4 5-8 7-14 12-24 22-18 12-16 8-21 7-15 3-23 2v7l6 12 10 11 3 3-16-3-21-7-21-10-15-10-14-11-16-16-9-11-7-9-2 3-5 21-8 16-6 7 3 15 4 12 7 13 7 9 7 8 11 9 10 7 21 11 17 6 19 5 21 3h31l22-3 19-5 20-8 17-10 13-10 11-11 10-14 8-16 3-9v-17l-8-14-4-11-2-18-1-25-1-8z" fill="#000"></path><path d="M331 468h7l19 8 18 4 18 2h57l27-3 19-5 12-6h8l4 4-9 8-17 8-17 5-20 3-15 1h-41l-22-2-22-5-15-6-11-8-4-3 2-4z" fill="#000"></path><path d="M380 406h1l1 13 4 4 24 11 11 4 10-1 19-6 9-5 6-6-1-13 1-1 7 1 8 7 1 4-4 10-7 6-17 8-14 7-7 5h-17l-9-4-15-10-10-4-9-3-6-6v-13l6-5zM321 303h20l17 5 12 6 7 7 1 6-5 3-4-1-4-5-11-5-3 11-6 7-5 2h-13l-6-3-5-6-3-12-9 4-8 7-5 1-5-4-1-3 4-6 14-8 13-5z" fill="#000"></path><path d="M508 303h18l13 4 14 6 8 6 1 2v6l-5 3-5-1-8-7-9-4-2 12-6 7-4 2-7 1-10-2-8-7-2-6v-6l-15 8-3 2-6-1-2-2 1-4 6-7 14-7z" fill="#000"></path><path d="m381 513 22 3h38l24-3-1 5-7 7-8 4-8 2h-36l-13-4-9-8z" fill="#000"></path><path d="m317 440 2 1-8 18-4 18-4-4-4-8 2-8 6-10 8-6z" fill="#000"></path><path d="m528 445 6 2 7 7 4 9-2 11-1 3h-2l-6-16-6-12z" fill="#000"></path></svg></svg></g></g><defs><clipPath id="SvgjsClipPath1053"><rect width="1000" height="1000" x="0" y="0" rx="500" ry="500"></rect></clipPath></defs></svg>