<svg xmlns="http://www.w3.org/2000/svg" fill="none" viewBox="0 0 181 62"><path fill="currentColor" d="M29.536 50.416.864 36.912v-8l28.672-13.504v7.36l-18.56 8.576c-.853.384-1.707.725-2.56 1.024-.81.256-1.45.427-1.92.512.47.085 1.13.256 1.984.512.853.256 1.685.576 2.496.96l18.56 8.576v7.488ZM37.831 54V7.28h10.432l5.248 20.096L58.823 7.28h10.496V54h-7.488V34.352c0-2.688.064-5.461.192-8.32.17-2.901.363-5.696.576-8.384.213-2.73.448-5.205.704-7.424l-6.592 23.488h-6.592L43.783 10.8c.256 1.963.49 4.181.704 6.656.256 2.475.448 5.141.576 8 .17 2.859.256 5.824.256 8.896V54h-7.488Zm39.847 0V7.28h8v18.944h12.544V7.28h8V54h-8V33.456H85.678V54h-8Zm39.694 7.04L139.708.88h8.384l-4.16 11.2 36.224 16.832v8l-28.672 13.504v-7.488l18.56-8.576a15.93 15.93 0 0 1 2.752-.896c.939-.256 1.685-.405 2.24-.448a40.6 40.6 0 0 1-2.304-.448 18.195 18.195 0 0 1-2.688-.96l-28.48-13.248-15.872 42.688h-8.32Z"/></svg>
