<svg xmlns="http://www.w3.org/2000/svg" viewBox="0 0 797.62 359.41">
  <g stroke-linecap="round">
    <path fill="#eaddd7" stroke-width="0" d="M30.12 151.62c18.76-9.92 42.19-16.04 61-24.6 7.4-8.06 21.5-1.99 28.24 12 8.91 13.4 6.37 22.43 16.24 40.23 11.01 14.16 5.39 21.87-12 28.25-16.52 5.01-35.15 9.36-61 24.6-17.04 11.11-22.69-3.33-28.24-12 .64-10.27-11.24-24.26-16.24-40.23-4-12.74-3.14-18.11 12-28.25"/>
    <path fill="none" stroke="#846358" stroke-width="4" d="M30.12 151.62c17.44-5.27 42.53-20.81 61-24.6m-61 24.6c22.02-8.43 45.55-19.33 61-24.6m0 0c16.88-3.1 18.97-.45 28.24 12m-28.24-12c16.34-8.38 21.46-.72 28.24 12m0 0c9.24 15.57 15.91 30.78 16.24 40.23m-16.24-40.23c5.55 12.87 11.9 26.6 16.24 40.23m0 0c8.2 11.52-1.45 20.53-12 28.25m12-28.25c7.23 16.5 2.55 27.3-12 28.25m0 0c-17.97 7.05-40.87 13.47-61 24.6m61-24.6c-18.14 9.97-39.86 17-61 24.6m0 0c-16.88 3.09-22.7-.71-28.24-12m28.24 12c-8.13 6.47-24.82.46-28.24-12m0 0c-2.44-10.18-5.64-19.16-16.24-40.23m16.24 40.24c-8.37-13.63-12.69-24.73-16.24-40.24m0 0c-6.25-13.74-.74-24.58 12-28.25m-12 28.25c-1-12.38 3.27-22.46 12-28.25"/>
  </g>
  <text x="48.27" y="24.67" fill="#846358" dominant-baseline="alphabetic" font-family="Excalifont, Xiaolai, sans-serif, Segoe UI Emoji" font-size="28" style="white-space:pre" text-anchor="middle" transform="rotate(-21.97 479.93 24.9)">Next.js</text>
  <g stroke-linecap="round">
    <path fill="#eaddd7" stroke-width="0" d="M218.46 87.92c11.62.14 29.64 6.9 70.1 16.26 11.7 8.4 20.34 9.91 16.24 26.05-6.2 11.92-3.32 21.79-9.81 42.26-5.6 8.48-5.8 16.39-26.04 16.24-18.77-4.27-34.01-10.5-70.11-16.27-14-8.42-16.86-10.65-16.23-26.04 2.82-11.85 3.55-23.93 9.8-42.27 7.18-8.2 14.39-16.17 26.05-16.23"/>
    <path fill="none" stroke="#846358" stroke-width="4" d="M218.46 87.92c23.32 2.3 48.46 11.48 70.1 16.26m-70.1-16.26c18.14 5.4 31.44 6.94 70.1 16.26m0 0c11.79 1.6 17.82 10.33 16.24 26.05m-16.24-26.05c14.7-.59 19.22 14.6 16.24 26.05m0 0c-7.38 15.85-6.5 31.14-9.81 42.26m9.8-42.26c-3.69 12.33-8.88 25.97-9.8 42.26m0 0c-3.35 15.12-14.38 15.02-26.04 16.24m26.04-16.24c-6.27 10.07-11.53 19.72-26.04 16.24m0 0c-16.82.08-38.1-8.52-70.11-16.27m70.1 16.27c-13.62-1.63-30.06-4.05-70.1-16.27m0 0c-10.14-4.97-17.33-10.01-16.23-26.04m16.23 26.04c-17.72-7.13-16.97-7.08-16.23-26.04m0 0c.58-15.3 8.69-28.54 9.8-42.27m-9.8 42.27c4.37-11.06 7.4-23.8 9.8-42.27m0 0c5.78-15 13.52-17.89 26.05-16.23m-26.05 16.23c5.3-11.35 14.1-23.3 26.05-16.23"/>
  </g>
  <text x="52.23" y="24.67" fill="#846358" dominant-baseline="alphabetic" font-family="Excalifont, Xiaolai, sans-serif, Segoe UI Emoji" font-size="28" style="white-space:pre" text-anchor="middle" transform="rotate(13.06 -379.69 914.12)">three.js</text>
  <g stroke-linecap="round">
    <path fill="#eaddd7" stroke-width="0" d="M187.31 233.33c9.1-4.96 10.34-10.4 10.31-13.09-.87-7.57 6.9-.36 6.05-.72.39.9 2.83 4.96 6.77 5.34 3.37 2.9 4.76 6.87.72 6.05-6.12 1.8-2.9 5.68-10.3 13.09.1 2.58-4.85-3.16-6.06.72-1.17.46-2.32-3.01-6.77-5.34-5.98-5.76-5.87-3.92-.72-6.05"/>
    <path fill="none" stroke="#846358" stroke-width="4" d="M187.31 233.33c5.04-1.97 1.72-7.08 10.31-13.09m-10.31 13.09c2.15-3.02 4.24-6.67 10.31-13.09m0 0c.67-3.66 5.13-3.86 6.05-.72m-6.05.72c1.62-1.6.28-.56 6.05-.72m0 0c1.26.75 5.48 3.13 6.77 5.34m-6.77-5.34c2.82 2.21 4.5 4.83 6.77 5.34m0 0c3.14 4.95-1.53 5.1.72 6.05m-.72-6.05c-.63 3.73 5.65 6.5.72 6.05m0 0c.18 5.37-4.9 7.25-10.3 13.09m10.3-13.09c-3.12 3.93-6.07 9.39-10.3 13.09m0 0c-1.12 7.66-5.96 1.8-6.06.72m6.05-.72c1.52 1.45-5.6-1.74-6.05.72m0 0c-.44-1.73-4.08-2.07-6.77-5.34m6.77 5.34c-1.67-2.29-4.42-4.5-6.77-5.34m0 0c1.32-1.92-2.69.42-.72-6.05m.72 6.05c.81 1.71-.01-7-.72-6.05"/>
  </g>
  <g stroke-linecap="round">
    <path fill="#eaddd7" stroke-width="0" d="M103.57 259.2c2.03-4.43 5.28-8.55 9.2-13.54-.65-2.66-.25-4.68 5.8-1.1 4.3 1.98 3.61 4.54 6.88 4.67 3.33 1.56 4.57 7.77 1.1 5.79-6.89 7.37-9.07 9.98-9.2 13.54-4.82-2.54-2.1 1.82-5.78 1.11-2.95-1.31-3.9-4.09-6.89-4.68-.66-2.87 1.26-5.25-1.1-5.79"/>
    <path fill="none" stroke="#846358" stroke-width="4" d="M103.57 259.2c1.17-6.33 6.63-7.91 9.2-13.54m-9.2 13.54c3.1-3.15 7.5-9.23 9.2-13.54m0 0c1.6 2.44 5.69-2.17 5.8-1.1m-5.8 1.1c.13 2.15 4.76.9 5.8-1.1m0 0c1.12 1.35 4.05 1.06 6.88 4.67m-6.89-4.68c3.27 1.08 4.94 3.07 6.9 4.68m0 0c3.7 4.77 2.8 2.14 1.1 5.79m-1.1-5.79c3.95 3.04 3.86 9.64 1.1 5.79m0 0c-.3 3.55-6.94 9.85-9.2 13.54m9.2-13.54c-2.61 2.62-3.58 8.27-9.2 13.54m0 0c-1.99 5.8.63 1.98-5.79 1.11m5.79-1.11c2.6.82.6 2.22-5.79 1.11m0 0c.6-1.46-2.89-1.83-6.89-4.68m6.9 4.68c-.85-1.53-3.33-2.69-6.9-4.68m0 0c-4.31 1.7-.05-4.95-1.1-5.79m1.1 5.8c-.92 1.35-6.26-5.08-1.1-5.8"/>
  </g>
  <g stroke-linecap="round">
    <path fill="#eaddd7" stroke-width="0" d="M146.04 85.03c.05 6.53 8.76 15.53 16.94 22.84 7.05.47 2.85 2.39-1.16 7.84-2.04 2.7-5.3 4.96-9 6.68-1.2 2.8-8.81 2.74-7.83-1.16-4.68-2.36-12.57-16.8-16.95-22.84 2.12-.55-3.39-7.29 1.16-7.84 5.74-2 5.07-3.52 9-6.68 6.8-6.02 6.87-8.88 7.84 1.16"/>
    <path fill="none" stroke="#846358" stroke-width="4" d="M146.04 85.03c2.8 7.97 11.86 11.77 16.94 22.84m-16.94-22.84c4.5 6.97 6.61 12.05 16.94 22.84m0 0c.14 6.53 3.05 7.92-1.16 7.84m1.16-7.84c4.8 2.87 2.78 9.18-1.16 7.84m0 0c-5.58 1.45-4.43 2.72-9 6.68m9-6.68c-3.64 1.6-5.62 4.08-9 6.68m0 0c-3.54 5.68-7.8.78-7.83-1.16m7.83 1.16c2.4 3.43-7.16 5.31-7.83-1.16m0 0c-7.43-4.9-17-18.26-16.95-22.84m16.95 22.84c-5.34-6.03-9.02-13.8-16.95-22.84m0 0c-2.56 1.91-.58-2 1.16-7.84m-1.16 7.84c2.56-3.96-4.2-3.61 1.16-7.84m0 0c4.35-3.56 5.26-6.18 9-6.68m-9 6.68c3.16-1.51 5.52-4.4 9-6.68m0 0c5.25-4.27 6.4 1.23 7.84 1.16m-7.84-1.16c2.33-.79 10.31-1.44 7.84 1.16"/>
  </g>
  <g stroke-linecap="round">
    <path fill="#eaddd7" stroke-width="0" d="M103 296.48c2.8 4.24 2.96 3.45 9.12 15.64 3.2-.33 4.1 10.04-3.27 12.38-10.26 1.97-10.53 9.18-17.62 10.27-7 8.1-7 1.8-12.38-3.27-3.83-5.27.82-5.86-9.1-15.63-4.9 1.92 3.1-7.37 3.25-12.38a61 61 0 0 0 17.63-10.27c5.79.12 12.41-5.63 12.38 3.26"/>
    <path fill="none" stroke="#846358" stroke-width="4" d="M103 296.48c1.56 5.64 5.1 4.89 9.12 15.64M103 296.48c.92 5.11 6.07 13.67 9.1 15.64m0 0c5.78 7.82 2.6 7.27-3.26 12.38m3.27-12.38c1.33 2.07-.24 11.49-3.27 12.38m0 0c-6.47 1.41-12.95 7.71-17.62 10.27m17.62-10.27c-7.4 4.52-13.16 5.22-17.62 10.27m0 0c-7.74.93-7.53-2.71-12.38-3.27m12.38 3.27c-5.4-.13-11.37 6.17-12.38-3.27m0 0c-1.8-4.73-1.63-10.57-9.1-15.63m9.1 15.63c-4.61-6.23-6.04-11.4-9.1-15.63m0 0c-2.95-5.07-1.78-5.28 3.25-12.38m-3.26 12.38c-2.46-7.67-2.24-12.17 3.26-12.38m0 0c4.87-3.96 9.4-9.64 17.63-10.27M73 303.5c3.98-1.62 7.95-3.57 17.63-10.27m0 0c1.3-2.07 9.14.81 12.38 3.26m-12.38-3.26c1.64-.9 11.02-3.94 12.38 3.26"/>
  </g>
  <g stroke-linecap="round">
    <path fill="#eaddd7" stroke-width="0" d="M276.85 65.25c2.4 2.97 6.25 9.93 10.06 13.28 7.04 4.93 3.21 3.34-1 7.24-.55 2.25-3.33 3.48-8.24 6.25-4.4-.69-3.17.94-7.24-1-2.52-10.86-8.68-6.04-10.06-13.28-3.28-4.5 2.65-8.4 1-7.24 1.45-.07 6.63-1.78 8.24-6.25-1.79-5.35 5.82-4.49 7.24 1"/>
    <path fill="none" stroke="#846358" stroke-width="4" d="M276.85 65.25c-1.46 2.16 2.7 2.93 10.06 13.28m-10.06-13.28c2.56 3.14 4.35 7.2 10.06 13.28m0 0c2.67-1.55 1.9 3.02-1 7.24m1-7.24c4.69.6 5 6.26-1 7.24m0 0c-1.18 1.52-4.57 1.1-8.24 6.25m8.24-6.25c-4.14 2.48-6.58 5.95-8.24 6.25m0 0c-5.76 4.08-8.25 2.36-7.24-1m7.24 1c-3.9-1.2-4.45 1.88-7.24-1m0 0c-4.12-5.1-5.61-3.35-10.06-13.28m10.06 13.28c-4.36-4.24-7.15-11.36-10.06-13.28m0 0c-2-6.3 2.14-6.2 1-7.24m-1 7.24c-2.7-5.91-1.13-8.28 1-7.24m0 0c1.81-3.81 5.72-2.73 8.24-6.25m-8.24 6.25c1.9-1.61 5-3.98 8.24-6.25m0 0c-.43-2.42 5.07.96 7.24 1m-7.24-1c4.76-4.08 4.39-2.27 7.24 1"/>
  </g>
  <g fill-rule="evenodd" stroke-linecap="round">
    <path fill="#e9ecef" stroke-width="0" d="M698 14.06c-22.1 6.16-89.98 13.16-132.86 31.75s-104.68 56.94-124.4 79.8c-19.73 22.86-2.51 40.39 6.06 57.38 8.58 16.98 17.65 44.68 45.38 44.53s80.59-25.28 121-45.45c40.4-20.16 107.8-47.41 121.45-75.55 13.64-28.13-33.02-76.98-39.6-93.26"/>
    <path fill="none" stroke="#1e1e1e" stroke-width="4" d="M695.77 13.76c-22.38 5.43-90.84 14.85-133.56 32.52S459.06 97.65 439.46 119.8s-2.86 40.8 5.19 59.43c8.04 18.63 15.04 51.57 43.09 52.33 28.04.76 83.52-26.38 125.16-47.78s110.46-52.38 124.68-80.6S704.5 30 698.22 14.5m1.6-2.26c-22.68 4.52-96.68 12-140.21 30.29s-101.73 56.3-120.95 79.45c-19.22 23.14-3.31 42.18 5.6 59.4 8.94 17.2 19.4 43.73 47.95 43.89 28.53.16 83.39-23.33 123.28-42.94s102.63-46.82 116.05-74.7-29.81-77.07-35.54-92.6"/>
  </g>
  <g stroke-linecap="round">
    <path fill="oklch(from var(--color-info) 0.9 c h)" stroke-width="0" d="M608.03 60.06c5.61-4.84 15.44-8.28 23.3-9.45 7.85-1.16 17.17-.7 23.85 2.45 6.7 3.13 12.23 10.16 16.26 16.35s7.78 13.5 7.92 20.84c.14 7.32-3.06 16.28-7.08 23.13-4.02 6.86-9.84 14.4-17.04 18s-18.53 4.87-26.12 3.6c-7.6-1.24-13.6-5.96-19.47-11.13s-13.28-12.55-15.7-19.9c-2.43-7.35-2.18-15.88 1.16-24.18S610.12 58.82 614 54.16s4.02-3.47 4.33-2.37m-1.05 1.92c6.58-3.15 17.97-6.35 25.62-4.97s14.51 7.85 20.31 13.2 11.9 11.36 14.51 18.9 3.95 19.09 1.18 26.36c-2.76 7.27-11.32 13.22-17.75 17.26a46 46 0 0 1-20.85 6.99c-7.2.55-15.45-1.11-22.35-3.71-6.89-2.61-14.45-5.64-19.02-11.93s-9-17.53-8.42-25.84 7.34-17.33 11.9-24c4.55-6.65 12.44-13.78 15.42-15.97s1.48 1.66 2.46 2.84"/>
    <path fill="none" stroke="var(--color-info)" stroke-width="4" d="M604.07 62.14c4.52-5.71 12.81-10.12 20.31-12.01s17.3-1.4 24.7.62 15.04 5.43 19.7 11.5c4.64 6.08 7.51 16.84 8.18 24.95.68 8.1-1.17 16.78-4.13 23.73s-7.33 14.09-13.62 17.96c-6.3 3.87-16.08 5.35-24.15 5.27-8.07-.07-18.22-1.33-24.27-5.72-6.05-4.4-8.88-13.08-12.04-20.62-3.16-7.53-8.99-16-6.94-24.58 2.06-8.58 14.12-21.83 19.26-26.93s11.1-4.35 11.61-3.64m36.34 3.9c6.96 3.95 16.2 12.86 18.9 20.15s-.93 16.2-2.65 23.56-3.06 15.24-7.67 20.62-12.18 9.65-19.98 11.66-18.7 3.5-26.8.43c-8.12-3.06-17.3-12.23-21.88-18.81s-5.22-13.58-5.6-20.7c-.4-7.11-.1-15.58 3.27-22 3.37-6.4 9.83-12.88 16.93-16.43 7.11-3.54 17.53-4.97 25.7-4.84s19.66 4.35 23.34 5.58-.19 1.13-1.27 1.78"/>
  </g>
  <g fill-rule="evenodd" stroke-linecap="round">
    <path fill="oklch(from var(--color-error) 0.85 c h)" stroke-width="0" d="M699.13 13.1c8.32-1.48 33.59-6.83 48.82-4.4s39.59 9.12 42.54 19c2.96 9.86-15.43 28.54-24.8 40.22-9.34 11.67-20.93 31.77-31.33 29.8s-24.74-27.88-31.02-41.6c-6.27-13.72-6.41-33.8-6.64-40.72"/>
    <path fill="none" stroke="var(--color-error)" stroke-width="4" d="M699.4 14.58c8.32-.46 34.74-6.04 49.37-4.22s35.28 6.1 38.42 15.16-11.47 26.73-19.57 39.22-19.02 36.74-29.05 35.7-24.67-27.56-31.11-41.97c-6.45-14.4-6.68-37.4-7.56-44.43m4.04-1.68c8.13-.08 29.35-2.29 42.83.47 13.49 2.76 34.3 6.96 38.08 16.08 3.77 9.12-7.41 26.41-15.48 38.63s-21.85 36.63-32.91 34.68c-11.07-1.95-27.6-31.15-33.5-46.38-5.91-15.23-1.55-38.49-1.95-45.02"/>
  </g>
  <g fill-rule="evenodd" stroke-linecap="round">
    <path fill="oklch(from var(--color-error) 0.85 c h)" stroke-width="0" d="M573 205.66c-2.34 5.26-10.86 20.69-14.65 30.3-3.78 9.62 9.22 16.3-8.05 27.39s-78.5 34.22-95.56 39.18c-17.07 4.95-10.56-3.66-6.85-9.45 3.72-5.8 22.6-14.25 29.14-25.3 6.53-11.02-4.72-31.11 10.04-40.9 14.76-9.8 65-14.55 78.52-17.85"/>
    <path fill="none" stroke="var(--color-error)" stroke-width="4" d="M571.46 205.75c-2.4 3.6-11.41 15.37-14.93 24.7s11.75 19.48-6.18 31.3c-17.93 11.84-84.23 34.19-101.41 39.7-17.2 5.5-6.44-.91-1.71-6.63s22.95-17.13 30.12-27.7c7.16-10.54-2.57-25.15 12.89-35.63s66.8-22.7 79.85-27.23m-.93-1.27c-2.95 5.12-11.85 19.7-15.04 30s13.56 20.02-4.08 31.82-84.13 33.66-101.8 38.99c-17.65 5.33-9.35-.64-4.16-7.02s28.59-19.88 35.29-31.25-9.87-26.46 4.9-37c14.79-10.52 69.04-22.86 83.8-26.18"/>
  </g>
  <g fill-rule="evenodd" stroke-linecap="round">
    <path fill="oklch(from var(--color-error) 0.85 c h)" stroke-width="0" d="M501.02 70.03C493.6 67 478.5 44.1 455.12 49.04s-79.28 40.55-94.4 50.7c-15.1 10.13-4.85 8.02 3.78 10.12s35.05 1.02 48 2.46c12.95 1.43 22.37 7.42 29.7 6.14 7.35-1.28 8.8-9.08 14.36-13.83 5.54-4.76 11-8.52 18.94-14.7 7.94-6.19 24.25-19.37 28.69-22.4"/>
    <path fill="none" stroke="var(--color-error)" stroke-width="4" d="M498.97 74.11c-8.22-3.3-24.4-27.93-47.18-23.88-22.8 4.05-74.07 38.17-89.56 48.18-15.5 10.02-11.95 10.47-3.4 11.9 8.58 1.42 41.03-4.98 54.79-3.35s20.73 13.26 27.8 13.16c7.06-.1 9.46-9.3 14.6-13.76s9-6.93 16.23-12.97 21.98-19.46 27.16-23.27m3.37 2.92c-8.46-2.69-29.14-23.79-52.7-19.19-23.55 4.6-73.36 36.93-88.6 46.8-15.24 9.88-11.18 11.34-2.83 12.44s39.84-6.7 52.93-5.83c13.09.86 17.83 11.54 25.59 11.01 7.75-.52 15.45-9.93 20.93-14.16s4.45-6.34 11.93-11.23 28.35-14.17 32.93-18.16"/>
  </g>
  <path fill="none" stroke="#1e1e1e" stroke-linecap="round" stroke-width="4" d="M561.45 51.66c.71 9.9-4.54 39.97 4.78 59.39 9.32 19.4 44.38 46.2 51.14 57.06 6.77 10.89-.25 16.37-10.53 8.19s-40.79-36.67-51.17-57.26c-10.38-20.6-12.32-54.6-11.15-66.32 1.19-11.73 15.7-3.32 18.23-4.03m-3.99 1.67c1.39 11.56 3.32 43.86 12.84 64.01s38.29 46.33 44.27 56.88c5.96 10.56 2.1 14.98-8.44 6.43-10.54-8.53-44.81-37.67-54.84-57.67-10.03-19.98-6.08-49.72-5.32-62.24s8.26-11.13 9.87-12.9"/>
  <g fill-rule="evenodd" stroke-linecap="round">
    <path fill="#e9ecef" stroke-width="0" d="M431.5 147.38c-3.4 3-17.97 5.72-20.43 15.13s.45 30.45 5.69 41.29 18.49 21.86 25.74 23.78 19.92.68 17.77-12.27c-2.15-12.96-25.4-53.62-30.65-65.46"/>
    <path fill="none" stroke="#1e1e1e" stroke-width="4" d="M427.9 145.63c-2.67 1.7-15.55 3.39-17.11 12.98s3 33.43 7.78 44.58c4.76 11.14 13.73 19.77 20.8 22.32 7.07 2.54 23.44 5.77 21.63-7.06-1.8-12.83-27.2-58.12-32.46-69.91m-4.23 2.4c-2.97 1.94-15.12 2.65-16.17 10.57-1.04 7.92 4.68 25.8 9.9 36.94 5.2 11.13 13.44 26.28 21.38 29.89 7.95 3.62 27.5 5.39 26.28-8.2-1.23-13.6-27.92-60.78-33.62-73.35"/>
  </g>
  <g fill-rule="evenodd" stroke-linecap="round">
    <path fill="#ffec99" stroke-width="0" d="M405.92 163.41c-4.05-.93-14.4-6.72-24.17-4.06-9.8 2.67-32.37 16.4-34.54 20.05s27.58-4.34 21.5 1.86c-6.05 6.21-51.72 30.13-57.87 35.4-6.15 5.25 30.77-13.22 20.96-3.84s-81.2 57-79.77 60.1 75.37-37.79 88.38-41.45-13.68 18.53-10.31 19.5c3.38.97 28.04-15.42 30.55-13.67 2.5 1.75-19.95 22.48-15.48 24.17s35.5-14.5 42.3-14.05c6.8.46-6.01 17.9-1.5 16.8s21.13-16.99 28.59-23.44 15.65-9.3 16.23-15.26c.57-5.96-8.68-9.55-12.77-20.48s-9.91-38.49-11.76-45.08"/>
    <path fill="none" stroke="#f08c00" stroke-width="4" d="M405.48 164.24c-3.63.14-10.2-7.27-19.55-4.32s-34.46 17.6-36.58 22.01 30.82-.38 23.87 4.52c-6.96 4.91-58.51 20.7-65.6 24.91s32.12-9.94 23.08.43-79.27 57.68-77.31 61.76c1.97 4.1 75.89-33.34 89.1-37.26 13.23-3.92-12.68 13.52-9.8 13.74 2.9.21 25.2-14.32 27.14-12.44 1.93 1.87-20.67 22.5-15.55 23.68 5.12 1.2 39.6-16.53 46.27-16.56 6.66-.03-10.65 16.94-6.31 16.36s24.7-14.05 32.36-19.83 14.09-8.2 13.55-14.84c-.55-6.63-13.13-14.49-16.83-24.95-3.7-10.47-4.37-31.22-5.36-37.84m-5.97-.5c-4.17.82-9.2-3.58-18.12.14s-32.56 19.2-35.44 22.17 24.24-8.53 18.17-4.28-49.04 25.15-54.58 29.75 30.86-13.27 21.37-2.15-79.41 64.26-78.27 68.84c1.13 4.58 72.62-37.55 85.09-41.36 12.46-3.8-13.97 17.24-10.31 18.5s29.65-12.34 32.27-10.94c2.6 1.4-20.78 19.3-16.6 19.32s34.93-18.56 41.65-19.16-6.1 14.87-1.35 15.56 22.2-5.66 29.83-11.44 16.1-15.99 15.88-23.24c-.22-7.26-13.04-9.1-17.25-20.29s-6.54-39.8-8.03-46.8"/>
  </g>
  <g fill-rule="evenodd" stroke-linecap="round">
    <path fill="oklch(from var(--color-error) 0.85 c h)" stroke-width="0" d="M443.24 166.15c-6.96 3.1-38.99 19.07-46.17 23.59s-6.6 3.56 3.07 3.54 47.93.65 54.93-3.64-11.42-19.34-12.95-22.11"/>
    <path fill="none" stroke="var(--color-error)" stroke-width="4" d="M439.98 168.6c-7.03 3.67-33.05 14.97-39.83 19.58-6.77 4.6-9.76 7.12-.82 8.04s47.06 2.42 54.5-2.52c7.42-4.93-8.34-23.28-9.9-27.07m-.08-.57c-7.32 3.13-37.99 14.14-45.5 18.34s-8.76 6.04.44 6.82 47.68 2 54.76-2.13-10.06-19.47-12.29-22.71"/>
  </g>
  <g fill-rule="evenodd" stroke-linecap="round">
    <path fill="#1e1e1e" stroke-width="0" d="M548.87 154.17c-6.54-1.11-31.42-6.17-39.61-5.85-8.2.32-9.12 5.12-9.59 7.8s-1.41 8.11 6.74 8.29c8.15.16 34.94-6.18 42.17-7.29"/>
    <path fill="none" stroke="#1e1e1e" stroke-width="2" d="M548.04 156.7c-7.03-.94-32.86-6.97-40.8-7.38-7.95-.42-6.83 2.65-6.83 4.87.01 2.24-1.26 8.15 6.84 8.48 8.09.35 34.59-5.28 41.7-6.39m.86-.17c-7.31-1.2-35.47-8.2-43.83-8.33s-6.65 5.44-6.38 7.55c.28 2.12.02 4.87 8.01 5.16s33.22-2.53 39.97-3.39"/>
  </g>
  <path fill="none" stroke="#1e1e1e" stroke-linecap="round" stroke-width="2" d="M476.67 108.1c1.89 2.93 9.6 14.95 11.7 18.36m-13.06-19.39c2.2 2.97 13.11 16.96 15.3 20.25M506.81 101.12c-.25 3.64.77 16.9.74 20.07m.8-20.9c-.45 3.35-1.02 15.47-1.45 18.93M528.25 127.77c2.15-2.43 9.35-12.94 11.2-15.57m-12.12 14.94a473 473 0 0 0 11.22-13.27M539.14 146.4c3.25-.81 15.92-3.92 18.94-5.03m-19.98 4.57c3.11-1.2 16.3-5.2 19.4-6.04M537.8 165.7c2.88 1.55 15.55 6.65 18.45 7.75m-16.42-8.52c2.62 1.3 12.48 5.64 15.46 7.08M527.4 181.56c1.6 2.88 6.93 13.63 8.51 16.51m-9.51-17.13a1560 1560 0 0 1 11.84 18.55"/>
  <text y="30.58" fill="#1e1e1e" dominant-baseline="alphabetic" font-family="Excalifont, Xiaolai, sans-serif, Segoe UI Emoji" font-size="34.71" style="white-space:pre" transform="rotate(59.08 123.96 487.81)">100</text>
  <g stroke-linecap="round">
    <path fill="#eaddd7" stroke-width="0" d="M278.96 215.5c1.2-.5 6.58 11.94 8.2 21.38 5.9 5.26-2.53 11.37-4.14 9.32-8.77-.82-9.02.36-13.48 5.16.15 4.74-4.53-4.74-9.31-4.15-5.52-5.17-9.5-11.13-8.2-21.39-5.45-2.57-6.1-11.08 4.15-9.31 5.64-3.56 3.36-5.27 13.47-5.17 6.74-.08 7.6-.05 9.31 4.15"/>
    <path fill="none" stroke="#846358" stroke-width="4" d="M278.96 215.5c3.32 1.4 6.36 13.69 8.2 21.38m-8.2-21.39c1.04 5.34 5.66 11.88 8.2 21.4m0 0c.33 4.4-.35 7.04-4.14 9.3m4.15-9.3c1.12 9.34-3.85 9.28-4.15 9.3m0 0c-3.13.87-10.2 6.43-13.48 5.17m13.48-5.16c-3.83 2.53-7.92 2.04-13.48 5.16m0 0c-2.36-.6-9.61-1.63-9.31-4.15m9.31 4.15c-3.11 5.64-5.57-.91-9.31-4.15m0 0c-3.98-3.65-6.1-10.64-8.2-21.39m8.2 21.4c-3-4.9-3.37-7.53-8.2-21.4m0 0c-2.33-7.55-2.2-3.79 4.15-9.31m-4.15 9.31c2.44-2.48.66-4.64 4.15-9.31m0 0c6.49-3.05 8.25-5.33 13.47-5.17m-13.47 5.17c4.76-.63 10.63-3.26 13.47-5.17m0 0c6.26-5.29 6.66 2.34 9.31 4.15m-9.31-4.15c5.06-5.32 3.45.16 9.31 4.15"/>
  </g>
  <g stroke-linecap="round">
    <path fill="#eaddd7" stroke-width="0" d="M168.09 267.15c17.8 4.03 37.07.9 71.12 1.78 14.7 4.6 16.29 5.21 19.5 20.5 4.13 7.2-4.34 14.84-1 39.99-.97 14.49-4.97 19.7-20.5 19.49-23.8 5.42-49.2-3.4-71.13-1.78-8.51-3.7-23.1-5.8-19.5-20.5.13-11.45-4.26-29.3 1.01-39.99 3.38-18.26 6.27-17.18 20.5-19.49"/>
    <path fill="none" stroke="#846358" stroke-width="4" d="M168.09 267.15c28.78 1 55.44-.7 71.12 1.78m-71.12-1.78c18.65.15 37.14 1.05 71.12 1.78m0 0c10.65-1.79 22.78 4.46 19.5 20.5m-19.5-20.5c11.6.14 15.99 7.28 19.5 20.5m0 0c-.7 8.16-2.46 20.35-1 39.99m1-39.99c-.93 11.28.63 21.1-1 39.99m0 0c-2.87 11.17-10.63 17.09-20.5 19.49m20.5-19.5c-.25 8.94-10.05 16.47-20.5 19.5m0 0c-22.9 2.49-47.25-4.94-71.13-1.78m71.13 1.78c-17.37 2.02-35.13-.51-71.13-1.78m0 0c-16.05 1.53-21.4-3.68-19.5-20.5m19.5 20.5c-14.18-1.53-17.94-7.36-19.5-20.5m0 0c2.95-10.34-.24-27.86 1.01-39.99m-1 40c2.8-13.55 2.54-27.98 1-40m0 0c-1.55-15.37 10.42-18.87 20.5-19.49m-20.5 19.5c1.44-11.77 9.08-15.33 20.5-19.5"/>
  </g>
  <text x="42.72" y="24.67" fill="#846358" dominant-baseline="alphabetic" font-family="Excalifont, Xiaolai, sans-serif, Segoe UI Emoji" font-size="28" style="white-space:pre" text-anchor="middle" transform="rotate(1.44 -10766.1 6549.8)">Sanity</text>
  <text x="42.72" y="59.67" fill="#846358" dominant-baseline="alphabetic" font-family="Excalifont, Xiaolai, sans-serif, Segoe UI Emoji" font-size="28" style="white-space:pre" text-anchor="middle" transform="rotate(1.44 -10766.1 6549.8)">CMS</text>
</svg>
